<svg xmlns="http://www.w3.org/2000/svg" width="932" height="1445"><path d="M0 0h932v1445H0V0z" fill="#009696"/><path d="m364 531 8 17c5 13 12 26 21 37l4 7 2 1 5 2c5 4 8 5 14 4l9-3c25-9 51-8 77-8h3c10 0 19 1 29 3h2l20 6c5 1 8 0 12-3 4-2 7-6 10-9l2-2c6-4 11-10 14-16h2l1-2 4-7 1-3 3-6 7-14 3-4 8 1c9 9 16 18 17 31 1 10 0 19-2 29l-1 4c-2 7-4 14-8 20l-2 5-7 9c-4 4-4 4-6 10l4 7 4 11 2 4c7 18 11 36 13 55l3 1c8 3 14 13 20 20l2 2c9 12 12 26 14 40v2c2 16-4 33-11 47h-2l-1 2c-2 3-4 4-7 5-4 1-7 0-11-1-6-8-6-18-5-27a314 314 0 0 1 1-12v-17h-5l-3 15c-2 14-6 29-13 42l-3 6c-6 12-17 24-29 30l-7 4-5 1v5l1 4v11c0 6 0 6 3 11l3 2 3 3c1 4 2 7 1 11l-5 5-2 2c-6 4-11 5-19 5h-3c-7 0-15 0-21-4l-2-1-2-2c-3-8-2-17-2-25l1-3v-8h-3l-25 1h-22l-10-1h-10l-9-1v2c-4 34-4 34-10 39l-9 6-2 2c-7 3-17 5-25 4l-5-4-3-2c-3-2-3-2-4-5v-6c0-6 0-10 3-15l4-1h3l1-16v-9c0-2-1-3-3-5l-5-2c-23-9-35-31-46-52l-5-16v-4l-3-9-1-2-3-17v-6l-1-2-1-3c-2 5-2 8-2 13v13l1 14c1 5 1 9-2 13-3 3-4 3-7 3-7 0-13 0-18-5-7-8-9-15-9-25v-4c1-22 9-45 24-61l4-3c4-4 5-6 6-11v-6c4-27 9-49 24-72l-3-5-3-5-6-9c-5-8-9-16-12-25l-1-2-3-21v-3c0-11 4-22 12-30 7-5 11-7 20-7z" fill="#fdc20b"/><path d="M294 42c6 0 11 3 15 7v2h2c7 3 12 13 15 19l2 2c4 8 3 17 3 26v6c0 9 0 18-3 26l-1 4-6 14c-2 5-2 5-1 9l2 4 1 3 11 15 6 9-1 5h2v9c-3 2-6 1-10 1l1 2c6 8 9 16 12 25l1 3c4 11 4 11 1 17-4 4-7 5-13 5v2l-5 30v7l5 6 2 1v2l2 1c6 3 10 11 14 17v3l3 1 2 5 1 3 3 11 1 2c3 10 1 23-2 32-3 6-7 11-14 14l-11 1-4-5-3-3c-3-3-4-5-4-10l1-5 8-2c2-12 3-26-5-37-1-3-1-3-4-5h-1v3c-2 22-6 48-21 65l-1 2c-5 9-15 15-23 19h-2v2l-7 4-1 1c-11 6-11 6-16 6 0 9 2 15 6 22l4 12h4l6 2c2 3 1 6 1 9l-3 3-6 1v2c-12 4-19 6-31 0-5-2-7-5-10-9l-1-12v-2l-1-7v-15h-2l-8 1h-10l-29-1v17c1 14 1 14-4 20-7 6-14 10-23 11h-3c-9 1-17-3-25-8l-1-1a102 102 0 0 1 0-6l1-3v-2l9-3c4-1 7-2 10-7 2-5 2-11 2-17v-12h-3l-11-5-2-1-3-3-5-3a298 298 0 0 1-9-6l-2-1c-17-14-23-39-27-59l-1-5-1-8v-8c-11 12-13 26-13 42h2l2 1h3l3 3 1 2h2c0 6 0 6-2 9l-5 2-6 5c-2 2-4 4-8 5-8 0-12-4-17-9-7-12-6-26-3-38 2-8 6-14 10-20l1-2c1-4 3-6 5-9l2-3 2-3 2-3h2l1-2c1-4 3-6 6-8l6-1-1-2-4-20-1-3-1-9-1-4-1-8-2 1c-10 5-10 5-16 4-2-2-2-2-2-5 0-17 13-37 22-51h2l2-5h-3l-5-1c-1-7 0-13 4-19a238 238 0 0 1 8-9l3-3 2-2c3-4 3-6 2-10l-3-9-2-5-1-2c-3-6-2-13-2-19v-4c0-18 4-31 14-45l2-4 2-2h2l1-2c3-5 8-8 14-10l2-1v-2l7-1 2 2-2 10c-2 7-3 15-2 23l1 1 1 5c1 10 5 18 11 26l2 4 2 2 10-3c10-3 21-5 31-2l-1-2c-2-6-3-11-1-17 2-2 2-3 5-3 6 0 11 1 16 4l5 6 1 2h2l1-3c2-4 4-6 8-8 4-1 8-1 12 1 3 2 4 4 4 7v9l-1 4 5-1v-2c16-4 34 4 48 11 11-8 18-22 20-35l1-13v-3c1-6-1-11-4-17l-1-7c2-2 2-2 5-2z" fill="#f97216"/><path d="m146 1009 4 2v3c-1 11 0 19 5 28 3 0 4-1 6-3 5-3 11-7 17-7v-2l13-2 3-1 22-3h3c12-1 24 2 36 4l8 2 26 8 4 2c14 5 25 12 35 24 2 3 2 3 6 5l6-1 4-1c10-3 16-10 22-18l4-3c5 1 8 4 11 8l3 9 1 3c3 10 0 19-5 28-5 8-5 8-9 10v2l-4 3-2 2-4 3-2 4c0 5 1 9 3 14 4 15 10 49 3 63 8-4 20-10 23-19l2-11c0-4 1-6 4-9 4-2 6-2 10-2v8h2l5-8 7-6h5l2 2c0 7-2 11-6 16l-2 2h2c5-2 9-2 15 0v8l-5 3-3 1-2 1 7 3-1 7c-4 3-7 3-12 3s-9 1-13 4a114 114 0 0 0-3 4 58 58 0 0 1-38 19h-3v3l-4 11-1 3-3 8-3 7c-3 6-5 12-9 17l-4 6h-2l-1 2c-4 7-11 11-17 16l-2 1-7 4v2l-4 2-2 1-4 1 1 16h2l4 4 1 2 2 2 1 1c0 4 1 7-1 11-8 6-17 5-26 5h-4c-8 0-14 0-20-5-4-7-3-14-2-22l-2-6h-7l-2-1h-18l-21-1c-5 0-5 0-9 2v6c-1 8-2 15-6 22-8 5-19 4-28 4h-3c-8 0-16 0-23-5-2-4-3-5-2-9l1-2h2l1-3 8-3 3-3 1-12v-8l-3-1c-9-4-16-10-24-16l-5-3-7-8-3-3-4-5-4-4c-3-4-4-8-6-13l-1-4c-5-12-5-23-5-36v-17c0-3 0-5-2-7l-6-3c-9-4-17-9-21-18l-5-9-3-3c-3-4-7-7-12-9l-2-1-2-1v-2h-2l1-5 3-1 4-1 1-2-2-1c-3-1-5-3-7-6-1-4 0-5 2-9 7-1 12 2 18 5l-2-3c-3-3-3-3-3-5l-2-1-3-2 2-8c4 0 6 0 10 2 7 5 9 10 12 18l2-10v-7l5-1c4 5 6 9 6 16a239 239 0 0 1 0 8c-1 6-1 11 1 17l1 4h2l3 5 3 5h2l1-4c6-35 6-35 13-47l2-4 5-9 1-2 3-5v-6l-1-3-1-3-2-4c-2-5-4-9-4-15v-3c-1-11 2-21 9-30l13-8 3-2 11-1z" fill="#f25a83"/><path d="m226 580 10 9 5 4 2 1v2l2 1c4 2 7 7 10 11l2 2c15 21 21 50 22 76v2c1 19 1 40-5 59l-3 12-3 18h2l1 3 6 20 7 23 1 3c3 15 3 31 0 46l-2 2-2 5c-2 4-4 7-8 9-5 2-11 2-17 1l-4-4v-2h-2c-2-3-2-5-2-9v-5l3-1c6-2 9-6 11-12 2-8 2-16 1-24l-2-18-4 6h-2v2l-3 7-4 9-5 12-1 2c-3 7-3 7-6 10h-2l-1 2c-5 9-13 14-22 19l2 1v3c-1 23-1 23 5 45v3l2 1 4 3c3 3 5 2 9 3 4 2 6 4 8 8l1 5v3l-1 4c-4 3-7 3-11 3h-3l-6 1h-3c-9 1-21-3-29-9-3-4-4-6-4-11v-53l-2 1h-3l-2 1-13 1h-3l-21-2v7l1 3 1 8c2 6 1 12 1 18v4c0 15 0 15-2 21l1 4c0 4-1 6-3 9-4 4-9 4-14 4h-3c-8 0-16 0-23-5-3-3-4-4-5-9 1-4 2-5 5-8l6-1c4 0 7-3 10-6 6-8 5-17 5-27v-5l-1-25-2-1c-19-8-31-28-39-46l-4-19-4-17v-4h-2l-1-2-1 3-2 4-1 1v2l-1 2-2 4c-3 7-3 12-3 19v3l1 13 6 2 1 5-5 5-2 6h-2l-1 2c-1 2-2 3-5 4h-5l-3-3h-4c-6-6-9-14-9-22v-3l-1-7v-2c0-4 0-7 3-10 3-5 4-10 6-16 2-8 5-14 9-21l3-4c10-17 10-17 14-21h2v-33l2-42v-4l5-25 3-8c3-11 7-21 12-31l2-3c2-5 4-8 8-12l6-6 14-14 2-2c9-7 18-10 29-12l9-3c21-7 51-1 68 12z" fill="#6c4f90"/><path d="M762 113h23v2h2c22 3 40 16 53 32 14 17 19 37 23 58l2 11 6 35v3c2 14 3 27 3 41v25l-1 3c0 4 1 7 3 10l3 3 1 5c1 6 3 10 6 15l7 17 1 2 1 7 1 2v15h2c1 38 1 38-8 49-5 4-9 4-15 4-4 0-7-2-10-5-2-3-4-6-4-10l3-7 5-13v-2l2-7 1-2 2-15v-12l-2-23h-2v3c-1 8-5 15-8 22l-1 3c-5 8-9 16-16 23l-5 6-1 1h-2l-1 2c-2 3-4 4-8 5l-3 2-2 1-7 4c-12 5-24 7-37 6h-7c-13 0-25-3-37-8l-3-1c-9-4-16-10-23-17l-2-1-2-5-2-1-6-7-1-2-3-5-2-3c-6-11-10-22-10-35l-4 3-1 2-1 2-1 3-1 2c-7 19-5 43 3 61 3 8 3 8 10 13 0 6-1 10-5 15-6 5-10 6-18 6-4 0-6-2-8-5-7-11-8-23-8-36v-3c0-9 2-18 5-28l5-21v-4l1-2 2-1v-3l4-7 2-5 8-14h2v-2c0-17 0-34 2-51v-12l1-6v-11l1-3 2-9a193 193 0 0 0 1-7l1-3v-2c5-26 12-51 26-74l2-3c9-14 25-26 42-29l2-1 6-1z" fill="#2cd12a"/><path d="M516 94h2c30 0 53 7 75 29 19 21 28 49 27 77 0 11-3 21-8 31l-3 8c-2 6-5 10-9 14l-5 7-6 3-2 3h-2l-1 2-3 4c-3 3-3 6-3 10v2c0 7 1 11 4 17l1 3 3 3 3 1 3 2c6 3 12 4 18 2l4-1c8-1 14-1 21 3l4 4v7c0 3-1 6-4 9-12 8-29 9-43 7-10-3-21-9-28-16v-2l-5-1v15c0 7 1 11 4 17l2 6v2l1 2h2l3 4 10 11c3 4 2 7 2 12 0 2-1 3-3 5a30 30 0 0 1-35-5v-2l-2-1c-7-4-11-12-14-19l-1-6h-2c-4-10-5-20-6-31l-4-1c-2 9-3 19-1 29 1 8 0 17-2 25v8c0 6-2 11-5 16-5 3-11 3-17 2l-9-5-3-2c-10-11-6-33-5-47v-14h-2l-1 3-5 9-2 3-2 2h-2l-1 2-3 7-2 2-1 2h-3v3c-2 5-4 9-9 12s-10 3-16 3l-5-3v-2h-2c-2-3-4-5-4-10 1-6 3-11 6-17l1-2c3-7 7-13 12-19h2l1-2 3-5 3-5-3 1-11 1h-6a562 562 0 0 0-7 0c-19 0-19 0-26-6l-2-1-4-9v-3c0-3 2-4 4-6 7-4 14-4 21-4 18 0 28-4 41-15l2-4c-1-5-3-6-6-10-20-20-32-42-32-71 0-12 2-22 7-33l2-6c4-10 8-19 15-27l2-3 14-14 6-6c5-6 11-9 19-12h2c11-4 23-4 36-4zm312 649 3 2c13 10 22 27 24 43 1 13-1 25-4 38-3 9-5 20-1 29l1 3c5 7 14 10 22 12l3 1 5 3v6a184 184 0 0 1-16 5l-4 2c-7 1-14 0-21-3l-5-7h-4c0 4 0 5 2 8l2 3 3 3 2 3c2 4 2 6 2 10-7 4-12 5-20 3-4-2-6-3-9-7l-3-12h-3v2c-3 19-3 19-9 25-4 2-8 1-13 0-6-3-8-8-10-15v-7l-5-1v2c-2 6-4 10-9 14h-2l-1 3c-4 2-8 1-12 0-5-2-5-2-7-5-1-8 1-15 4-23h2v-5l-4-2-3 2c-7 3-13 3-20 1-17-5-17-5-19-10 0-3-1-5 2-8s6-3 10-4c10-2 10-2 17-8 3-5 2-11 2-17v-3l-1-17c-1-17 4-33 13-46l7-6 2-2 1-1 4-5c6-7 14-11 22-13l6-2c15-6 30-3 44 6z" fill="#f35b84"/><path d="M214 632c11 8 19 20 22 33l1 2c4 15 0 30-7 43-9 14-22 23-38 27-15 2-27-1-40-10a66 66 0 0 1-24-39c-1-20 4-37 17-52 19-17 49-18 69-4z" fill="#f9e3d0"/><path d="M549 139c13 10 21 24 24 40v15c-2 11-8 20-16 27l-3 2a56 56 0 0 1-43 14c-13-1-27-7-36-17-11-15-11-33-8-50 2-10 6-18 13-25h2v-2l6-4 2-1c19-11 41-13 59 1z" fill="#fae4d0"/><path d="m801 172 7 7 3 2c12 14 15 29 14 46 0 8-4 14-8 20l-2 3c-7 9-14 16-25 20l-2 1c-5 2-10 3-15 2h-3c-12 0-24-5-32-13-9-10-14-20-15-33v-2c-1-15 4-32 13-43l2-2 2-2 6-5 3-2c15-9 37-8 52 1z" fill="#f3f4a7"/><path d="M560 743c4 8 4 17 2 26-6 17-15 30-32 38l-3 1c-8 5-16 7-26 8l-6 1c-18 2-36-2-51-12l-3-2c-3-2-4-4-5-7l-2-1c-4-1-5-4-7-8l-1-1-4-13-2-6c-2-5-2-10 0-16 2-3 4-6 8-8 7-2 13-1 19 0l3 1 6 1-1 3c0 3 0 3 2 5s2 2 6 2c3-1 3-1 5-4l-1-5h31l13-1 1 6 3 4h6l4-2v-5l-1-2v-2h3l4-1h2l16-3c5 0 7 1 11 3z" fill="#793401"/><path d="M831 288c4 4 5 9 5 15 0 12-4 26-13 35-9 8-16 12-28 15l-4 1c-18 4-36 0-52-9-12-8-19-20-23-34-1-7-1-13 3-19l5-4 8 1 2 1c4 0 6 1 9 3l-1 1v7l2 1 4 2 9 1 1-10h34v6l5 5 9-1v-7l-8-2v-2c26-8 26-8 33-6z" fill="#016828"/><path d="M476 1253a37 37 0 0 1 18 31v3c1 12-5 24-13 33-9 9-20 14-33 14-11-1-20-4-28-12-9-10-12-26-11-40 1-9 6-17 13-23l2-2c13-11 37-13 52-4z" fill="#2bd12a"/><path d="m621 1203 15 3-3 3 3 7a153 153 0 0 0 7 0h6l1-3 1-3h9c18 3 36 1 54-2v5l5 3 2 1h7c3-3 3-5 3-9l-4-2h3l3-1h4l5-2c7 0 7 0 11 2 2 8-1 15-5 22-3 4-5 8-9 11l-2 2a81 81 0 0 1-55 23h-6c-22-2-42-12-56-28-6-8-11-18-10-28 2-5 6-5 11-4z" fill="#14312e"/><path d="M588 970c0 5 0 8-2 13-7 14-11 33-6 47 3 6 7 10 11 15v2l3 1v2l2 1 8 4v3l-4 2-2 2-2 1-5 3-3 2c-10 6-18 13-25 22-7-1-12-7-16-13a81 81 0 0 1-14-61c2-6 4-11 8-16l2-2 7-8 2-2c7-8 24-22 36-18z" fill="#f68309"/><path d="M775 962c16-1 16-1 22 3l2 1v2l2 1c11 5 19 20 24 31l2 9 1 2c3 15 0 28-7 41l-1 2c-6 9-12 19-21 25l-4-1-2-2-14-13-2-2-12-6-3-1-6-2 9-8h2l1-2 4-5 7-10 1-2c5-7 5-15 4-23l-1-3-1-6c-1-6-2-9-6-14-3-5-2-11-1-17z" fill="#f88f06"/><path d="m364 531 8 17c5 13 12 26 21 37l4 7 2 1c4 1 7 4 10 6l-3 4-3 1-4 2-3 1c-8 3-13 8-19 15l-15 16h-2l-5-7-2-5-2-2-5-7-10-23-1-2c-2-7-3-14-2-21l-1-3c0-11 4-22 12-30 7-5 11-7 20-7z" fill="#f78908"/><path d="M620 531c5 0 8 4 12 8 11 14 11 28 10 44l-2 9-1 4c-2 7-4 14-8 20l-2 5-8 11-5 7c-3-1-4-2-6-5l-10-9-5-5v-2h-2l-2-3c-7-8-19-12-28-15v-2l2-1c6-3 10-7 15-11l2-2c5-5 11-10 14-17h2l1-2 4-7 1-3 3-6 7-14c2-4 2-4 6-4z" fill="#f88808"/><path d="M158 1171c6 0 10 1 15 4l9 4-2 2v10l4 3h6c2-5 0-8-1-13l2 1c20 7 41 7 63 7l1 2 1 3 2 3c1 2 2 3 5 4l5-2 3-1 3-3-2-5v-3h2l11-4 6-1c3 1 4 3 6 6-1 13-10 29-20 38-7 5-7 5-11 5l-6-4c-6-5-13-8-21-10h-2c-7-3-15-3-22-3h-3c-11 0-20 1-30 8l-5 2c-9-4-17-15-21-23l-3-16v-2c0-5 2-8 5-12z" fill="#511f12"/><path d="M564 657v2l2 1 6 5v2h2c7 8 8 18 7 28-2 9-7 17-15 22-11 6-21 7-33 4-8-3-16-10-20-18-4-10-5-20-2-31l5-8 2-3c13-13 31-12 46-4z" fill="#f6f1ba"/><path d="M231 269c5 0 8 0 12 3 3 6 3 13 1 19-2 7-5 15-10 20l-5 2v2c-15 9-32 11-49 8-8-2-17-7-22-14-5-8-8-16-9-26v-3c0-4 2-5 4-8 4-2 8-1 12 0l3 1c16 6 35 6 52 0 8-4 8-4 11-4z" fill="#58210f"/><path d="M455 659a40 40 0 0 1-3 52c-10 7-21 7-32 7h-3c-6-1-11-2-16-7l-1-2-2-2-1-2-2-2c-3-7-4-15-3-22 3-8 7-16 13-23h2l1-2c2-4 7-6 12-8 12-2 26 2 35 11z" fill="#f6f1ba"/><path d="M797 565c5 4 8 8 10 14v5h2l1-3c2 2 1 7 1 10 0 7-2 13-5 19l-1 2c-2 4-5 6-9 7h-6l-5-2-2-7 3-6c3-5 4-11 2-18-3-5-8-9-14-11-9-2-17-1-25 1l-4 1c-8 3-16 10-20 19-2 6-2 12 1 18 2 5 4 7 9 8l7 1c4-3 7-5 9-9 4 1 7 1 10 4 2 5 1 8-1 13-3 3-5 6-10 7h-12c-10 0-18-3-25-10-8-10-9-23-8-35 2-9 8-18 16-24 7-4 14-8 22-10l3-1c18-5 36-4 51 7z" fill="#51d025"/><path d="M198 1095c7 4 13 9 15 17 3 10 2 22-3 32l-5 5-1 1a36 36 0 0 1-30 10h-2c-9-2-16-7-21-13-5-8-6-19-5-29 3-10 9-19 18-25 12-6 23-5 34 2z" fill="#f6e0cb"/><path d="M649 1122c8 6 12 14 14 24 1 9-1 17-6 24-5 6-10 9-17 12l-3 1-11 1h-2c-8 0-15-2-21-7v-2l-3-1v-2h-2c-5-10-7-18-4-29 4-11 11-20 21-25 11-5 24-2 34 4z" fill="#f8efb2"/><path d="M760 1126c4 4 6 7 7 12l1 2c2 11 1 21-4 32-5 7-10 10-19 12-11 1-24 1-33-6-6-5-11-15-12-23 0-12 4-21 12-30 14-12 34-10 48 1z" fill="#f7efb3"/><path d="m113 43 2 2-2 10c-2 7-3 15-2 23l1 1 1 5c1 10 5 18 11 26l2 4 2 2c-2 3-5 4-8 6l-2 1a113 113 0 0 1-5 3c-11 6-20 15-29 24l-3 3-4-3-1-3-1-2-1-3-1-3c-3-9-4-16-4-26v-3c0-18 4-31 14-45l2-4 2-2h2l1-2c3-5 8-8 14-10l2-1v-2l7-1z" fill="#752616"/><path d="M294 42c6 0 11 3 15 7v2h2c7 3 12 13 15 19l2 2c4 8 3 17 3 26v6c0 9 0 18-3 26l-1 4c-6 16-6 16-10 20l-1-2c-13-12-27-23-43-31l4-6c10-8 15-24 16-36l1-8v-3c1-6-1-11-4-17l-1-7c2-2 2-2 5-2z" fill="#762617"/><path d="m533 151 3 2v2l2 1c5 3 8 9 10 15 2 9 3 21-1 30-5 8-13 13-22 16-8 1-17 1-23-3l-2-1-3-2c-8-8-12-15-13-26s2-20 10-29c10-9 26-11 39-5z" fill="#27224c"/><path d="M302 1104c5 5 8 9 10 15l1 3c3 12 1 23-5 33-5 6-9 8-16 9l-2 1c-10 2-17 2-26-3l-8-7-2-2c-5-5-8-12-8-19 0-11 4-20 12-28 11-9 32-9 44-2z" fill="#f6dfcb"/><path d="m206 655 2 1c6 5 9 11 11 18 0 11-1 22-8 31l-8 5-3 2-11 1h-3c-8 0-13-2-19-8-6-7-9-14-9-24 1-9 3-17 9-24 12-9 27-10 39-2z" fill="#2a264a"/><path d="M262 200c7 5 13 12 15 21 1 8-1 16-5 23l-1 3c-5 6-13 9-20 11-9 1-18-2-25-6-5-4-10-8-11-14-1-13-1-21 7-32 9-11 28-14 40-6z" fill="#f9e6c4"/><path d="m166 202 2 1v2l2 1c3 2 3 4 5 7l1 3c3 10 2 18-1 28-3 6-7 9-13 12-11 3-22 4-32-1-7-4-11-9-13-17-1-10 0-19 6-27 10-13 28-18 43-9z" fill="#f9e7c6"/><path d="M115 740c5 0 10 4 15 6l14 5v1l-3 1c-3 1-3 1-4 4l-1 9 5 4h7l1-15 4 1 17 5 3 1c11 2 22 1 33 1l3-1a176 176 0 0 0 15-1c0 6-2 9-6 13l-8 6-3 3c-9 6-17 11-28 10l-5 1c-7 1-14 0-22-2l-9-2c-10-1-17-9-23-17-5-8-9-21-7-31l2-2z" fill="#241524"/><path d="M0 0h932v56h-1v-3c-3-13-10-23-20-32l-3-6-5-2-9-5c-11-6-24-6-37-6H650a219708 219708 0 0 0-242 0H261a85930 85930 0 0 1-140 0 7856 7856 0 0 0-22 0H87a1690 1690 0 0 0-11 0 753 753 0 0 1-6 0C52 2 36 6 23 17l-7 8-2 2C8 35 4 44 1 54H0V0z" fill="#f8f0da"/><path d="M478 1114c5 1 8 5 10 8s2 5 2 8h2v-2l4-6c4-1 8-1 11 1 3 3 3 5 3 8 0 12 5 21 13 30 3 3 4 5 4 9l-2 10-1 11v4l1 6-1 7c-7-3-11-11-16-17l-13-16-2-2-9-10-2-2c-4-4-7-7-12-9l-3-2v-2l-2-1c-3-1-4-3-6-6 0-3 1-5 3-7l4-1 7 4-1-3c-2-6-2-12 1-18 2-2 2-2 5-2z" fill="#006f66"/><path d="M213 884v3c-1 23-1 23 5 45v3l2 1 4 3c3 3 5 2 9 3 4 2 6 4 8 8l1 5v3l-1 4c-4 3-7 3-11 3h-3l-6 1h-3c-9 1-21-3-29-9-3-4-4-6-4-11v-53l2-1 3-1 2-1 7-2 3-2 3-1 8-1z" fill="#5a3598"/><path d="M788 192c7 5 13 11 16 19 1 11 0 20-6 29-5 7-10 9-18 10s-15 0-22-6c-6-5-10-11-10-19v-6c0-9 2-17 8-23h2l1-3c9-4 21-6 29-1z" fill="#015e19"/><path d="M455 450c9 10 12 22 12 35 0 11-5 20-12 27-5 5-9 7-16 7h-3c-12 0-22-3-30-11-2-4-3-7-2-11 1-9 6-13 13-19l7-1h3l4 1 1 6-3 6-7 2-1 4v2c6 4 10 5 17 4 6-2 8-5 12-10 2-7 3-15 0-22-4-7-9-15-16-17-8 0-15-1-22 3a63 63 0 0 1-4 1h-4l-2 3c-4 0-6 0-10-2v-6c3-4 6-5 10-6l8-4c5-2 9-2 14-2h4c11 0 18 2 27 10z" fill="#51d025"/><path d="m70 295 2 9v3c2 15 2 15 0 19l-2 2c-10 11-10 24-10 38h2l2 1h3l3 3 1 2h2c0 6 0 6-2 9l-5 2-6 5c-2 2-4 4-8 5-8 0-12-4-17-9-7-12-6-26-3-38 2-8 6-14 10-20l1-2c1-4 3-6 5-9l2-3 2-3 2-3h2l1-2c1-4 3-6 6-8l7-1z" fill="#913705"/><path d="m882 1096 4 4c1 5 0 11-1 16l3-2h5l2 1c1 7 1 7-2 11l-9 8-10 9a339 339 0 0 1-6 6c-7 6-13 13-18 21l-2 2-7 10-6 7-1-4v-5l-1-2-4-20c0-4 0-6 2-10l2-1 11-16h2l3-23c6-3 6-3 10-3l8 6 1-3c2-7 6-13 14-12z" fill="#006e65"/><path d="m326 292 5 5 2 2 2 4 2 1c6 3 10 11 14 17v3l3 1 2 5 1 3 3 11 1 2c3 10 1 23-2 32-3 6-7 11-14 14l-11 1-4-5-3-3c-3-3-4-5-4-10l1-5 8-2c2-12 2-24-3-35l-4-5c-4-3-5-5-5-10 1-8 2-18 6-26z" fill="#923704"/><path d="m64 763 3 1 2 11v3l1 17h-2l-1 4-6 13c-3 7-3 13-3 21v2l1 13 6 2 1 5-5 5-2 6h-2l-1 2c-1 2-2 3-5 4h-5l-3-3h-4c-6-6-9-14-9-22v-3l-1-7v-2c0-4 0-7 3-10 3-5 4-10 6-16 2-8 5-14 9-21l3-4 14-21z" fill="#5b349a"/><path d="m724 421 18 6v64l-3 12-1 4c-2 5-7 7-12 9h-12l-6-1h-2c-5-1-8-3-11-7l-1-6v-2c0-3 0-3 2-5l9-2h6l7-16 1-4c3-11 4-23 4-35v-5l1-12z" fill="#005d53"/><path d="M269 777c3 5 4 11 6 16l2 6 7 24 1 4c3 15 3 30 0 45l-2 2-2 5c-2 4-4 7-8 9-5 2-11 2-17 1l-4-4v-2h-2c-2-3-2-5-2-9v-5l3-1c6-2 9-6 11-12 3-9 2-18 0-28-3-15-3-15-1-22l1-3 2-10 1-4 1-3v-3l3-6z" fill="#5a3499"/><path d="m120 886 9 3 3 1 3 1 2 1 4 2 1 7 1 11c2 6 1 12 1 18v4c0 15 0 15-2 21l1 4c0 4-1 6-3 9-4 4-9 4-14 4h-3c-8 0-16 0-23-5-3-3-4-4-5-9 1-4 2-5 5-8l6-1c4 0 7-3 10-6 6-8 5-17 5-27v-5l-1-25z" fill="#5a3599"/><path d="M848 1284c4 0 6 0 10 2l7 10v2l2-1c6-3 11-6 18-5l2 2c0 6-2 9-6 13l-5 4 2 1c4 3 8 5 10 10v9c-3 3-4 4-8 5-7-1-11-1-17-5v2l-3 8-2 2c-1 2-2 3-5 4-4 1-7 0-11-2-2-8 1-16 5-23h-3c-6 0-10-1-15-3-2-2-2-2-2-5 0-4 1-6 4-9 4-2 10-1 15-1v-10c0-4 0-7 2-10z" fill="#8cc011"/><path d="M761 1303v10a51 51 0 0 0 3 14l1 2c1 2 1 2 4 2 4 1 6 2 8 5 2 4 2 8 1 12l-7 6h-17c-8 0-15-1-23-3l-4-1c-2-1-4-2-5-5v-3h-2l-1-9v-22h4l3-1 4-1 4-1h3l6-1 15-3 3-1z" fill="#006a61"/><path d="M470 959h2l8 1c3 3 3 5 3 9l-2 3h-6c-10 0-18 1-26 8-6 6-9 13-10 22 1 8 4 15 10 22 4 4 9 4 14 3 6 0 10-3 13-7 2-4 1-8 1-12l-6-2-4 5-5-1-1-10 2-3h3l1-3c10-1 10-1 15 2 3 3 4 4 4 8 1 12-1 19-9 27-5 5-9 7-16 8l-4 1c-7-1-14-5-19-10-8-9-12-18-12-30s5-23 14-31l9-6 3-2c6-2 12-2 18-2z" fill="#f2587f"/><path d="m137 425 8 2 21 5 5 2v19c1 13 1 13-4 18-7 6-14 10-23 11h-3c-9 1-17-3-25-8l-1-1a102 102 0 0 1 0-6l1-3v-2l9-3c4-1 7-2 10-7 2-5 2-10 2-16v-11z" fill="#903705"/><path d="m605 1305 12 3 10 2 17 3v16c0 7 0 12-5 18-10 9-22 9-35 8-10-1-10-1-14-4-3-5-4-7-3-12 3-5 7-6 12-7l3-3 2-14v-3l1-7z" fill="#006a60"/><path d="M559 668c5 4 8 10 8 17 1 8-1 15-6 21-5 5-10 7-17 7s-13-1-19-5c-7-9-8-16-7-27 2-7 7-12 13-16 10-4 20-3 28 3z" fill="#036865"/><path d="M370 1046c5 1 8 4 11 8l3 9 1 3c3 10 0 19-5 28-5 8-5 8-9 10v2l-4 3-2 2-8 7-1-2c-8-23-8-23-20-43l-1-4h3c13-3 20-9 28-20l4-3z" fill="#fcc20a"/><path d="M823 424v2l4 47 1 2c1 12 1 12 6 23l7 2c3 5 3 10 3 16l-3 4c-7 2-16 4-23 1-5-3-7-7-9-13a103 103 0 0 1 0-8v-70l6-3 3-2 5-1z" fill="#005c53"/><path d="m146 1009 4 2v3c0 10 0 17 4 25l1 5c-1 3-3 4-5 5l-3 2-2 2-16 16-2 1c-2 3-5 5-6 9h-2l-3-6-1-4c-3-5-5-10-5-16v-3c-1-11 2-21 9-30l13-8 3-2 11-1z" fill="#fdc20a"/><path d="M251 428v2c0 8 2 13 6 20l4 12h4l6 2c2 3 1 6 1 9l-3 3-6 1v2c-12 4-19 6-31 0-5-2-7-5-10-9l-1-12v-24h3l4-1h2c4-1 7-1 10-3a89 89 0 0 1 5-1l3-1h3z" fill="#913704"/><path d="M485 787h11c6 0 13 2 19 4h3c7 3 11 6 16 11l2 2c-21 11-21 11-35 12l-6 1c-17 2-35-2-50-11 8-9 22-17 34-19h6z" fill="#f03727"/><path d="M438 662c5 2 7 5 10 9l2 3c3 6 3 14 1 20s-7 11-12 14c-8 3-16 3-24-1-5-3-9-8-10-14-1-8-1-15 4-22 8-10 16-12 29-9z" fill="#025a55"/><path d="m265 1229 2 3c-9 9-24 12-37 12-15-1-30-6-43-13l-2-1c-5-2-5-2-6-5v-2c23-17 64-13 86 6z" fill="#f13926"/><path d="m364 531 10 21c2 7 6 13 9 20h-3c-9-1-15 0-22 6l-3 2c-5 4-9 8-13 14l-5 3c-4-9-4-17-5-26v-3c0-11 4-22 12-30 7-5 11-7 20-7z" fill="#faa004"/><path d="M196 1107c5 3 9 8 10 14 3 9 2 16-3 24-3 4-7 7-12 8-7 1-14 1-20-3-6-5-9-9-10-16-1-9 3-16 8-23 8-8 16-9 27-4z" fill="#036a67"/><path d="M556 485c3 2 4 3 5 6l-1 15h11c5 0 5 0 9 2l1 8h-2v2l-8 1h-6l1 2c2 7 3 12 0 19l-3 5c-6-2-9-6-13-11-3 0-5 1-7 3l-6 3-6-3c-1-3-2-5-1-8l8-11-3-1c-4-1-7-3-10-6l-1-5 5-5c5-1 10 0 15 1l1-3v-3l1-4 3-7h7z" fill="#fabc08"/><path d="M646 1133c6 4 9 10 11 17 1 7-1 12-5 18-4 4-8 8-14 8-14 0-14 0-20-4-4-5-7-12-7-19 1-8 3-15 10-21s17-4 25 1z" fill="#2e2612"/><path d="m717 1245 3 2 2 2v2l-7 3-1 1c-12 6-22 9-35 8h-3c-14-1-27-7-39-13 23-17 56-24 80-5z" fill="#f03a26"/><path d="M745 1136c4 4 8 8 8 14v2c1 7-2 12-6 18-5 5-10 7-18 7-5 0-9-2-14-4v-2h-2c-5-7-6-14-5-23 2-6 7-10 12-14 9-5 18-4 25 2z" fill="#2e2611"/><path d="M285 1114c6 3 10 6 12 12 2 9 1 17-4 25-3 5-8 8-14 8-7 0-14-1-19-6-5-7-7-13-6-22l3-7 2-3c6-8 17-11 26-7z" fill="#026f71"/><path d="M61 516h2c3 1 3 1 5 4l4 11 1 5 1 2c0 4 2 7 3 11l8-5c5 0 9 0 13 2 0 5 0 9-3 13-4 6-11 9-19 9-7 0-15-1-22-5l-2-4-1-2-1-2-1-2-2-4-2-4c-1-8-1-15 4-22 6-7 6-7 11-7z" fill="#f48a08"/><path d="M588 970c0 5 0 8-2 13l-4 10-4 5h-6l-15 3h-3l-10 4-1 8 3-1c10-4 20-5 31-4v16h-5c-10 0-19 1-29 3l-11 1c1-17 6-26 18-38l3-3c7-8 24-21 35-17z" fill="#fba305"/><path d="M620 531c5 0 8 4 12 8 11 14 11 29 9 46v4l-7-1h-3l-6-4c-8-7-16-14-27-16l3-8 11-20 1-3 1-2c2-3 2-4 6-4z" fill="#fba704"/><path d="M775 328c12-1 23 1 33 8l5 7-1 4c-9 7-29 10-40 9l-5-1-3-1c-7-1-14-3-20-7l-3-2-2-1c2-6 7-7 12-10 8-3 15-6 24-6z" fill="#f35317"/><path d="M402 56c4 3 5 5 5 10l1 4v2h14v2h2c0 4-1 6-4 9l-6 4 1 2c1 4 2 8 1 12l-3 3c-4 1-6 0-10-2l-5-4v-3l-2 2-3 3-2 2c-2 2-3 3-6 3l-4-4c-1-5 0-9 2-13l2-3-4-1c-3-1-6-2-8-5l1-5c4-4 10-4 16-4v-3c0-5 1-7 4-10 3-2 5-2 8-1z" fill="#f9b807"/><path d="M827 50h2c9 0 18 3 24 9 5 7 6 14 5 22-2 6-5 10-10 13s-10 4-16 3l-3-3 2-9 8 3c3-2 6-3 8-6 2-6 0-12-3-17-2-4-4-5-8-6-10-1-19-1-27 6-7 7-9 14-10 24l-3 11c-2 5-3 10-3 16l-8-1c-1-14 0-30 7-42l2-3c11-15 11-15 18-18l2-1 13-1z" fill="#005851"/><path d="M314 961c4 0 6 0 9 3 3 5 3 10 4 15l4-1c4-2 7-2 12-2 2 2 2 2 2 5-1 5-3 6-7 8l-2 1 2 9 1 8c-3 3-4 2-7 2-4 0-7 0-10-2l-2-3h-2l-3 4-2 2-1 2-7-1c-2-4-1-9 1-13l2-6h-2c-5-1-8-2-12-6l4-7 11-2 2 1v-2c0-6 0-10 3-15z" fill="#fac00a"/><path d="M255 209c5 6 8 11 8 20-1 7-4 13-10 18-6 2-15 2-20 0-5-3-8-7-10-12 0-8 0-14 4-21 7-8 19-11 28-5z" fill="#322519"/><path d="M736 56c13 10 21 22 24 38v19c-2 2-2 2-5 2h-3l-1-3c-4-26-4-26-18-46-8-4-13-5-22-4-5 1-9 5-13 9-2 4-2 8-2 12h4v8l-9 3c-3-1-4-3-6-6l-1-9v-2c1-6 1-9 5-13l2-2 2-2c4-4 8-5 13-7l2-1c9-1 20-1 28 4z" fill="#005750"/><path d="M881 637c5 0 9 1 13 4l4 10 1 3c1 6 2 10-2 15l-1 2-1 2c-4 4-6 7-12 7-7 1-12-1-17-6s-5-15-5-22c0-6 2-8 6-12 5-3 9-3 14-3z" fill="#f35980"/><path d="M159 210c6 3 9 7 11 14 1 6-1 12-4 17s-8 8-14 8c-6 1-10 0-15-3-5-5-7-12-7-19 1-7 3-12 8-16 7-4 14-5 21-1z" fill="#332519"/><path d="m0 1384 4 10c7 18 20 32 37 41l2 1c8 5 17 6 25 8v1H0v-61zm931-1h1v62h-67v-1l3-1c8-2 15-3 22-7l3-1c17-10 31-25 36-44l2-8z" fill="#f6e9d4"/><path d="m228 304 3 5c-10 9-28 8-41 8h-3c-8 0-15-2-22-5 1-3 1-5 4-7l9-5 2-1c16-9 34-6 48 5z" fill="#f03827"/><path d="M881 0h51v56h-1v-3c-3-13-10-23-20-32l-3-6-5-2-5-3c-9-4-17-7-26-8 3-2 5-2 9-2z" fill="#f4e9d4"/><path d="m303 243 5 5 3 3c3 3 4 5 4 10 0 4 0 7-3 10l-7 3-2 1c-7 1-12-2-18-5-5-3-7-5-8-11-1-5 0-7 2-11 7-6 16-8 24-5z" fill="#f96890"/><path d="M76 1309c4 4 6 8 6 14 0 7-3 11-8 16-4 3-8 4-14 4-4-2-6-5-9-9l-2-2c-2-5-2-10-1-15 7-8 19-14 28-8z" fill="#f15881"/><path d="m585 1043 1 3h2l1 4-8 4c-10 4-21 13-26 23v8c-7-3-12-13-15-19-5-11-5-11-5-14l5 1v2l3-1 22-8 4-1c5-2 10-2 16-2z" fill="#fdaa06"/><path d="M108 246c4 3 7 6 7 11 0 4 0 7-3 11-5 5-12 8-19 8-3 0-5-1-7-3-3-4-4-8-4-13v-3l2-6 4-3 2-1c5-3 13-4 18-1z" fill="#f96890"/><path d="M785 1002h2l1 6v4l-2 9v5l-1 2h-4v2h-3v8c-3 3-4 3-8 3v5h3c12 3 22 10 30 20 2 3 1 6 1 9l-5 4-4-1-2-3-14-12-2-2-12-6-3-1-6-2 9-8h2l1-2 4-5 7-10 1-2c5-7 5-15 5-23z" fill="#f48008"/><path d="M556 248c0 6-2 9-6 13-9 8-18 12-30 13h-3c-11 1-23-1-32-8-4-4-7-7-7-12l2-4 4 1a132 132 0 0 1 3 5c3 3 6 4 10 5l3 1c15 4 28 2 42-5l8-7c2-2 2-2 6-2z" fill="#25162c"/><path d="M388 727c3 4 3 6 3 11v3c0 4-1 6-4 9-8 3-15 4-23 1l-3-3c-1-6 0-12 3-18 6-7 16-8 24-3z" fill="#fa658c"/><path d="M820 1052c-4 9-9 15-15 22h-1v-3c-2-8-8-13-14-17l-20-8v-5c15-7 37 3 50 11z" fill="#fca905"/><path d="M608 725c5 2 6 4 8 8 2 6 3 9 1 14l-5 5a89 89 0 0 1-8 0h-2c-6 0-9-1-13-4-3-4-2-9-2-13 4-9 12-11 21-10z" fill="#f9638d"/><path d="m662 139 4 4v2h2c3 5 3 9 3 14l-3 6c-3 2-5 2-9 1-6-2-10-5-13-11-2-3-3-7-3-11 4-7 11-9 19-5z" fill="#f15980"/><path d="M329 448c5 4 10 9 12 15 1 4 0 7-1 11-4 3-6 3-10 2-4 0-8-1-11-5-3-5-5-10-4-16 4-5 8-8 14-7z" fill="#f3577d"/><path d="M436 621c2 2 2 2 2 5l-1 5c-5 3-10 2-15 3l-4 1c-5 0-9 1-14-1l-3-5c0-3 1-5 3-8 8-5 24-5 32 0z" fill="#fa880a"/><path d="M880 999c3 2 4 2 5 5l1 11-8 6c-5 1-9 1-14-1-2-4-3-6-2-10 0-4 2-7 6-9 4-3 7-4 12-2z" fill="#f05880"/><path d="m652 887 5 7c0 5 0 9-2 13-5 3-11 3-17 1-2-2-3-4-3-7v-6c0-3 1-5 3-8 5-2 9-2 14 0z" fill="#32beac"/><path d="M633 62c2 4 2 8 1 13l-3 4c-4 2-8 2-13 1-3-2-5-4-6-7 0-4 0-6 3-9 5-4 12-5 18-2z" fill="#f9bc08"/><path d="M113 110h6c3 0 3 0 5 2l1 5 2 1-6 2 1-3-3 1h-16c-8 0-14 2-21 6l-8 2v-5c7-6 16-9 25-10h3l11-1z" fill="#5e1e11"/><path d="M588 437c5 0 7 1 10 4 1 4 2 8 0 13-3 3-6 4-11 4-4-1-7-2-9-6v-8l5-5c2-2 2-2 5-2z" fill="#35bdab"/><path d="M258 457h2l1 5h4l6 2c2 3 1 6 1 9l-3 3-6 1v2l-13 2h-7l1-7c3-2 5-3 9-3l2-6h5l-2-3v-5z" fill="#782f04"/><path d="m384 269 5 3v9l-6 6h-8c-3 0-3 0-5-2-2-3-2-7-2-11 3-7 9-7 16-5z" fill="#f1577e"/><path d="M308 113h4c6 0 11 2 15 6l-1 3-10-2-8 1h-22c-6-1-6-1-8-3l-1-1 5-1v-2c8-4 18-2 26-1z" fill="#5f1f11"/><path d="m396 591 6 3v3l-3 1c-15 3-28 9-39 20l-4 1-2 4v-3h-2c-3 0-3 0-5-2l-1-4h2c7 0 10-3 15-8 8-7 19-10 29-13l4-2z" fill="#fcb006"/><path d="m545 615 7 4 3 2 6 5c0 5 0 5-2 7-5 0-9 0-14-2v-2h-3c-4 0-4 0-7-2 0-4-1-7 1-10 3-3 5-2 9-2z" fill="#f98809"/><path d="m819 674 4 3v8l-2 7c-3 2-6 1-9 1-3-1-6-3-8-6 0-5-1-7 2-11 4-3 8-3 13-2z" fill="#fbc109"/><path d="M333 896c2 3 1 6 1 9-3 6-3 6-6 7h-9c-3-3-4-5-5-10l1-6c6-5 12-3 18 0z" fill="#f9c009"/><path d="M156 154v7l-12 7-3 2c-3 1-5 2-8 1l-3-3 1-7c7-7 15-11 25-7z" fill="#551f0e"/><path d="m580 587 13 4h2c9 4 16 7 22 14l4 5c3 2 5 4 6 7l-1 3c-3-1-5-3-7-6-7-7-14-12-23-16l-2-1-13-2h-2l-7-1c4-6 4-6 8-7z" fill="#fcaf06"/><path d="m257 159 6 4 3 2c2 2 2 2 2 5l-1 5c-8 1-15-1-22-4-2-2-2-3-2-6 3-6 8-7 14-6z" fill="#561f0e"/><path d="M65 927c2 1 4 2 5 5v4c1 4 0 5-2 8-4 2-6 3-10 2l-7-6c0-5 2-9 5-13 3-2 6-1 9 0z" fill="#32bdac"/><path d="m74 1017 3 6v3l-2 6c-3 2-5 3-10 3-3-1-5-2-7-5-1-5-1-7 2-11 4-4 8-3 14-2z" fill="#f8bf0a"/><path d="M49 1227c3 2 4 3 5 6 0 4-1 6-3 9-3 3-3 3-7 4l-6-3c-3-3-3-7-3-11l2-5c4-2 8-1 12 0z" fill="#f9bf0a"/><path d="M367 1314c3 2 3 4 4 7l-1 7-9 4c-4-1-6-3-8-6-1-4-2-7 0-10 5-5 8-4 14-2z" fill="#f7bf09"/><path d="M310 89h2l8 2h3c4 0 4 0 7 2v5c-2 2-4 1-7 1h-3l-5-1c-5-2-9-1-13-1h-10v-5c7-4 11-4 18-3z" fill="#622011"/><path d="m891 1198 7 10c0 3-1 5-3 8-4 2-8 2-12 0-3-4-4-8-4-13 3-5 7-6 12-5z" fill="#f6bf0a"/><path d="M516 39c5 1 8 3 12 6l1 5c-2 3-3 5-6 6h-11l-2-2v-3h-2c0-4 0-6 2-9l6-3z" fill="#ef577e"/><path d="m318 650 4 7c0 4-1 6-3 9-2 2-3 1-5 1-4 0-5 0-8-2-3-4-3-6-2-10 5-6 7-7 14-5z" fill="#f1557b"/><path d="m698 690 4 4c1 5 1 7-2 11-4 3-6 3-10 2-3-1-3-1-5-4-1-4-1-8 1-12 4-2 8-2 12-1z" fill="#f7c10a"/><path d="M422 1097c3 2 3 4 4 7l1 4c-3 3-5 5-10 6l-7-3c-2-4-3-6-2-10 3-5 9-6 14-4z" fill="#f9c109"/><path d="M899 932c3 2 4 4 4 7l1 3-2 6c-3 2-4 2-7 2-4-1-6-2-8-5-1-4-1-8 2-12 3-2 6-1 10-1z" fill="#f6bf0b"/><path d="M194 1308h2v2l2-1 6-1v2l-7 3v3c-1 18-1 18-6 25-8 5-19 4-28 4h-3c-8 0-16 0-23-5-2-4-3-5-2-9l1-2h2l1-3 3-1v3l-4 3 1 8 3 1 2 1 13 1 15 1 5-3h5c4 0 6-1 9-3l1-7 1-3v-7l1-3v-9z" fill="#ee5078"/><path d="M738 1088c7 0 12 2 17 6 2 2 2 2 2 5l-2 5c-4 0-7-1-10-3-4-3-8-5-13-6v-5c2-2 3-2 6-2z" fill="#06443d"/><path d="M748 698c3 2 3 2 4 5v9c-3 3-4 3-8 3-5-1-7-3-9-7l1-7c4-3 7-5 12-3z" fill="#31bfab"/><path d="M776 814h4v3l1 5c4 2 7 3 12 3l7-3 1-5h4v7c-3 4-8 8-13 9-5 0-9-2-13-5-3-3-4-5-4-10l1-4z" fill="#25192a"/><path d="m661 630 5 4c2 3 3 6 2 10l-3 3c-5 1-7 1-11-2-2-2-3-3-3-7 0-3 0-3 2-5s5-3 8-3z" fill="#f7bf09"/><path d="M38 619c5 0 8 1 12 4l1 8c-1 3-1 3-4 5h-8l-4-5c0-5 0-8 3-12z" fill="#f6bb09"/><path d="M139 752c8 1 8 1 10 3v9l-1 6c-8 1-8 1-12-1-2-4-1-9 0-13l3-4z" fill="#f5e3d2"/><path d="M893 153c4 2 6 4 8 9 0 4-1 4-3 6l-4 3-4-1-2-1-4-4c0-4 1-6 3-10l6-2z" fill="#f8be08"/><path d="M626 534c8 6 13 14 16 24v14h-1v-6l-2-1c-3-1-3-3-4-6l-3-2-3-8-1-2c-2-4-2-8-2-13z" fill="#f28c06"/><path d="m372 164 9 1 3 5-4 9-6 1h-2l-4-2v-10l4-2v-2z" fill="#36bdab"/><path d="M61 445c3 3 5 6 5 10l-1 5c-4 1-7 2-11 1l-4-4c-1-4 0-5 2-9 3-3 5-4 9-3z" fill="#f8b808"/><path d="m272 1187 3 9-9 5h-3l-2 1-3-4-2-2-2-6c2-2 5-2 7-2l4-1h7z" fill="#f7e6d4"/><path d="m630 1081 5 4-1 4-7 3h-2c-4 2-9 2-13 3l-1-6c5-5 12-9 19-8z" fill="#05453e"/><path d="M656 1146c2 3 2 5 2 9v5h2v-2h2c-2 9-7 16-15 21-4 2-8 4-13 3v-3l4 2v-3l-11 1v-3h3c8 0 14-1 20-7 4-6 6-10 6-17v-6z" fill="#f5f3c0"/><path d="M725 1116c22-1 22-1 31 5l3 2c4 2 5 4 7 8v2h2c4 15 2 29-5 43l-1 2c-1 3-3 3-6 4l-3 2-1-3 3-1c7-4 10-11 12-19 2-10 1-22-4-31-5-6-11-10-19-11-11-2-21 0-31 6l-5 6-1-2c2-4 4-6 8-8l3-2 7-1v-2z" fill="#0a7e7d"/><path d="m473 544 3 3v10c-3 2-5 3-9 2-2 0-3-1-5-3l-2-6c3-6 6-7 13-6z" fill="#35beab"/><path d="m787 197 4 3v11l-6 2c-6-1-6-1-8-4l-1-8c3-4 6-5 11-4z" fill="#f0f3ab"/><path d="m503 154 8 4c2 3 1 6 1 9-2 3-4 3-7 3-4 0-5-1-8-4v-7c3-5 3-5 6-5z" fill="#f3e3d3"/><path d="M259 533c3 1 4 2 6 5 1 4 1 6-1 9-4 3-7 2-11 2l-3-3v-7c3-3 5-5 9-6z" fill="#f15375"/><path d="M642 1206h3c4 0 5 1 7 4l-3 7h-10l-5-1-2-7c3-3 6-3 10-3z" fill="#f4eeb9"/><path d="m203 657 2 1 1 8v4c-3 2-4 2-8 2h-2l-4-4c0-4-1-6 2-9s5-2 9-2z" fill="#f5e4d4"/><path d="m270 377 5 2c2 4 1 8 0 12-3 2-4 3-8 3l-6-3c0-7 2-12 9-14z" fill="#df5e0e"/><path d="m743 292 8 1 2 1 5 1-1 10c-5 1-7 1-11-1s-4-3-5-7c0-3 0-3 2-5z" fill="#f3f6ae"/><path d="M731 1207v8l-3 3c-5 0-8 0-13-3l-2-2 1-4c6-3 11-3 17-2z" fill="#f1ecb7"/><path d="m467 1262 5 3c2 3 1 6 1 10l-7 4c-3 0-3 0-5-2v-12l6-3z" fill="#19bd21"/><path d="M181 1180c8 1 8 1 10 3l1 4v3l-2 5c-4 1-6 0-9-2-3-3-3-5-3-9l3-4z" fill="#f5e4d3"/><path d="m801 295 3 1 3 2v7c-3 2-6 2-10 2-4-2-5-3-6-7l1-5h9z" fill="#eef4aa"/><path d="M530 1333c4 3 4 3 5 6 0 6 0 6-2 8l-10-2c-2-2-2-2-2-5l1-6c3-2 5-2 8-1z" fill="#f5bf0a"/><path d="m893 741 4 4v7c-4 2-6 3-10 2l-4-4v-6c3-3 6-3 10-3z" fill="#f5bf0b"/><path d="m307 1329 2 1-1 11c-8 6-17 5-26 5h-4c-8 0-14 0-21-5l-1-9 3 5c2 4 4 5 8 7l1-2h2l13 1h7l4-1h5v-2h2l6-1v-10z" fill="#ee4e76"/><path d="M511 745h13c2 3 2 4 2 8l-3 3h-8l-4-5v-6z" fill="#f7eebd"/><path d="M481 298h9c2 4 2 6 2 10-3 2-6 2-10 2l-3-3c0-4 0-6 2-9z" fill="#df4e75"/><path d="M702 1137v6c-3 9-1 17 4 26 4 7 9 11 17 13l15 2h10c-7 4-19 3-26 1-10-3-15-9-20-17-4-10-5-18-2-28l2-3z" fill="#057d7b"/><path d="m29 163 7 1c2 3 3 6 2 10l-3 3-8-1c-2-7-2-7 0-11l2-2z" fill="#f7b709"/><path d="M339 768c5 5 4 13 4 19v5l-3-4c-2 2-2 6-2 9v2l-1 5h-1v-16c0-14 0-14 3-20z" fill="#0591a5"/><path d="M456 745h11l2 6-3 4c-3 2-5 1-9 0l-3-5 2-5z" fill="#f6eec7"/><path d="m732 262 3 3-2 9c-2 2-2 2-5 2l-3-1v-2h-2l1-10 8-1z" fill="#1bbe20"/><path d="M167 519c2 2 2 2 2 5s0 3-2 5c-3 3-3 3-6 3l-4-4v-6l3-1v-2h7z" fill="#32bdaa"/><path d="m841 605 8 2c2 3 1 6 0 9-2 2-2 2-5 2s-3 0-5-2v-9l2-2z" fill="#f5c00a"/><path d="m652 225 3 4-2 7-6 2-3-1v-10c2-4 4-3 8-2z" fill="#f5bb09"/><path d="m884 536 4 3-1 5c-4 2-6 2-10 2l-3-2 1-8h9z" fill="#ee556d"/><path d="M576 137h3c3 4 2 6 1 11l-8 1-3-5c0-5 1-7 7-7z" fill="#e34f77"/><path d="m192 1116 5 1 1 4v3l-1 2v2l-5 2-4-3v-9l4-2z" fill="#f2ecd4"/><path d="M527 448c3 1 3 1 5 4l-1 7-6 2-4-4 1-8 5-1z" fill="#f4b909"/><path d="m536 673 5 4c0 4 0 5-3 8l-8-1c-2-3-1-6 0-9l6-2z" fill="#edf0c8"/><path d="m884 82 2 6-3 4-8-1c-2-2-2-2-2-5v-3l11-1z" fill="#eabb0e"/><path d="M680 953c3 0 5 1 7 3 3 3 2 5 2 9l-5 1c-3-1-3-1-5-4l-1-7 2-2z" fill="#f6c00a"/><path d="m776 784-1 9c-2 2-2 2-5 2l-6-2c1-8 4-10 12-9zm36 5h4c2 3 2 5 2 9l-2 3-7-1c-2-3-1-6-1-10l4-1z" fill="#20192a"/><path d="m787 374 3 3c0 6 0 6-2 8-4 0-6 0-9-2 0-3-1-5 1-8l7-1z" fill="#1ab920"/><path d="M556 1213h3l1 8-5 4-4-1c-2-3-1-6-1-9 2-2 2-2 6-2z" fill="#007e76"/><path d="M838 375h2v2l1 3 2 1-1 5c-2 2-2 2-5 2l-4-3v-8c2-2 2-2 5-2z" fill="#1abb21"/><path d="M604 1123h2l-5 8c-5 8-9 17-8 27l4 10 1 4h-2c-4-9-8-19-5-29l3-5v-2h2v-2l4-5 2-4h2v-2z" fill="#0d827e"/><path d="M499 1079c4 0 5 1 8 4l-2 5h-8c-2-2-2-2-2-5 0-4 0-4 4-4z" fill="#f7bf07"/><path d="M758 295h34v6l8 7c-7-1-7-1-10-4v-7h-2l-6 1h-8l-14-1-1 7h-1v-9z" fill="#015a27"/><path d="m730 1176 3 1h2l-2 1-2 4h18c-4 2-8 2-13 2h-2l-18-3v-1h6v-3l8-1z" fill="#f6f5bd"/><path d="M393 395c-1 5-1 5-3 7l-6 1-4-4v-3c5-2 8-2 13-1z" fill="#f4b708"/><path d="m699 207 7 1v4l-1 3-2 4-5-1v-10l1-1z" fill="#1cbe21"/><path d="m583 1070 2 2c-2 3-4 4-8 4l1 7h-2c-4 1-4 1-7 5l-3-3 6-6 1-1c3-4 6-6 10-8z" fill="#038e8c"/><path d="M824 1034h3c0 5-1 8-3 12l-2 4-1 2c-4-1-6-2-9-5l6 2v-2l1-2 2-1 1-7h2v-3z" fill="#f28308"/><path d="m318 1003 6 4 8 2h6c-4 2-5 2-9 2l-10 1v-3h-2l-1 2c-4 2-6 2-10 2v-1l3-1c5-1 6-4 9-8z" fill="#0897a4"/><path d="m264 464 3 3 4 1 1 5-3 3-6 1v-9l1-4z" fill="#6e2a05"/><path d="M716 159h7l1 3c-3 6-3 6-6 7l-5-2v-5h2l1-3z" fill="#1cbe21"/><path d="m577 877 3 1v21l-1 3 3 5 3 1 3 4 1 10h-1v-2c-1-5-2-8-6-11l-2-1c-3-3-3-4-3-8v-23z" fill="#0693aa"/><path d="M444 676h3v8l-2 2-5-1-1-7c2-2 2-2 5-2z" fill="#f3f3df"/><path d="m310 521 3 2-2 8h-5l-2-4 1-5 5-1z" fill="#f3b40a"/><path d="M801 817h4c1 6 1 6-1 9l-5 4-3-1 3-3-3 1h-7l-6-2h6c4 0 7-1 11-3l1-5z" fill="#171423"/><path d="m190 396-2 9h-6l-2-6 1-2 9-1z" fill="#e25f0e"/><path d="m48 523 1 2-1 3c-3 5-3 11-2 17l6 13 2 3-1 2-2-3-2-4-1-2-1-1-1-2-3-5-1-4 1-2-1-7 1-4 2-1a131 131 0 0 0 3-5z" fill="#069aa6"/><path d="m262 1123 8 3v6h-8c-2-3-1-6 0-9z" fill="#eeecd7"/><path d="M718 1140h4v2h3l1 5-4 3-5-1v-8l1-1z" fill="#efead2"/><path d="m807 887 4 1 1 9-1-2c-4 2-4 3-4 7-2 5-2 5-5 7l1-2 3-19 1-1z" fill="#069d9a"/><path d="M503 153c4 1 5 1 7 4l-2-1h-8c-3 3-3 5-4 9h-1v-6c-4 4-6 8-8 14h-1c1-9 6-14 12-20h5z" fill="#100d30"/><path d="m256 1311 2-1 1 11-1 4c0 3 0 3-2 5v-11l-2-6h-4l-14-1v-1l7-1h2l11 1z" fill="#f44d78"/><path d="m312 959 5 1h3l2 1 1 2-9-1c-2 5-3 10-3 16l-12 1-1-2h2l7-2c2-2 2-5 3-8l1-2 1-6z" fill="#0995a8"/><path d="M511 745h13c2 3 2 4 2 8l-3 3h-7l6-2v-7l-10-1 2 8-3-3v-6z" fill="#f5f1d8"/><path d="m797 825 3 1c-3 5-3 5-6 6l-5-1-3-1h-2v-4h9l4-1z" fill="#2c1e30"/><path d="m904 157 1 9-3 3h-3v2l-6 1 7-7v-7l4-1z" fill="#0497a3"/><path d="m61 1103 3 1h5l1 5v3l-1 8-4-7-1-2-1-3-2-5z" fill="#069e9a"/><path d="m132 468 1 4-3 4-5-1-1-6c3-2 5-2 8-1z" fill="#762e02"/><path d="M69 101h1l1 20 4-1-1 6 2 1h-2l-4 3-1-9v-20z" fill="#7b140a"/><path d="m293 1183 4 5c0 4-2 7-3 11l-1 3-3 3 3-11 1-6-2-1v-3l-11 3v-2c8-4 8-4 12-2z" fill="#441910"/><path d="M586 1035c7 1 7 1 9 3l1 1-5-1 2 3 1 5-3 1c-5-5-5-5-5-9v-3z" fill="#07908c"/><path d="M169 564h3v2h6v-2h3v2l4 1h-4c-13 0-13 0-25 2h-5l3-1 3-1 4-1 8-2z" fill="#01a599"/><path d="m724 421 12 4 3 1 2 1v7h-1v-6h-2l-3-1h-3l-5-3-2 15h-1v-18z" fill="#014f45"/><path d="M787 193c4 1 7 3 10 7l2 2c2 3 3 5 3 9l-2-3-3-5-2-2-6-4-5 1h-3l-5 3c1-3 2-4 5-6l6 1v-3z" fill="#07460d"/><path d="m94 137 2 1-12 12-6-4v-2l-2-1h2c7 1 7 1 12-1l4-5z" fill="#601b11"/><path d="M645 501c3 0 4 1 6 3l-3 4h-6l-1-5 4-2z" fill="#edba0b"/><path d="M409 70c12 0 12 0 17 2v10l-5 2-3 2-3-1 3-2c4-2 5-5 6-9h-2v-2l-13-1v-1z" fill="#068ba1"/><path d="M44 1107c4 1 6 3 8 7l2 2 1 2-12-5-2-1-2-1 2-1 3-3z" fill="#0b9c99"/><path d="M116 462h1l1 5 4 1v8l-7-3v-6l1-3v-2z" fill="#792702"/><path d="M453 1248h2c4 0 6 0 9 2h-16v2h-11c5-4 10-4 16-4z" fill="#30d91e"/><path d="m62 372 3 2v6h-2l-5 1-1-6c2-3 2-3 5-3z" fill="#7b3103"/><path d="m237 208 2 1-6 3v3l-3 1-2 3-2 3-1 4v4h-1c-1-6 0-11 4-16 2-3 5-6 9-6z" fill="#1f1710"/><path d="m139 468 3 1v7l-7-1v-6l4-1z" fill="#762f02"/><path d="m696 342 5 1 2 6h-8l-1-5 2-2z" fill="#1fc123"/><path d="M324 136c1 4 0 5-1 9l-2 3-1 3h-4l-1-7h5l4-8z" fill="#842215"/><path d="m888 1325 3 4a57 57 0 0 1-4 7l-11 1h-6v-2h10l7-4 1-6z" fill="#0d989a"/><path d="M610 1182h3l15 1h9l1 2c-10 2-19 2-28-2v-1z" fill="#057e7b"/><path d="m232 216 7 1 1 5-2 2-6-2-1-4 1-2z" fill="#f3e6c8"/><path d="M661 1138c3 3 4 6 4 11v8c0 3 0 4-2 7h-2l-1 3v-6c3-8 2-15 1-23z" fill="#057c7d"/><path d="M442 326c0 3-1 5-3 7l-4 1-1-4-8-1v-1h5l3-1 8-1z" fill="#109291"/><path d="m185 317 20 1v1h-12v3l-10-1 2-4z" fill="#61230f"/><path d="M158 123h7l-1 6h-7l1-6z" fill="#e25f0f"/><path d="M221 95h1l1 12 7-1v2h-5v2l-3 2-3-1 1-2a215 215 0 0 0 1-7v-7z" fill="#0b959d"/><path d="m258 1151 2 1 2 1 2 2 6 3v3h-2l-1-2-2-1-2 1h-3l-5-5 1-2 2 1v-2z" fill="#f6ead3"/><path d="m638 1139 3 1v5l-6 1-2-2c1-5 1-5 5-5z" fill="#f5efc7"/><path d="M427 993h1v12c1 5 1 8 4 13h-3c-4-8-5-17-2-25z" fill="#e5577d"/><path d="m511 745 1 6 3 4h11c-3 2-5 3-9 3-3-1-5-2-7-5l-1-6h-5l7-2z" fill="#662103"/><path d="M583 383v8l-2 4-2 1-2-4 3-8 3-1zm-8 11 2 1z" fill="#e85880"/><path d="m831 876 5 1v6h-2l1 3c-3-1-3-1-5-4v-5l1-1z" fill="#069d9a"/><path d="m895 671-1 6-3 2-6 4v-2l-3 1h-10l1-3h2c9 0 9 0 16-3l4-5z" fill="#089f9c"/><path d="m73 137 2 1 1 6h2l1 2 4 2v4l-4 1-2-5-2-3-2-8z" fill="#761a0e"/><path d="m78 1107 2 1 1 11v7l-1 3v9c-2-2-2-2-2-5v-26z" fill="#fa4e7d"/><path d="M258 457h2l1 5h4l6 2 1 4-1 2v-2h-2l-3-1-1-2-6-2-1-4v-2z" fill="#8b2406"/><path d="m370 1046 5 3-2 1c-5 2-8 4-12 8l-1-2c6-9 6-9 10-10z" fill="#eec10d"/><path d="m587 579 1 2-1 3h2v2h-3l1 3-8-1 3-3 1-2 4-4z" fill="#ef9009"/><path d="m722 1208-2 5h-2l-1 2h3l-1 2c-5-2-5-2-6-5v-2c3-2 5-2 9-2z" fill="#f8f4c1"/><path d="M486 1011h1c0 6 0 12-4 17l-3 1-3 4-3-1 1-1c6-6 10-12 11-20z" fill="#0f9e9a"/><path d="M564 396h15c-3 3-7 3-12 3h-3l-7-2 7-1z" fill="#f64e7b"/><path d="m346 242 2 2-4 8c-4 3-7 2-12 2l-1 2v-3h9l1-3 2-3 3-5z" fill="#f66a0a"/><path d="m644 1253 5 2 3 1 4 3h-8l-3-2-3 2v-3h2v-3z" fill="#098e83"/><path d="M775 962h4v2l-1 9-3 1-1-10 1-2z" fill="#f0910d"/><path d="m355 630 6 9-7 10v-7h2l1-2-2-1 2-2-2-7z" fill="#0a92a1"/><path d="m743 292 15 3v1h-11l-1 2-2 1-2-1 1-6z" fill="#f0f5a9"/><path d="m830 1320 17 2c-1 4-2 7-5 10l2-8h-2l-3-1h-3l-6-3z" fill="#0591aa"/><path d="M888 434h2v6l-5 1-2-5c2-2 2-2 5-2z" fill="#1cbe22"/><path d="M234 308v3l-5 2v2l-7 4-3-1 7-4h-5l8-4 3-1 2-1z" fill="#42190b"/><path d="M329 112h1c0 8 0 15-4 22-2-3-2-5-2-9l3-1 2-12z" fill="#7c1b0f"/><path d="M770 892h5v8l-6-2 1-6z" fill="#0d9999"/><path d="m311 375 2 1-1 7-3 1-1 2-3 4-2 1 2-2 6-14z" fill="#129497"/><path d="M390 61c2 3 1 6 0 9l-5 1-3 1-7-1 1-2 6-1h5l3-7z" fill="#0789a2"/><path d="M714 1208v2l2 6-4-2v-4l-3 1-15 1v-1l8-1 3-1h2l2-1h5z" fill="#112121"/><path d="m602 1058 2 2h-2v2h-2l-2 5-2-2-2 2h-3c1-4 3-4 6-6l3-2 2-1z" fill="#098d87"/><path d="M538 518c-1 3-2 5-5 7l-2 2-1 1v-4h2l-1-6h7z" fill="#109099"/><path d="m134 215 2 1-1 3c-3 6-2 13-2 19-3-3-3-5-3-8 0-6 2-10 4-15z" fill="#160f09"/><path d="M152 1313h1l1 8-5 5-5-1 3-2c3-3 4-6 5-10z" fill="#ec4e76"/><path d="M253 1130h1l1 15-1-3-5 2-1-4h2l1-3h1l1-7z" fill="#f9ebd6"/><path d="m507 1082 2 1c0 3-1 4-3 6l-6 2c-6-3-6-3-7-6v-2l2 2c3 3 5 2 10 2l2-5z" fill="#0596aa"/><path d="M878 535c5 0 7 1 10 5-3 2-3 2-7 2l-1-2-2-5z" fill="#f29213"/><path d="m579 517 1 2c-4 3-6 3-11 3l-2-1-1 3-1-5h6l3-1 5-1z" fill="#098c9f"/><path d="m559 487 2 1 1 10v6h7v1h-9v-8l-1-10z" fill="#038ba8"/><path d="M586 228h5l1 5-2 2h-4v-7z" fill="#e8517a"/><path d="M330 202h11l-1 2h-3l-1 7-6-9z" fill="#139497"/><path d="m720 1134 3 1-2 1c-4 3-3 4-4 8v5l-2-1v-3c0-3 0-3-2-5l3-3 2-2 2-1z" fill="#1e170c"/><path d="m532 893-1 3-19-1v-1l20-1z" fill="#10969e"/><path d="m807 351-1 2 3 1c-3 2-4 2-7 2l-2-1 3-1-5-1c3-3 5-3 9-2z" fill="#20da28"/><path d="M334 302c4 2 6 4 9 8l2 3c2 2 3 3 3 6l-5-5-3-3-4-6-2-1v-2z" fill="#9f2a07"/><path d="m150 218 5 1v4l-5 1-2-4 2-2z" fill="#f7ebcf"/><path d="M759 103h1v8l-2 4h-5v-5l6 1v-8z" fill="#014942"/><path d="m700 1262-4 2v2l-5 1v-4l-2-1h11z" fill="#0b8c82"/><path d="m807 675 2 1-2 3 2 3h-3l1 8-3-3c-1-7-1-7 2-10l1-2z" fill="#e9c20d"/><path d="M396 95h2l2 5-4-1v4h-6l2-1 2-5 2-2z" fill="#0a8d9d"/><path d="M827 1012h1l1 14h-3v-3l-1-5a101 101 0 0 1 2-6z" fill="#f29b06"/><path d="m174 315 2 1 2 1 2 1-1 2-11-4c3-2 3-2 6-1z" fill="#62240e"/><path d="M867 228h2v8h2l1 7-3 1-1-5-1-3v-8z" fill="#0193a5"/><path d="m168 1035 2 1-4 3-3 2-5 2-1 3h-3v-2l5-3 2-2 7-4z" fill="#f64e82"/><path d="M773 962h2v16l-4-2 2-14z" fill="#099ba3"/><path d="M792 295v3c0 4 2 5 5 8l3 2c-7-1-7-1-10-4v-7l-4-1 6-1z" fill="#094d18"/><path d="m404 1156 5 1c-1 4-2 5-5 7l-1-7 1-1z" fill="#099d9a"/><path d="m539 1002 2 1v2h-2v2l-1 2v3l-1 2-3 1c1-5 2-9 5-13z" fill="#ef9b0a"/><path d="M278 702v11l-4 3v-8h2l2-6z" fill="#71438e"/><path d="M357 531h7l2 4v7l-1-4h-3l1-6h-6v-1z" fill="#ee9a0b"/><path d="m70 296-3 1c-3 2-4 3-5 6l-3-3c4-4 6-6 11-4z" fill="#9c2d06"/><path d="m759 113 15 1v1h-15v-2z" fill="#31d820"/><path d="m182 1340-1 4h-7l-2-1c4-2 6-3 10-3z" fill="#e55478"/><path d="m740 1205-2 1c-2 1-3 2-4 5l-2 2v-2l-3-4-2-1 13-1z" fill="#0d1a1b"/><path d="m774 1059 5 3 2 1 2 2v3h-4c-3-3-4-6-5-9z" fill="#088e8b"/><path d="m78 1018 1 7v3c0 2-1 3-3 5l-2-1 1-2 1-7v-4l2-1z" fill="#0595ac"/><path d="m791 197 5 5h-2l-1 2-3-4-4-3h5z" fill="#106320"/><path d="m76 157 4 3-3 3h-2l-1 2-4-1 6-7z" fill="#eb7318"/><path d="m802 120 13 5c-3 2-6 0-9-1h-4v-4z" fill="#30d820"/><path d="M380 95h1l1 3c1 4 1 4 4 6h4v2l-7 1c-2-2-3-3-3-6v-6z" fill="#25918d"/><path d="M385 88v8l-1 2-1 2h-1l-1-8 4-4z" fill="#f1b20e"/><path d="m655 1149 2 1v9h-3v-7l1-3z" fill="#3c341e"/><path d="M647 408h1v8l1 2 1 8v5h-2l-1-9v-14z" fill="#36dd16"/><path d="m322 1057 4 2v2l3-1 3 7c-3-1-5-3-7-6l-2-2-1-2z" fill="#05a29d"/><path d="M510 679h1v13h2v4h-2l-2-8v-4l1-5z" fill="#f5f6d1"/><path d="M626 617h3l-5 11v-8h2v-3z" fill="#eb9409"/><path d="M276 386h1c1 4 0 5-2 8l-6 2-3-1 6-3c3-1 3-3 4-6z" fill="#ed6812"/><path d="M870 356h2l1 8v5h-1l-1-6-2 2 1-9z" fill="#0190af"/><path d="M63 193h3l-2 5h-4l-1-4 4-1z" fill="#159594"/><path d="M374 74h2v3h2l-1 5-3-1v-7z" fill="#ebb30e"/><path d="m761 1174 2 3c-2 3-3 4-7 5l-3 2-1-3 5-3 4-4z" fill="#0c867f"/><path d="M259 1120h2v2h3l-3 9-2-4 1-3h-2l1-4z" fill="#0b6469"/><path d="m887 540 1 3c-2 2-4 3-7 3h-2l2-1v-3l6-2z" fill="#f66237"/><path d="M931 1383h1c1 9 1 9-2 13l-2 2 3-15z" fill="#ededd8"/><path d="m432 1179-2 4-7-1 4-4 5 1z" fill="#07a09a"/><path d="m583 1070 2 2c-3 3-6 4-10 5l8-7z" fill="#118e85"/><path d="m146 1009 2 2h-5l-8 2-1-2c4-3 7-2 12-2z" fill="#ecc10c"/><path d="m207 656 1 2h-2l-1 3v-3l-8-2v-1c4-1 6-1 10 1z" fill="#161432"/><path d="m542 497 2 1v4l-12-1v-1l6-1 4-2z" fill="#19948b"/><path d="m315 139 7 1-1 5-6-2 2-1v-2l-2-1z" fill="#692112"/><path d="m282 110 3 4h-3v2l-2 1-6 3 7-9 1-1z" fill="#78170c"/><path d="m857 1285 9 6v4c-4-1-4-2-6-6l-2-2-1-2z" fill="#0193a8"/><path d="M228 1213h9v2l5 1h-9l-3-1-2-1v-1z" fill="#3d1b0d"/><path d="M366 1189h3v2l4 1-8 3 1-6z" fill="#06a199"/><path d="M72 1015v1h-2l-3 1h-3l-5 3-1-4 14-1z" fill="#0694ae"/><path d="M867 870h5l3 1 5 2-1 2c-4-1-8-2-12-5z" fill="#f74f7f"/><path d="m78 541 4 2 1 3-3 3-3-1 1-7z" fill="#109a94"/><path d="M69 521h2c2 5 2 8 2 13-3-3-3-4-3-8l-1-3v-2z" fill="#039ba9"/><path d="m41 328 1 3-2 2-1 4h-2l-1 3-1-3 3-5 2-2 1-2z" fill="#992906"/><path d="m897 1215-1 5-1-2-3 1-6-2 4-1 3-1h4z" fill="#0294a5"/><path d="m151 1031 3 2v5l2 1 1 4-2 1-2-5-1-3-1-5z" fill="#0891a7"/><path d="m742 875 4 3-1 5h-2l-1 3v-11z" fill="#0e9b9c"/><path d="m329 448 3 4h-4l-3-1-5-1c3-2 5-3 9-2z" fill="#f74e7a"/><path d="M52 388h2v4h-9v-2l7 1v-3z" fill="#953410"/><path d="m758 295 11 1v1h-9l-1 7h-1v-9z" fill="#034c1b"/><path d="m893 148 1 2 4 6-9-4v-2l4-2z" fill="#0797a5"/><path d="m406 59 4 4-2 7h-1l-1-11z" fill="#078a9b"/><path d="m846 1319 4 2h-2v6l-3 1 2-6h-5l4-1v-2z" fill="#9bc509"/><path d="M308 1299v2l-9 4c2-5 4-6 9-6z" fill="#e05880"/><path d="M670 1262h9v1h-5l-2 4-3-2 1-3z" fill="#0b8a81"/><path d="m814 1062 1 2c-1 4-5 8-9 10 2-5 5-8 8-12z" fill="#0b9aa8"/><path d="m550 791 1 2-3 4-1 1-2 2h-2l7-9z" fill="#fcd30c"/><path d="M887 741c6 0 6 0 9 2l1 4-3-1v-2h-2l-5-3z" fill="#d6be19"/><path d="m748 350 11 3v2c-4-1-7-1-11-4v-1z" fill="#1bdd25"/><path d="m326 292 9 10-6-4-4-1 1-5z" fill="#8d2e11"/><path d="m273 119 8 2v3l-8-3v-2z" fill="#641e13"/><path d="M299 1340h5l-1 4-5 1-1-3h2v-2z" fill="#de577a"/><path d="m647 1178 1 3-2 1-5 2-3-2 9-4z" fill="#0a827d"/><path d="m427 1106 4 1-2 2-6 5c0-4 2-5 4-8z" fill="#099aa1"/><path d="m586 1044 5 1 1 4-4 2v-5h-2v-2z" fill="#f89406"/><path d="M773 1039h3l-6 2-1 4-4-1h2l1-2c2-3 2-3 5-3z" fill="#f18e09"/><path d="m329 972 2 2-2 5-3 1v-6l3-2z" fill="#0694a4"/><path d="M381 869c4 1 5 4 8 7h-5c-2-2-3-4-3-7z" fill="#0d95a4"/><path d="m674 763 4 2v8h-2l-2-10z" fill="#0695a8"/><path d="M467 746h7l4 2h-8l-1 2-2-4z" fill="#702c03"/><path d="m92 613 3 1-7 9 4-10z" fill="#77438f"/><path d="m374 556 4 7-5-1v-5l1-1z" fill="#f5ab07"/><path d="m74 540 4 1 1 4-2 3c-3-3-3-4-3-8z" fill="#049ba3"/><path d="m244 474 1 3h2v2l3 1v1h-7l1-7z" fill="#7e3405"/><path d="M327 283c2 4 0 7-1 11h-1v-7l2-4z" fill="#f56908"/><path d="M555 257c-2 5-5 7-9 9 2-4 5-9 9-9z" fill="#f1628e"/><path d="M338 217c3 3 3 5 4 8l-1 4-3-2 1-3-1-7z" fill="#f36f0d"/><path d="M341 187c3 1 3 2 4 5l-1 4-4-6 1-3z" fill="#069190"/><path d="M78 151v5l-4 3v-6l4-2z" fill="#059da9"/><path d="m720 1175 5 1 1 3-5 2-2-1 1-5z" fill="#f1e7ac"/><path d="m551 1078 3 1 1 6-4-2-1-4 1-1z" fill="#f59f08"/><path d="m755 1052 8 2-1 4-1-2h-2v-2l-3 1-1-3z" fill="#078d87"/><path d="m585 992-1 6h-4l1-5 4-1z" fill="#0f9597"/><path d="m885 944 6 4 3 2-11-2 2-4z" fill="#0d989f"/><path d="M213 884v5h-2l-1-2h-4v-2l7-1z" fill="#602c99"/><path d="M349 620h5l1 4-2 3-4-7z" fill="#f19608"/><path d="m527 502 2 1v5h-5l3-6z" fill="#e6bb11"/><path d="m840 410 2 1-3 3h-2l-2 4-3-1 2-2 1-2 5-3z" fill="#31da1f"/><path d="m31 352 3 1v7l-2 2v-4l-2-1 1-5z" fill="#843d11"/><path d="m746 293 12 2v1h-12v-3z" fill="#e4f1a4"/><path d="m544 268-2 1-4 4-4 1v-3c7-4 7-4 10-3z" fill="#f4648f"/><path d="m185 93 4 1 4 6-8-5v-2z" fill="#e67415"/><path d="m375 82 11 2-2 4-2-2-7-2v-2z" fill="#048da9"/><path d="m401 1203 2 1c-6 6-6 6-10 6l8-7z" fill="#08a09a"/><path d="m421 1163 2 4-7 3c1-4 2-5 5-7z" fill="#189f9a"/><path d="m413 1148 3 1-6 7v-6l3-2z" fill="#0c9e99"/><path d="m757 1123 5 1 3 5-1 3-3-4-2-2-2-3z" fill="#047c7d"/><path d="m767 1056 7 2-1 2h-5l-2-3 1-1z" fill="#0d8c86"/><path d="M810 977c4 5 4 5 4 8l-4-2-1-5 1-1z" fill="#ea9c0c"/><path d="m177 652 2 1h-2l-4 3-1 2-3-2c5-4 5-4 8-4z" fill="#151232"/><path d="m873 538 2 6 4 3-4 1c-2-4-2-6-2-10z" fill="#079e9e"/><path d="M116 462h1v12l-2-1 1-11z" fill="#702f12"/><path d="m531 450 3 2 3 1-5 5-1-8z" fill="#068c9e"/><path d="m300 394 1 4-2 3h-2l-1 3-2-2 2-2 4-6z" fill="#15959a"/><path d="M95 245h11l-2 3h-5v-2l-4-1z" fill="#fa6a7e"/><path d="M500 152c8 2 8 2 10 5l-2-1h-9l1-4z" fill="#0a092b"/><path d="m365 1309 2 1v3h2l-1 2-5-2v-3l2-1z" fill="#0b98a2"/><path d="M891 1198c-3 2-4 3-7 3h-3c2-4 6-3 10-3z" fill="#e5be0f"/><path d="M253 1189c2 2 2 4 3 7h-4l1-7z" fill="#3d150c"/><path d="M259 1116h4v2l-6 5 2-7z" fill="#f2ead4"/><path d="m546 1076 7 9c-3-1-5-2-7-5v-4z" fill="#149a9d"/><path d="m134 1062-1 6-5 2c1-3 3-6 6-8z" fill="#f34d89"/><path d="M282 875h2c-1 4-3 7-6 10l4-10z" fill="#01a499"/><path d="m759 749 1 4-5 3 4-7z" fill="#e85780"/><path d="m667 750 5 5-1 2-5-2 1-5z" fill="#f3c010"/><path d="m547 533 4 1v3l-7-1 3-3z" fill="#139299"/><path d="m868 448 12 3v1c-5 0-8 0-12-3v-1z" fill="#35d91d"/><path d="M31 345h1l-1 12h-1c-1-9-1-9 1-12z" fill="#01aaad"/><path d="M332 254h8l-2 1v2h-5l-1-3z" fill="#16908e"/><path d="M61 248v5h-2v-2l-2 1h-5l4-2 2-1 3-1z" fill="#14969f"/><path d="M750 120h2l1 5h-5l2-5z" fill="#1ec121"/><path d="m71 89 3 1-1 2-2 8h-1v-7l1-4z" fill="#841a0d"/><path d="m643 1246 1 2-3 3-4-1 6-4z" fill="#ea4323"/><path d="M420 1180h3v2h5c-2 2-2 2-5 2h-2l-1-4z" fill="#df5d81"/><path d="M655 1161h4l-1 5h-3v-5z" fill="#f5ecae"/><path d="M637 1116h7l1 3-8-1v-2z" fill="#148981"/><path d="m804 1074 1 3-5 3-2-1 6-5z" fill="#059aa1"/><path d="m806 1068 3 1-5 5v-5l2-1z" fill="#f6a007"/><path d="M594 1061h2l-5 5-1-4 4-1z" fill="#e97b0c"/><path d="m583 969 5 1v8h-1v-6l-3-1-1-2z" fill="#c69821"/><path d="M859 884h6c-3 3-4 3-8 3h-3v-1h5v-2z" fill="#f2507f"/><path d="m425 745 1 2-3 4h-2l-1 3c0-4 2-6 5-9z" fill="#5e1b01"/><path d="M185 647h3l2 1h2v1l-12 1c3-3 3-3 5-3z" fill="#fcf4e5"/><path d="m123 470 3 6-5 1 2-7z" fill="#803809"/><path d="m895 435 1 2 2 1h-2l-2 6v-7l1-2z" fill="#0292a8"/><path d="m50 312 3 1v2l-6 4 3-7z" fill="#a22a03"/><path d="m85 148 1 3-3 3h-5l1-2h4l2-4z" fill="#e7721a"/></svg>