<svg viewBox="0 0 100 140" xmlns="http://www.w3.org/2000/svg">
  <rect x="2" y="2" width="96" height="136" rx="8" fill="white" stroke="#ccc" stroke-width="2"/>
  
  <!-- Hedgehog -->
  <g transform="translate(50,70)">
    <!-- Body -->
    <ellipse cx="0" cy="0" rx="20" ry="15" fill="#8b7355"/>
    
    <!-- Spikes -->
    <path d="M -18,-8 L -22,-15 L -15,-12 Z" fill="#654321"/>
    <path d="M -10,-12 L -12,-20 L -8,-15 Z" fill="#654321"/>
    <path d="M 0,-15 L -2,-22 L 2,-22 Z" fill="#654321"/>
    <path d="M 10,-12 L 8,-20 L 12,-15 Z" fill="#654321"/>
    <path d="M 18,-8 L 22,-15 L 15,-12 Z" fill="#654321"/>
    <path d="M -20,0 L -25,-5 L -18,-3 Z" fill="#654321"/>
    <path d="M 20,0 L 25,-5 L 18,-3 Z" fill="#654321"/>
    <path d="M -15,8 L -20,5 L -12,10 Z" fill="#654321"/>
    <path d="M 15,8 L 20,5 L 12,10 Z" fill="#654321"/>
    
    <!-- Face -->
    <ellipse cx="-15" cy="0" rx="8" ry="10" fill="#deb887"/>
    
    <!-- Snout -->
    <ellipse cx="-20" cy="2" rx="3" ry="4" fill="#d2b48c"/>
    
    <!-- Nose -->
    <circle cx="-22" cy="1" r="1.5" fill="black"/>
    
    <!-- Eyes -->
    <circle cx="-18" cy="-3" r="2" fill="black"/>
    <circle cx="-17" cy="-4" r="0.8" fill="white"/>
    
    <!-- Ear -->
    <ellipse cx="-12" cy="-6" rx="2" ry="3" fill="#8b7355"/>
    
    <!-- Legs -->
    <ellipse cx="-10" cy="12" rx="2" ry="4" fill="#654321"/>
    <ellipse cx="-3" cy="13" rx="2" ry="4" fill="#654321"/>
    <ellipse cx="4" cy="13" rx="2" ry="4" fill="#654321"/>
    <ellipse cx="11" cy="12" rx="2" ry="4" fill="#654321"/>
  </g>
</svg>
