<svg viewBox="0 0 100 140" xmlns="http://www.w3.org/2000/svg">
  <rect x="2" y="2" width="96" height="136" rx="8" fill="white" stroke="#ccc" stroke-width="2"/>
  
  <!-- Knight -->
  <g transform="translate(50,70)">
    <!-- Helmet -->
    <ellipse cx="0" cy="-15" rx="14" ry="12" fill="#c0c0c0"/>
    
    <!-- Helmet details -->
    <rect x="-12" y="-20" width="24" height="3" fill="#808080"/>
    <rect x="-10" y="-12" width="20" height="2" fill="#808080"/>
    
    <!-- Visor -->
    <rect x="-8" y="-18" width="16" height="8" rx="2" fill="#404040"/>
    
    <!-- Visor slits -->
    <rect x="-6" y="-16" width="2" height="1" fill="black"/>
    <rect x="-2" y="-16" width="2" height="1" fill="black"/>
    <rect x="2" y="-16" width="2" height="1" fill="black"/>
    <rect x="-6" y="-14" width="2" height="1" fill="black"/>
    <rect x="-2" y="-14" width="2" height="1" fill="black"/>
    <rect x="2" y="-14" width="2" height="1" fill="black"/>
    
    <!-- Plume -->
    <path d="M 0,-27 Q -3,-35 -8,-30 Q -5,-25 0,-27 Q 3,-35 8,-30 Q 5,-25 0,-27" 
          fill="#dc143c"/>
    
    <!-- Body armor -->
    <path d="M -12,-3 L -15,20 L 15,20 L 12,-3 Z" fill="#c0c0c0"/>
    
    <!-- Armor details -->
    <rect x="-10" y="0" width="20" height="2" fill="#808080"/>
    <rect x="-8" y="5" width="16" height="2" fill="#808080"/>
    <rect x="-10" y="10" width="20" height="2" fill="#808080"/>
    <rect x="-8" y="15" width="16" height="2" fill="#808080"/>
    
    <!-- Arms -->
    <ellipse cx="-18" cy="5" rx="4" ry="12" fill="#c0c0c0"/>
    <ellipse cx="18" cy="5" rx="4" ry="12" fill="#c0c0c0"/>
    
    <!-- Gauntlets -->
    <circle cx="-18" cy="15" r="4" fill="#808080"/>
    <circle cx="18" cy="15" r="4" fill="#808080"/>
    
    <!-- Shield -->
    <path d="M -25,0 L -25,15 Q -25,20 -20,20 L -15,20 L -15,0 Z" 
          fill="#0000ff" stroke="#000080" stroke-width="1"/>
    
    <!-- Shield emblem -->
    <path d="M -22,5 L -18,8 L -22,11 L -18,8 Z" fill="#ffd700"/>
    
    <!-- Sword -->
    <rect x="15" y="-5" width="3" height="20" fill="#c0c0c0"/>
    <rect x="14" y="-8" width="5" height="3" fill="#8b4513"/>
    <circle cx="16.5" cy="-10" r="2" fill="#ffd700"/>
    
    <!-- Legs -->
    <ellipse cx="-6" cy="28" rx="4" ry="8" fill="#c0c0c0"/>
    <ellipse cx="6" cy="28" rx="4" ry="8" fill="#c0c0c0"/>
    
    <!-- Boots -->
    <ellipse cx="-6" cy="35" rx="5" ry="3" fill="#404040"/>
    <ellipse cx="6" cy="35" rx="5" ry="3" fill="#404040"/>
  </g>
</svg>
