<svg viewBox="0 0 100 140" xmlns="http://www.w3.org/2000/svg">
  <rect x="2" y="2" width="96" height="136" rx="8" fill="white" stroke="#ccc" stroke-width="2"/>
  
  <!-- Owl -->
  <g transform="translate(50,70)">
    <!-- Body -->
    <ellipse cx="0" cy="8" rx="18" ry="22" fill="#8b4513"/>
    
    <!-- Head -->
    <circle cx="0" cy="-8" r="16" fill="#d2691e"/>
    
    <!-- Ear tufts -->
    <path d="M -12,-20 L -8,-24 L -6,-18 Z" fill="#8b4513"/>
    <path d="M 12,-20 L 8,-24 L 6,-18 Z" fill="#8b4513"/>
    
    <!-- Eye patches -->
    <circle cx="-6" cy="-8" r="8" fill="#f5deb3"/>
    <circle cx="6" cy="-8" r="8" fill="#f5deb3"/>
    
    <!-- Eyes -->
    <circle cx="-6" cy="-8" r="5" fill="black"/>
    <circle cx="6" cy="-8" r="5" fill="black"/>
    
    <!-- Eye highlights -->
    <circle cx="-4" cy="-10" r="2" fill="white"/>
    <circle cx="8" cy="-10" r="2" fill="white"/>
    
    <!-- Beak -->
    <path d="M 0,-2 L -3,2 L 3,2 Z" fill="#ffa500"/>
    
    <!-- Wing patterns -->
    <ellipse cx="-8" cy="5" rx="6" ry="12" fill="#654321"/>
    <ellipse cx="8" cy="5" rx="6" ry="12" fill="#654321"/>
    
    <!-- Chest pattern -->
    <ellipse cx="0" cy="10" rx="8" ry="10" fill="#f5deb3"/>
    
    <!-- Feather details -->
    <path d="M -10,15 Q -8,12 -6,15 Q -8,18 -10,15" fill="#8b4513"/>
    <path d="M 0,18 Q 2,15 4,18 Q 2,21 0,18" fill="#8b4513"/>
    <path d="M 10,15 Q 8,12 6,15 Q 8,18 10,15" fill="#8b4513"/>
    
    <!-- Talons -->
    <ellipse cx="-8" cy="28" rx="3" ry="2" fill="#ffa500"/>
    <ellipse cx="8" cy="28" rx="3" ry="2" fill="#ffa500"/>
  </g>
</svg>
