<svg viewBox="0 0 100 140" xmlns="http://www.w3.org/2000/svg">
  <rect x="2" y="2" width="96" height="136" rx="8" fill="white" stroke="#ccc" stroke-width="2"/>
  
  <!-- Strawberry -->
  <g transform="translate(50,70)">
    <!-- Main berry body -->
    <ellipse cx="0" cy="5" rx="18" ry="25" fill="#dc143c"/>
    
    <!-- Berry texture dots -->
    <circle cx="-8" cy="-5" r="1.5" fill="#8b0000"/>
    <circle cx="8" cy="-5" r="1.5" fill="#8b0000"/>
    <circle cx="-5" cy="0" r="1.5" fill="#8b0000"/>
    <circle cx="5" cy="0" r="1.5" fill="#8b0000"/>
    <circle cx="0" cy="5" r="1.5" fill="#8b0000"/>
    <circle cx="-8" cy="10" r="1.5" fill="#8b0000"/>
    <circle cx="8" cy="10" r="1.5" fill="#8b0000"/>
    <circle cx="0" cy="15" r="1.5" fill="#8b0000"/>
    <circle cx="-5" cy="20" r="1.5" fill="#8b0000"/>
    <circle cx="5" cy="20" r="1.5" fill="#8b0000"/>
    
    <!-- Leaves/stem -->
    <path d="M -8,-20 Q -12,-25 -8,-30 Q -4,-25 0,-20 Q 4,-25 8,-30 Q 12,-25 8,-20 Q 4,-22 0,-20 Q -4,-22 -8,-20" 
          fill="#228b22"/>
    
    <!-- Small stem -->
    <rect x="-1" y="-22" width="2" height="8" fill="#8b4513"/>
  </g>
</svg>
