<svg xmlns="http://www.w3.org/2000/svg" width="915" height="1348"><g fill="#08424c"><path d="M0 0h915v1348H0V0z"/><path d="M0 0h915v1348H0V0zm71 70-2 2c-7 6-11 14-14 22l-1 2-1 14v21l-1 18v88l-1 178v605l-1 81v126c0 19 4 34 17 49 13 12 26 15 43 15h46l104-1h533c20 0 35-4 51-17 9-9 16-24 16-37V109c-1-13-6-27-15-37a65 65 0 0 0-45-14H661l-18-1H179l-29-1h-29c-20 0-34 1-50 14z"/></g><path d="M447 479h42c12 0 23 1 32 10 4 5 6 10 8 16l2 6 2 6 2 3 6 19 8 27v2l6 18 13 43 12 36 4 14 1 3 6 21a448 448 0 0 0 19 48c5 2 10 2 16 2 6 1 11 4 15 8 5 7 5 14 5 23v2c0 8-1 13-5 19-10 10-24 9-36 9h-14a4140 4140 0 0 0-9 0h-20a5357 5357 0 0 0-21 0h-18a2411 2411 0 0 0-11 0 1775 1775 0 0 1-12 0h-4c-8 0-14-1-21-5-8-8-7-18-7-29 0-7 1-14 6-20 6-6 13-6 21-6 5-1 7-1 11-4l-4-18v-3c-2-5-5-10-10-13l-13-1h-35a3397 3397 0 0 1-19 0h-31l-3-1c-5 1-9 1-13 5-5 7-9 16-10 25l2 6c4 3 7 2 12 2 8 1 15 2 21 8s6 12 7 20v3c0 8 0 15-6 21-8 7-16 9-26 9h-3a2538 2538 0 0 1-9 0h-98c-18 0-18 0-25-7-8-10-9-21-8-34 1-7 4-11 10-15 7-3 13-4 21-5 5 0 5 0 9-4l6-11 1-3 3-9 1-3c11-28 20-56 29-84 9-31 20-62 32-92l1-2c10-24 24-44 49-55l4-2h3c14-6 28-8 43-8zm197-354h2l29 1h2c6 1 11 2 16 7 10 14 15 32 21 49l3 11 1 3 13 36 15 46 18 52 7 18 2 6 2 5 1 2 2 6 1 3 2 6c0 2 0 4 2 6l10 3c6 2 10 6 13 12s3 12 1 18c-3 7-7 11-14 14l-13 1h-3a1108 1108 0 0 1-9 0h-6a2995 2995 0 0 1-13 0h-16a2888 2888 0 0 1-13 0 1361 1361 0 0 0-6 0h-11c-7 0-13-1-19-4a29 29 0 0 1 2-39c5-3 9-3 15-4l3-1c0-6-2-10-5-16l-3-9c-1-5-3-8-7-10l-12-1h-74c-5 0-8 0-12 3-4 5-6 10-8 15v3l-6 16h3c6 0 12 1 17 5a27 27 0 0 1 2 35c-8 6-12 7-22 7h-75c-8 0-15-2-20-7-6-6-7-12-6-20 0-7 4-12 10-16 3-3 8-4 12-5 3-1 4-2 6-5a76 76 0 0 0 2-5l1-3 1-3 2-4 4-10 4-12 2-7 10-26 11-32 21-57 6-18 18-47 1-3c3-8 6-16 13-21 13-5 29-4 44-4z" fill="#efd8b7"/><path d="M173 146h149c6 1 9 2 14 5 3 4 5 8 5 14v34c0 6 0 9-4 14-6 6-13 5-21 6h-2l-41 2h-43c-5 0-7 1-11 3-3 3-3 5-4 9l-1 2-2 19c6 2 12 1 18 0 30-5 61 0 86 17 21 16 32 38 37 63 3 29-3 58-21 81l-2 2-2 2c-14 18-35 28-57 33l-2 1c-34 8-74 2-104-16-12-8-24-17-34-28l-3-4c-3-4-3-8-2-12 3-7 11-10 16-14l17-11 6-4 2-2c4-2 6-2 11-2 4 2 6 5 8 8 7 12 18 18 31 22h17c12 0 23-3 33-12 8-9 12-20 12-32 0-10-4-19-11-26-12-11-29-14-45-13h-2c-18 0-32 4-49 11-7 2-15 4-21 1-4-3-5-6-6-10v-18a1206 1206 0 0 1 6-115l1-3c1-9 3-17 10-23l2-2c3-2 6-2 9-2z" fill="#eed8b7"/><path d="M123 56h30l29 1h491l56 1h74c10 0 20 1 29 6l2 1c13 6 19 18 24 31l1 9v31l1 27v1066c0 18-4 32-16 45l-16 10-3 1c-11 5-23 5-35 5h-24a5565 5565 0 0 0-24 0H258a5608 5608 0 0 0-106 1h-44c-17 0-30-5-42-16-5-6-9-12-12-20l-1-2c-3-9-2-19-2-29V408l1-141V121c0-23 0-23 6-34l1-3c7-12 19-22 32-26 10-3 21-2 32-2zM72 84c-7 9-10 19-10 30v51l-1 36v692l-1 126v216c0 14 5 24 14 34 9 8 21 12 33 12h85l200-1h397c18 0 33-1 47-14l2-2 2-3c7-8 10-18 10-28V225l1-31v-72c0-16-2-30-13-42-9-9-20-12-33-12H485l-224-1H111l-3-1c-15 1-27 6-36 18z" fill="#ecdfc7"/><path d="m720 858 4 1c21 5 41 15 56 30 2 4 2 8 1 12l-10 14-3 5-13 16-1 2c-4 4-7 7-12 7s-8-2-12-5c-11-9-25-15-39-13s-26 9-36 19l-2 2c-13 14-16 32-16 51 0 17 6 30 17 43l2 2c9 10 22 15 36 16a127 127 0 0 0 11 0h3c11-2 22-8 30-16 3-2 6-2 10-2 11 4 21 16 29 24l3 3c9 9 9 9 9 14 0 9-7 15-13 21-18 15-39 24-61 29l-3 1c-20 3-40 2-59-3l-2-1c-20-5-37-16-52-29l-2-2c-25-23-41-59-42-93-1-27 4-52 15-76l1-2c5-10 11-19 18-27l1-2c11-13 24-22 39-30l2-1c28-14 61-17 91-10z" fill="#eed8b7"/><path d="M638 547h144l3 1v136l-1 3H675a4853 4853 0 0 0-13 0h-12a887 887 0 0 0-4 0 818 818 0 0 1-6 0h-3c-3 0-3 0-5-2v-99l1-12v-23c0-3 1-4 5-4zm-407 511c15 13 28 31 29 51 1 22-2 42-17 60a77 77 0 0 1-55 23c-21-1-40-8-55-23a85 85 0 0 1-19-61 73 73 0 0 1 55-62l2-1c21-5 44 0 60 13z" fill="#08424c"/><path d="M811 61c8-1 14 1 21 4l3 1c11 5 16 13 21 24l3 15v31l1 27v1066c0 18-5 32-17 45-5 4-10 7-16 9l-2 1c-5 2-9 3-14 3H676l-75 1H365l-93 1H120v-1l26-1h26l12-1h14l6-2-105-1v-1l175-1h154l44-1h325c13 0 25-1 36-10l1-3 2-2c9-9 13-20 14-33V122c0-16-2-30-13-42-7-7-16-10-25-11l-2-1-7-1H520v-1l42-1h95l23-1h131l3-1-3-2z" fill="#eae7d9"/><path d="M339 886h3c16 0 31 5 43 16 9 10 11 20 10 33-2 28-25 49-44 68l-5 6-4 3-2 2c-4 4-4 4-6 4v2h42c7 0 11 0 16 4 3 4 3 9 2 14-2 4-4 6-8 8h-24l-16 1h-36c-16 0-16 0-21-3-4-4-5-7-5-13s1-9 5-13l3-2 2-1a668 668 0 0 1 34-30l9-9c12-10 24-23 25-40 0-6-2-11-6-16-6-6-13-8-22-7-5 0-8 1-11 5l-6 14c-2 6-3 8-8 11-6 1-12-1-18-4-3-3-5-6-5-11 0-11 6-20 12-28l3-2 2-1c10-9 22-11 35-11zm160 166 5 4 2 2c8 7 13 18 14 28 0 12-2 23-9 32a71 71 0 0 1-6 5l-1 5 4 3c8 5 11 13 14 22 2 10 0 20-3 29l-1 2c-4 10-14 19-24 23-18 7-35 7-53 0-10-5-20-13-26-23-1-5 0-9 3-13 5-4 11-5 18-5 3 0 6 2 8 5l4 6c2 4 6 6 10 7 10 1 19 0 27-6 5-6 7-11 6-19 0-6-3-10-6-13-6-4-12-5-19-5-4-1-7-3-10-6-2-4-2-8-1-12l4-7 9-3c8-2 14-4 19-11 3-5 3-9 2-15-2-6-6-11-12-14-6-2-13-2-19 1-5 3-8 6-10 11-3 6-3 6-6 8-6 1-11 1-17-2-4-3-6-5-7-11 1-5 4-9 7-14l1-2c17-21 51-26 73-12z" fill="#eed8b9"/><path d="M59 105h1l1 296v836c0 3 0 3-2 5l-1 1-2-5-2 3h-2l1-992h1v-18l1-4v-81l1-12v-15c0-5 1-9 3-14z" fill="#efd6b3"/><path d="M183 538c3 0 4 1 6 3l1 3 2 3 2 3 2 3 6 11 2 4 8 13 11 19 8 13 7 13 2 2 4 6c3 5 5 8 5 14l-3 1h-54l-23-1h-47c1-4 1-7 3-10l1-2 1-3 2-2c4-9 9-17 15-26l5-9 1-2 24-40 9-16z" fill="#08414b"/><path d="M811 61c11-1 22 3 31 10 9 8 15 20 15 32v19l1 21v1099l-2 9V977l-2-6-1 38v41l-1 34v118h-1V118c0-15-3-27-13-39l-8-6-3-2-12-2-5-1-7-1H520v-1l42-1h95l23-1h131l3-1-3-2z" fill="#ecd0aa"/><path d="M174 789c4 2 6 5 8 9v127h10c6 0 11 1 15 5 3 4 3 8 2 12-2 4-5 7-10 9h-66c-4 0-6-1-9-4-3-4-4-8-3-13 3-5 4-6 9-9h23v-91c-6 1-6 1-11 4s-10 4-16 3l-7-7c-1-5-1-10 2-15 4-5 9-7 14-10l8-6a322 322 0 0 1 14-9l2-2c5-3 9-4 15-3z" fill="#ecd6b7"/><path d="M635 537h152l5 3c2 3 2 5 2 8l1 4-1 4v135c0 3 0 3-2 5l-14 1h-3a3726 3726 0 0 1-9 0H634c-4 0-5 0-9-3-2-5-2-9-2-14v-78l-1-20v-36c2-7 6-9 13-9zm-2 12v28l-1 11v95l2 4h148l3-1V550l-1-3H675a4788 4788 0 0 1-12 0h-12a884 884 0 0 1-10 0h-3c-3 0-3 0-5 2z" fill="#ecdcc2"/><path d="M866 0h49v1348h-45l8-4 15-9 2-1c4-4 7-9 9-14l1-2c6-12 6-24 6-38V961l1-150V66c0-19-4-34-17-49-8-8-18-13-29-16V0z" fill="#b3b3b4"/><path d="m54 101 1 8v43l-1 51v469l-1 83v419l-1 67h2v-5l3 1 1 5 1-21h1v4c1 17 3 33 16 45 12 10 27 11 41 10h75l200-1h397c17 0 29-1 43-10l2 1-4 3-2 1c-11 7-22 7-34 7H468l-76 1H168l36 1 1 2c-4 2-7 2-11 2h-13l-12 1h-37 110l69-1h479c20 0 20 0 39-6l2-1 2 1-6 3-3 1c-7 4-13 4-20 4H647l-91 1H258l-106 1h-44c-17 0-30-5-42-16-6-6-9-12-12-20l-1-2c-3-9-2-19-2-29V408l1-245 1-15v-40l1-7z" fill="#f0efe5"/><path d="m237 1051 5 4 2 2c15 14 25 35 26 56 1 25-5 45-22 64a85 85 0 0 1-61 24c-10 1-19 0-28-4l-3-1c-20-7-35-23-44-42-8-19-11-43-4-64 4-10 8-20 16-28l2-2c28-31 79-34 111-9zm-106 18a71 71 0 0 0-17 51c2 20 8 39 23 53 18 15 39 20 62 18 19-3 36-11 48-27 4-6 8-13 10-20l1-3c6-20 3-41-7-60l-11-14-2-2a66 66 0 0 0-45-21c-25-1-45 7-62 25z" fill="#ebdabe"/><path d="m830 1275 8-1 2 2c-4 4-8 5-13 7l-2 1c-5 2-9 3-14 3H676l-75 1H365l-93 1H120v-1l26-1h26l12-1h14l6-2-105-1v-1l175-1h154l44-1h325c14 0 14 0 28-5l5-1z" fill="#efd4b1"/><path d="M441 552c6 5 8 11 10 18l2 7 1 3 5 18 3 8 5 16 1 3 2 5c2 5 2 9 2 14-2 4-5 6-9 7h-43c-6 0-11 0-16-3-3-4-3-7-2-11l4-14 2-5 10-32 1-2c12-34 12-34 22-32z" fill="#09414b"/><path d="M188 525c6 5 10 12 14 19l3 6 2 4 9 15 16 27a596 596 0 0 0 22 37l2 2c3 6 5 10 5 17v5c-3 2-5 2-9 2h-33a8773 8773 0 0 1-41 0h-20a4418 4418 0 0 0-11 0 2204 2204 0 0 1-11 0h-5c-7 0-12 0-18-2l-4-6c0-7 2-11 6-17l1-2 4-6 4-6a563 563 0 0 1 13-22l13-22 16-27 2-4c13-21 13-21 20-20zm-5 13-2 3-34 59-21 37-1 2c-2 3-3 5-3 9h49l23 1h52l3-1c0-7-4-12-7-18l-4-6-2-3-7-12-11-17-17-30-5-8-3-6-2-3-2-4-4-3h-2z" fill="#eae3d0"/><path d="M642 202c4 1 6 3 8 7l5 13 1 4 3 9 6 20 3 7 1 4 1 3 2 5c1 7 1 7-2 10s-5 3-9 3h-23l-11 1h-3c-5 0-7 0-11-3-3-5-2-9-1-15l1-4 1-2 2-6 2-5 11-31 1-4 2-6 2-3c2-4 3-7 8-7z" fill="#09404a"/><path d="M854 425c2 2 2 2 2 6v3l1 1v540l-3-4-1 16h-1V493l1-30v-35l1-3z" fill="#efd6b3"/><path d="M811 61c11-1 22 3 31 10 9 8 15 20 15 32v19l1 21v1099l-2 9V401l-1-305h-2l-1 9v314h-1V112c-1-13-4-23-13-33l-8-6-3-2-12-2-5-1-7-1H520v-1l42-1h95l23-1h131l3-1-3-2z" fill="#e1c8a5"/><path d="M53 294h1l1 904h2v3h2V314h1v269l1 83v571c0 3 0 3-2 5l-1 1-2-5-2 3h-2l1-947z" fill="#e2c69d"/><path d="M234 604c6 4 9 9 12 14l1 3 5 8 3 4c6 12 6 12 6 19v5c-3 2-5 2-9 2h-33a8773 8773 0 0 1-41 0h-20a4418 4418 0 0 0-11 0 2204 2204 0 0 1-11 0h-5c-16 0-16 0-20-4v-5l1 2 4 4a113 113 0 0 0 6 0h19v-1l34-1v-1l-48-1v-1l-7-2c1-5 2-9 5-13l2-3 1-3 1 2-3 6-4 10h126c-1-7-1-7-4-12l-2-5-7-11-1-5 1-2h2v-3h-2l-1-6z" fill="#e7dac0"/><path d="m809 1281-3 4 2 1H458a921 921 0 0 0-5 0 847 847 0 0 1-6 0h-3l-7-2v-2h149l50-1h173z" fill="#f0d6b2"/><path d="M632 538h155c3 0 3 0 5 2 2 3 2 4 2 8l1 4-1 4v135h-1l-1-115-1 9-2 8h-1v-46l-1 3v136h-2l-1-138H637l-3 1v76l-1 21v34l-2 5V551l1-4 6-1h9l11-1h83l2-5-111-1v-1z" fill="#f6eedd"/><path d="M792 545h1l1 58v91c-4 2-5 2-9 2h-66l-29-1h-60v-1l94-1v-2l-88-1v-1l148-1v-2h3l-1-139h2l1 40c4-7 2-19 3-27v-15z" fill="#e6cca7"/><path d="m830 1275 8-1 2 2c-4 4-8 5-13 7l-2 1c-5 2-9 3-15 3h-12a6951 6951 0 0 1-13 0H456v-1l350-1 1-3H252v-1h190l66-1h288c15 0 15 0 29-5h5z" fill="#e5c89f"/><path d="M866 0h49v46h-2v6l-4-11a59 59 0 0 0-43-40V0z" fill="#dedfdf"/><path d="M801 58h3c10 0 19 1 28 6l2 1 4 2-2 1-5-2c-5-3-10-4-16-4l-2 3h-14a2750 2750 0 0 0-5 0H658l-1-3 1-2h90v-1l53-1z" fill="#edd5b1"/><path d="m127 619 2 1-1 2h4l-7 15-2 4-1 2-2 6 120 1v1l-64 1v3l82 1v1H155l-12 1h-17c-10 0-10 0-13-3l-2-3-2-1 1-7h2l1-2 6-12 1-2 2-2 1-2 4-5z" fill="#e4cba9"/><path d="M0 0h46l-7 3c-9 4-15 8-22 14l-2 2C9 25 6 31 3 38l-3 6V0z" fill="#e5e5e5"/><path d="M291 173c4 3 5 4 7 8 1 5 1 9-1 13-3 4-5 6-10 6-6 0-10 0-14-4-3-4-4-8-3-13 0-4 3-7 6-10 5-2 10-2 15 0z" fill="#0a3d47"/><path d="M248 172c4 2 6 3 8 7 2 5 2 9-1 14-2 4-4 6-8 7-5 1-9 0-14-3-3-2-4-4-4-8-1-5-1-9 3-13 5-5 10-5 16-4z" fill="#0b3d47"/><path d="M914 1314h1v34h-45l8-4c11-4 20-12 26-22l2 2c4-1 4-2 6-6l1-2 1-2z" fill="#cac9ca"/><path d="m0 1305 4 8c5 13 14 23 26 30l11 4v1H0v-43z" fill="#dadada"/><path d="M196 540a521 521 0 0 0 19 30l1 2 9 14 3 6 2 2c3 6 5 10 5 16h2v3h-2c0 5 2 9 5 13l4 6-1 2-22-36-3-6-2-3-2-2-2-6c-1-4-4-8-6-11l-1-3-5-8-2-2-1-2-1-2 2-4 1-2-3-5v-2z" fill="#ecdabe"/><path d="m121 1167 12 12 3-1 1-3-5-5 1-2 2 1c9 9 19 16 32 19l2 1 23 1h14c-8 4-16 3-25 3h-6c-3 0-4 2-6 4 5 2 10 2 15 2h3l20-2 8-1c-11 7-31 7-44 5l-12-4-3-1c-13-5-25-14-33-24l-2-5z" fill="#eeebde"/><path d="M792 545h1v105l-1 11v4l-1 21-3 1v-87l2-15 2-25v-15z" fill="#efd6b4"/><path d="M142 1290h167l41 1h119v1H360l-32 1H127v-1l15-1v-1z" fill="#144f5b"/><path d="M214 1281h38v1h-23l-8 1h-7l-5 1c13 3 26 3 39 3v1h-34l-2 1h-92v-1l26-1h26l12-1h14l6-2-105-1v-1h29l3-1h83z" fill="#e8cca6"/><path d="M642 689h33l17 1h32l1 2 4 2h-98v-4c3-2 7-1 11-1z" fill="#f0d7b4"/><path d="M238 608c4 3 6 7 9 12l1 2 3 5 3 6c7 12 7 12 7 19v5c-3 2-5 2-9 2h-33a8773 8773 0 0 1-41 0h-20a4418 4418 0 0 0-11 0 2204 2204 0 0 1-11 0h-5c-16 0-16 0-20-4v-5l1 2 4 4h142l1-4v-2l-3-9-1-2-13-22-1-3-2-2-1-4z" fill="#d4e1e0"/><path d="M801 58h3c10 0 19 1 28 6l2 1 4 2-2 1-5-2c-5-3-10-4-16-4l-2 3h-59c2-3 2-3 5-4l-11-1v-1l53-1z" fill="#ebdabf"/><path d="M167 789c4 0 7 0 10 2 4 4 5 7 5 12v122h10c5 0 8 1 13 3l-2 1-2-1a82 82 0 0 0-5 0h-2l-6-1h-5l-3-1a85 85 0 0 1 0-5V806c0-7 0-7-3-12-2-2-3-3-6-3l-4-1v-1z" fill="#f1f5ef"/><path d="M55 1198h2v3h2c2 9 2 17 2 26v10c0 3-1 4-3 6l-2-5-2 3h-2v-33h2v-7l1-3z" fill="#e4ceae"/><path d="M195 1036v1h-12v4h13v1h-2l-8 1h-3c-7 1-13 2-19 5h-2l-13 5h-6l1-5 4-3 7-4 6-1 6-2c9-3 18-2 28-2z" fill="#edd4b2"/><path d="m115 1139 4 8c3 8 7 14 12 20l3 3a97 97 0 0 0 6 7l-3-1-1 2h-2l-1 2-9-9-2-2c-7-8-10-17-12-28l3 2 2-4z" fill="#ebd3b1"/><path d="m249 1078 5 5 1-2 4 1 2 4 1-2c5 9 7 16 7 26h-1l-2-10h-2v-2l-4 1 1 4c5 21-1 40-11 59l-2-1 1-2c10-19 14-40 8-61l-7-16-1-4z" fill="#e6e2d3"/><path d="m237 1051 13 12-1 2-2-2a76 76 0 0 0-50-25l1 5 2 1h-13l-16 3-6-1 18-5v-4c-5 0-10 0-15 2l-13 3c3-3 7-4 11-5l4-1c23-5 49 0 67 15z" fill="#eae8d9"/><path d="m155 568 1 2-3 6-2 3-1 2-3 5-11 17c-2 3-2 6-3 10l5-1 4-6 1-2 3-5 3-4 5-9 1 2a116 116 0 0 1-4 7l-3 5-1 2-5 9-2 3-4 6-1 2-2 3-4 5 3-8h-4l-1-1-3 1-2 5-5 9-2 2-3 6-2-1 10-16 2-5a713 713 0 0 1 29-47l1-2 1-2 2-3z" fill="#e9e7d9"/><path d="m153 574 4 7c-1 5-4 8-7 13l-1 2-3 5-8 13-5-1c0-6 2-10 6-16l2-4 2-2 6-10 1-2 3-5z" fill="#ecd4b1"/><path d="M117 1090v9c-5 18-2 39 7 56l8 11-1 2c-6-6-9-12-12-19l-4-7-3 2c0 4 2 7 3 11l1 2-1 2c-6-10-10-23-9-35l4-2-1 4 3 1v5l1-12c-2-10-1-21 4-30z" fill="#ebe7d7"/><path d="M196 540a403 403 0 0 0 21 32l1 2 1 2 1 4-3 1-1-5-2 6 1 3-2-1-1-3c-1-4-3-7-6-11l-1-3-5-8-2-2-1-2-1-2 2-4 1-2-3-5v-2z" fill="#ebd3b1"/><path d="M197 1038c14-1 26 4 37 12l2 3-5-1-2 4-2-1c-9-6-19-11-30-10l1-2a76 76 0 0 0-1-5z" fill="#ecd3b1"/><path d="M247 1163c1 4 0 5-1 9h-2l1 3-2 3c6-4 9-9 13-15l1 3c-8 12-21 25-36 29l-4-1 2-1c6-2 11-4 16-8l-2-4-6 1 10-9 10-10z" fill="#ede4cf"/><path d="m259 1096 1 2 6-1 1 5 1 2 1 3 1 2v9l-1 4v3h-1l-1-6-2 1-1 7 4-1v7l-2 6v-3l-2-5-3 4v-16c0-8 0-15-2-23z" fill="#ebd2af"/><path d="m143 1179 2 1 23 10-2 7c-10-1-19-7-27-12l-1-2 4 1v-2h3l-2-1v-2z" fill="#ecd2af"/><path d="M375 977c0 4-2 5-5 8l-1 2-18 18-4 4-8 8h26l10 1h8l4 2h-53v-2l3-3 17-16 6-6 4-4 1-1 10-11z" fill="#0a2227"/><path d="m127 619 2 1-1 2h4l-6 15-3 4-1 2-3 6v-7l1-4h-4v3h-2l6-12 1-2c2-3 3-6 6-8z" fill="#ebd1ae"/><path d="M193 535c4 3 5 8 7 13l-3 5 1 2 5 7 1 3 5 8 2 3 1 2 1 2 1 2-1 2-15-25-2-3-5-8-1-2-3-6 1-2 5-1v-2z" fill="#ebe1cc"/><path d="m73 68 2 1-3 3 3 6 4-2-3 3-1 2-7 6-2-3 1-1-2-1-2 4h-3v2l-4 11h-1c0-11 6-19 13-27l5-4z" fill="#ebe0ca"/><path d="m142 1290 68 1c-2 3-4 2-7 2h-76v-1l15-1v-1z" fill="#194a53"/><path d="M59 1221h1v4c0 9 1 18 4 27l1 4 1 3-5-7-2 6-1-2h-2l-1-4-1-2-1-5-2-1 1-3h2v-5l3 1 1 5 1-21z" fill="#f0dec3"/><path d="M912 1295c4 4 4 8 4 13-1 6-3 12-7 16l-5 1 3-12c3-6 4-12 5-18z" fill="#bdbcbd"/><path d="m146 1180 8 3c12 6 24 7 38 7h14c-8 4-16 3-25 3h-6c-3 0-4 2-6 4l6 1v1l-9-1v-2l-2-1h2l-1-5-6-3c-5-1-9-3-13-6v-1z" fill="#e3e0d1"/><path d="M441 551v1h-3c-5 1-6 3-9 7l-3 7-1 3-2 7-2 5-16 49c-1-4-1-6 1-10l1-3 1-4 1-4 3-7 3-10 4-11v-2l2-5 2-8 2-6h2l1-2c3-7 6-7 13-7z" fill="#eef2e9"/><path d="M254 1154h1l1 5 4-3c0 6-2 8-6 12l-5 6-3 3-2 2-3-2 2-1 1-4h2l1-10h3l1-2 3-6z" fill="#e9d2b0"/><path d="M99 59v2h-4l-11 2-1 6h-2l2 4-6 4-3 2v-3l-1-3-2-1c7-9 17-15 28-13z" fill="#e9d8be"/><path d="M177 540h3c-1 5-3 8-6 12l-2 4-1 2-2-2-1 2-2 2h-2l-1 2h-2c1-4 3-7 6-11l4-9h5l1 1v-3z" fill="#ead1af"/><path d="m902 1327 1 3-11 11-4 5c-4 3-7 3-11 2h-7l8-4c8-3 15-8 21-15l3-2z" fill="#b7b9b9"/><path d="m152 1042 2 1-2 1-2 1-3 1-3 5v2l14-5h6l-3 2-5 2-2 1-9 5c-3 2-3 2-7 1l-3-1 1-3 4-1-1-5 6-4 2-1 5-2z" fill="#ece3cf"/><path d="M144 264h1v23l1 9v3c0 10 0 10 4 19 5 2 10 2 15 2v1c-13 1-13 1-17-2-6-8-5-16-5-26v-3l1-26z" fill="#0c2831"/><path d="M232 601c3 3 3 5 3 9h2v3h-2c0 5 2 9 5 13l4 6-1 2-6-9-2-3-1-2-2-3-4-11-1-2v-2l5-1z" fill="#ede1cc"/><path d="M148 248h1l-1 61h-1l-1-10v-3a155 155 0 0 1-1-18h1l2-30z" fill="#e6d1ae"/><path d="m225 1182 1 2 4-1v5l-5 3-3 1h-6l-2-3-7 1 4-3 4-2 10-3z" fill="#ecdcc2"/><path d="M269 1111h1c1 19-2 34-11 51l-1-2 2-5c4-9 8-18 7-28h-3v-7l4-4 1-5z" fill="#efe9d9"/><path d="m250 1067 9 12 3 3v6c-3-2-4-3-5-6l-3 4-3-5-2-2-1-7 3-2-1-3z" fill="#ead2af"/><path d="M215 306h23l1 3h-2c-19-1-19-1-37 3l-3-2 4-2v-1l14-1z" fill="#103841"/><path d="m117 1074 1 2-2 5 7-4-3 7-1 5-2 4-2 1v-4h-3l-2 6v-8l2-4 1-2 4-8z" fill="#e9d0ad"/><path d="M792 545h1v47l-2 5-3-1v-4l1-3 1-4 2-25v-15z" fill="#ebd0ac"/><path d="M464 1045h17l1 3h-17l-2 2v-2c-7-1-13 2-20 5l-5 2 10-7 3-1c5-2 9-2 13-2z" fill="#e4e0d0"/><path d="m139 1051 1 3h-2l1-3zm-3 2 2 2-2 1v2h5l-1 4h-2l-7 5-2-1-4-3 11-10z" fill="#e9d1af"/><path d="M238 608c4 3 6 7 9 12l1 2 3 5 3 6c7 12 7 12 7 19v5l-3 1 1-2c2-13-10-28-17-39l-1-3-2-2-1-4z" fill="#e8f0eb"/><path d="M183 527h5c4 3 6 6 6 11l-8 1-3-3 3-7-3-2z" fill="#e9d2af"/><path d="M181 1036h14v1h-12v4h13v1l-25 2 3-1-1-4 3 1-1 2 5-1v-2l-8-1c3-2 5-2 9-2z" fill="#e8cca8"/><path d="M60 1248c6 9 6 9 6 14l-2 6h-2l-3-4-1-3v-5l1-2 1-6z" fill="#ebd1ae"/><path d="M227 302h3l7 1v1l-6 1v1l-13 1h-10c-3 0-3 0-5-2h7v-2c6-2 11-2 17-1z" fill="#cfc8b3"/><path d="m177 1193 3 1h2v2l1 2 3 1c-12 0-12 0-17-2l1-3 7-1z" fill="#f1d8b6"/><path d="M515 344c1 4 0 6-1 10l-1 2-1 4-3 6-1 4-2 4-5 8-3-1 2-2c3-3 4-6 6-10l1-3 3-13h2l3-9z" fill="#101e22"/><path d="M789 694c-4 2-7 2-11 2h-2l-34-1v-1h47z" fill="#eacfaa"/><path d="m167 564 1 2-3 5-1 2-2 3-2 3-4 7-1-5c0-3 0-3-2-5l2-3h2v2l4-1 3-5 2-3 1-2z" fill="#ede5d2"/><path d="m171 1037 9 2v2l-5 1-1-2v3c-3 2-4 2-7 2l-2-1 1-4 5-1v-2z" fill="#f0d6b4"/><path d="m888 1343-3 5h-15l8-4 2-1h8z" fill="#bababa"/><path d="m196 540 8 10 2 3 1 3-1 2-4-6-2 6-4-5 2-4 1-2-3-5v-2z" fill="#eacfab"/><path d="M637 979c3 6 3 13 2 19l-2 5h-1v-11l1-13z" fill="#092b33"/><path d="m171 1039-2 1-3 3 4 2c-3 3-5 3-9 4h-5c4-3 4-3 7-3l1-4-8 1 6-4 3-1 6 1z" fill="#e5cca8"/><path d="M152 200v19l-2 6-1-24 3-1z" fill="#ddceb1"/><path d="M441 551v1h-3c-4 1-6 2-8 5l-3 9c-1 3-3 4-5 5l1-4v-3l2-4h2l1-2c3-7 6-7 13-7z" fill="#eae6d5"/><path d="m476 397 1 9c0 8 2 13 7 19-7-3-7-3-8-6-2-8-3-14 0-22z" fill="#05171d"/><path d="m108 1122 2 1-1 3 3 1-3 9v5c-4-4-3-10-3-15l2-4z" fill="#f0e5d0"/><path d="M291 1042h3l11 1h2l6 1h15v1h-28c-6 0-6 0-8-2l-1-1z" fill="#e9cca2"/><path d="M228 594c3 2 4 5 6 8l-1 2-1-3c-3 1-3 1-5 4l-2-6h2l1-5z" fill="#ead0af"/><path d="M348 542v7l-1 2-1 3-1 2-3 6-1-8 3-1v-4l3-6 1-1z" fill="#0c2931"/><path d="m259 1096 1 2 6-1 1 8-4-2-2 4-2-11z" fill="#e9d0ae"/><path d="m264 1086 3 6h2l1-2-1 6v3l2 1-1 6-4-11-1-3-1-6z" fill="#09252c"/><path d="M770 916c0 4-1 7-3 10l-8 6 7-10 1-2 3-4z" fill="#09272e"/><path d="m468 634 4 3c0 5-2 7-5 11l-2-1 1-5 3-1-1-7z" fill="#0f4956"/><path d="M857 1251c1 4 1 5-1 8l-3 8-6 3 6-12 1-2 3-5z" fill="#082129"/><path d="m117 1100 1 9v6l-1 3v7h-1l-1-9v-3l-1-3v-2l2-5 1-3z" fill="#134b57"/><path d="m199 1196 7 1c-6 4-14 3-21 3h-9v-1l23-1v-2z" fill="#e3caa8"/><path d="M515 344c1 4 0 6-1 10l-1 2-2 5-2-1 1-7h2l3-9z" fill="#0e2c34"/><path d="m101 68-3 3h-7v3l-3-1-4 1c4-5 10-6 17-6zm-14 6 2 1z" fill="#0c242a"/><path d="m397 491 3 1-2 1-2 1-2 1-3 3-4 1-2 1h-2c3-3 4-4 8-5l1-3h3l2-1z" fill="#e7cfac"/><path d="m511 359 3 2-3 7h-2l-2 6v-5l1-4 2-3 1-3z" fill="#edeadb"/><path d="m908 1312 2 3-1 5-1 2-1 2h-3l4-12z" fill="#b4b5b5"/><path d="M786 1080h1c0 6-1 9-4 14l-2 1 1-8 4-2v-5z" fill="#ece6d6"/><path d="M269 378c0 3 0 3-2 5l-4 2-2 4h-6l6-5 2-1 2-2 4-3z" fill="#ebcfab"/><path d="m183 538 4 1 3 5 2 3 1 2-1 2-5-7-1-2-1-2-3 2 1-4z" fill="#091b20"/><path d="m51 1245 3 9-3 1-2-7 2-3z" fill="#183f4a"/><path d="M229 1048c4 1 5 2 7 5l-5-1-2 4-4-4 5-1-1-3z" fill="#ead0ac"/><path d="m245 624 4 5-4 4-2-5 2-4z" fill="#efd8b6"/><path d="M909 39h3l1 8v5l-3-9-1-2v-2z" fill="#d8d9d8"/><path d="m771 1105 2 1-2 2 1 2-10 2 9-7z" fill="#07232a"/><path d="m431 1059 4 1-7 7-1-4 4-4z" fill="#e1d7c1"/><path d="M340 207v6c-1 3-3 4-7 5l-3-1 3-2c3-2 5-4 7-8z" fill="#071f24"/><path d="m37 1345 2 1 2 1v1H30l-1-3h8z" fill="#c4c8c9"/><path d="m786 1077 2 1v10c0 3 0 3-2 5h-2l1-2 1-14z" fill="#081e25"/><path d="M584 905c0 4-1 6-4 9l-2 2c0-4 1-4 3-7l2-2 1-2z" fill="#f0ecdc"/><path d="M748 1044v1h-8l-1 2-4 4 1-5c4-3 8-2 12-2z" fill="#e7cca6"/><path d="M204 1038c8 1 8 1 10 3-4 1-6 1-10-1v-2zm0 3 3 1h-3v-1z" fill="#ebcfac"/><path d="M600 738c3 3 4 6 5 10l-4-1c-2-3-1-6-1-9z" fill="#ebcfaa"/><path d="M113 641v6l-1 2v2h-3l1-7h2l1-3z" fill="#dacfb4"/><path d="m701 1130 8 1v1l-12 1h-6v-1h4l3-1 3-1z" fill="#e4cba3"/><path d="m641 1017 2 1 1 5v5c-3-3-4-5-4-9l1-2z" fill="#0d2f38"/><path d="M318 929v8l-1 2v2l-3-1 1-5 1-3 2-3z" fill="#0c2930"/><path d="m228 605 5 4 1 6-2-1v-2l-3-1-1-6z" fill="#e5d0b1"/><path d="M896 1334v3l-4 3 4-6zm-10 6 5 1-1 2-6-1 2-2z" fill="#acadad"/><path d="m116 1162 7 8-1 2-3-1-3-9z" fill="#0a272f"/><path d="M611 275h1v5l3 1v3l2 2-4-1c-2-4-2-6-2-10z" fill="#0b2327"/><path d="m299 899 3 2-4 4-2 5h-2l4-9 1-2z" fill="#deccac"/><path d="m443 557 4 2v11l-2-5-1-3-1-5z" fill="#174b56"/><path d="M343 388v5l-1 3-2 3-1 2-2-3 3-1 2-5v-2l1-2z" fill="#ebd0ac"/><path d="M555 1007c2 4 2 6 2 11h-3l1-11z" fill="#ded1b7"/><path d="m146 834 6 1-1 4-3 1v-3l-2-1v-2z" fill="#0f4753"/><path d="m146 801 3 1-6 7-4-1 2-1 2-1 1-2 2-1v-2z" fill="#e6cfaf"/><path d="m409 797 1 3c-2 3-3 6-6 8l-2-1 1-2 2-2 2-2 2-4z" fill="#0d4b57"/><path d="M716 1131h4l-1 4h-5l-2-1 4-2v-1z" fill="#134b54"/><path d="m204 930 3 2v11l-2 1v-7l-1-7z" fill="#e9cca6"/><path d="M260 646h1v11l-3 1 2-12z" fill="#dde0d2"/><path d="m243 619 1 3-1 2-4-1-1-3 5-1z" fill="#efd7b7"/><path d="M153 574v6l-5 4 5-10z" fill="#e7cea9"/><path d="m360 512 4 1c-1 3-1 5-4 7v-8z" fill="#08303a"/><path d="M414 486c-3 3-4 3-8 3l-1-3h9z" fill="#d3cbb3"/><path d="m156 368 2 1-4 3-2 2-4 1v-3l3-1 5-3z" fill="#0c1f27"/><path d="M57 95v6l-1 2v2l-3-3 1-5 3-2z" fill="#d1c7b0"/><path d="M513 1109v5l-3 4h-2l1-4 2-2 2-3z" fill="#e3d0af"/><path d="m249 1068 3 3-4 1 1 6-2-1c0-6 0-6 2-9z" fill="#f2dfc5"/><path d="M307 654c1 4 0 5-1 9l-2-6 3-3z" fill="#0d4a56"/><path d="m665 250 4 3v8c-2-2-2-3-3-7l-1-2v-2z" fill="#e8cdac"/><path d="M598 133c0 4-2 6-4 9l-1-6 5-3z" fill="#e6cfad"/><path d="M148 1194c6 0 6 0 8 2l1 1-8-1-1-2z" fill="#11393f"/><path d="m782 1076 5 3-1 6c-3-3-3-5-4-9z" fill="#e3d1b3"/><path d="m579 914 1 2c-2 5-2 5-5 6l1-7 3-1z" fill="#e5d0ae"/><path d="m245 641 3 3v3h-8v-1l5-1v-4z" fill="#0a4c58"/><path d="m798 420 2 3-4 3-2-1c1-3 1-3 4-5z" fill="#e9cfac"/><path d="M477 418c4 1 5 3 7 7a57 57 0 0 1-7-4v-3z" fill="#09242a"/><path d="M905 26h2l3 6-1 3c-3-2-3-3-4-6v-3z" fill="#cecdcd"/></svg>