<svg viewBox="0 0 100 140" xmlns="http://www.w3.org/2000/svg">
  <rect x="2" y="2" width="96" height="136" rx="8" fill="white" stroke="#ccc" stroke-width="2"/>
  
  <!-- Elephant -->
  <g transform="translate(50,70)">
    <!-- Body -->
    <ellipse cx="0" cy="8" rx="18" ry="20" fill="#a9a9a9"/>
    
    <!-- Head -->
    <circle cx="0" cy="-12" r="12" fill="#a9a9a9"/>
    
    <!-- Trunk -->
    <path d="M 0,-2 Q -8,5 -12,15 Q -10,18 -8,15 Q -2,8 0,0" fill="#a9a9a9"/>
    
    <!-- Eyes -->
    <circle cx="-4" cy="-15" r="2" fill="black"/>
    <circle cx="4" cy="-15" r="2" fill="black"/>
    
    <!-- Ears -->
    <ellipse cx="-12" cy="-12" rx="8" ry="12" fill="#a9a9a9"/>
    <ellipse cx="12" cy="-12" rx="8" ry="12" fill="#a9a9a9"/>
    
    <!-- Tusks -->
    <ellipse cx="-3" cy="-5" rx="1" ry="4" fill="white"/>
    <ellipse cx="3" cy="-5" rx="1" ry="4" fill="white"/>
    
    <!-- Legs -->
    <ellipse cx="-10" cy="25" rx="4" ry="8" fill="#a9a9a9"/>
    <ellipse cx="10" cy="25" rx="4" ry="8" fill="#a9a9a9"/>
    <ellipse cx="-5" cy="25" rx="4" ry="8" fill="#a9a9a9"/>
    <ellipse cx="5" cy="25" rx="4" ry="8" fill="#a9a9a9"/>
    
    <!-- Tail -->
    <path d="M 15,15 Q 20,18 18,25 Q 16,22 15,20" fill="#a9a9a9"/>
  </g>
</svg>