<svg xmlns="http://www.w3.org/2000/svg" xml:space="preserve" x="0" y="0" version="1.1" viewBox="0 0 4100 6090"><path d="M4110 240v5090c-10 10-30 20-50 10-20-40-10-70-10-100V290c0-30 20-40 30-60 20-20 20-10 30 10" fill="#44321C" opacity="1"/><path d="M10 520V270C20 170 90 110 170 50c30-20 70-30 120-30h1730a15833750 15833750 0 00 1310 0h290c30 0 60-10 90 10v40c-10 20-30 20-50 20h-520l-30-10h-640l-90 10H380c-90 0-180 30-250 100L80 300c-30 30-30 70-20 120v10l10 20-10 10c0 40-20 70 10 100 10 90 20 180-10 270l-20 20c-30-10-20-30-20-50L10 520" fill="#352311" opacity="1"/><path d="M3620 20H2030L1030 30l-30-10H870l-20 10H390c-50 20-100 0-150 20C120 80 60 160 10 270V40c0-30 0-30 20-30h4040c40 0 40 10 40 50v180l-20-20c-40-30-50-80-100-100-30-30-50-50-90-60a430 430 0 00-80-20h-90l-20-10-90-10" fill="#47704C" opacity="1"/><path d="M10 5830V3180l10-30c40 20 20 60 30 100l-10 20 10 10 10 10-10 20a500 500 0 00 0 50v120c-30 50-10 100-10 150l10 10c-10 20-20 40-10 60l10 260v40l10 20c-20 40-20 70-10 100v30l-10 450 10 50c10 20 20 30 10 60v80a150 150 0 00 0 90l10 160-10 30v340c0 10-20 10-10 20l10 20v350c20 30 30 60 30 100l-40 20c-40-20-30-50-40-90" fill="#3C2F1D" opacity="1"/><path d="m30 3150-20 30V990h10c30 70 10 140 20 210l-10 70 10 40v1770l-10 70" fill="#47704C" opacity="1"/><path d="M3840 6100a944550 944550 0 01-3550-10c30-20 50-20 80-20h160a1000 1000 0 00 40 0h940a2780 2780 0 01 120 0h2110l90 10 10 20" fill="#F2E4CE" opacity="1"/><path d="M290 6090v10H40c-30 0-30 0-30-30v-240c10 20 10 60 40 80l20 30 40 50 10 10 20 10c40 40 90 60 140 70l10 10zm3550 10v-10l20-10c110-20 180-90 220-180l10-30h20v200c0 30-10 30-30 30h-240" fill="#47704C" opacity="1"/><path d="M4110 5390v410c-20 0-30-20-50-40-20-110-10-220 0-340 0-30 20-30 50-30zM10 520c20 30 10 60 10 90v180c0 20-10 40 20 50 20 20 10 50 10 80l-10 10H10V520" fill="#44321C" opacity="1"/><path d="M4070 5770c20 0 30 10 40 30v60c-30 10-40 0-50-30-10-20-10-40 10-60" fill="#3E2A13" opacity="1"/><path d="M4110 5390c-10 10-20 20-40 10-20-20-20-30 0-60l40-10v60" fill="#372715" opacity="1"/><path d="M4060 5830c10 20 20 30 50 30v10h-10c-10 20-10 60-50 30-20-30-10-50 10-70" fill="#5D4427" opacity="1"/><path d="M10 930h20c20 20 20 40 0 60H10v-60" fill="#3C2F1D" opacity="1"/><path d="m4070 5820-20 70c0 40-20 60-40 80-50 50-110 80-180 90l-30 10H1950a114560 114560 0 00-1170 0l-90-10h-30l-200 10c-70-10-130 10-190-10-60-10-100-40-140-70l-40-50-10-40-30-100V4660l-10-60v-400l-10-60 20-10c-20-30-10-60 0-100v-20c-20-40 0-90-10-130v-360l10-40v-20l-10-100v-40l10-30v-20l-10-30v-250A976270 976270 0 00 50 930V830a4950 4950 0 00 0-400c0-40-10-70 10-120C80 140 230 70 360 70h3350c20-20 40-10 60-10a320 320 0 01 230 80l10 10 10 10 40 70v40l10 110a672471110 672471110 0 00 0 4960v480" fill="#EFD09E" opacity="1"/><path d="m4060 270-10-30c0-20 10-30 40-20 0 20 0 40-30 50" fill="#1E0C01" opacity="1"/><path d="M1020 20h1000v10h-280l-670 10h-50V20" fill="#DEC7A3" opacity="1"/><path d="M2390 30" fill="#EBD8B8" opacity="1"/><path d="M390 30h60l270-10h50v10H390" fill="#DEC7A3" opacity="1"/><path d="M2390 20v10a19710 19710 0 01 0-10" fill="#F2E4CE" opacity="1"/><path d="M3780 70h-70V40l10-10h90c10 30-10 30-30 40zM60 310 50 430c-10-40-20-80 10-120" fill="#1E0C01" opacity="1"/><path d="M3340 30V20h220c-40 20-80 10-120 10h-100" fill="#F2E4CE" opacity="1"/><path d="m50 460 10 90c-10 0-20 20-20 0 0-30-10-60 10-90zm0 370 10 90c-10 10 0 30-20 10v-90l10-10" fill="#1E0C01" opacity="1"/><path d="M860 20h120l10 10-130 10V20zm-90 20V30l80-10v10l-80 10" fill="#EBD8B8" opacity="1"/><path d="M3720 30h-10l-90-10h100v10" fill="#F2E4CE" opacity="1"/><path d="M1790 30h70-70" fill="#1E0C01" opacity="1"/><path d="M1020 20v10l-30 10V20h30" fill="#EBD8B8" opacity="1"/><path d="M990 20v10l-10 10V20h10zM850 40V20h10v10l-10 10" fill="#DEC7A3" opacity="1"/><path d="m50 440 10 10-10-10zM1740 30h10-10zm1380 40h-10 10zm-60 0h-10 10zm-100 0h-10 10zm-120 0h-10 10zm-350 0h-10 10" fill="#1E0C01" opacity="1"/><path d="m4090 220-40 20-40-70-10-10c0-20-40-30-10-50 60 10 70 70 100 110" fill="#352311" opacity="1"/><path d="M3990 110c-20 20 20 30 10 50l-100-70V50c40 10 70 20 90 60" fill="#261305" opacity="1"/><path d="M3900 50v40l-120-20 30-40 90 20" fill="#352311" opacity="1"/><path d="M720 20c-50 20-110 10-170 10h-90c20-20 50-10 90-10h170" fill="#F2E4CE" opacity="1"/><path d="M3780 30c-10 30-30 30-50 0h50zm30 0h-10 10zm-90 0V20l10 10h-10" fill="#352311" opacity="1"/><path d="M30 4140c30 0 20 20 20 30v490c-20-10-20-20-20-40v-480zm20-450v320c-30-10-20-40-20-60v-260h20" fill="#281708" opacity="1"/><path d="M50 3570v70H40l-20-10c10-50-20-110 20-150l10 40v50" fill="#352311" opacity="1"/><path d="M50 3140v140H40v-10c-20-40 0-80-20-120l10-70c20-10 20 0 20 20v40zm0 890v90c-30-20-20-60 0-90" fill="#281708" opacity="1"/><path d="m80 5900 20 30c0 10-10 20-30 20s-20-20-20-40l30-10zm-30-610v100c-10-30-20-60 0-100" fill="#261305" opacity="1"/><path d="M50 3690H30c-20-10-10-30 10-40h10v40" fill="#352311" opacity="1"/><path d="M40 3360c20 20 0 50 10 90-30-10 0-30-10-60v-30zm10 1430v80H40l10-80" fill="#281708" opacity="1"/><path d="M50 5200v60-60zm0 560v40c-10-10-30-20 0-40zm0-310v50-50" fill="#261305" opacity="1"/><path d="M50 5080v30-30" fill="#1E0C01" opacity="1"/><path d="M50 4720v30-30" fill="#281708" opacity="1"/><path d="M50 5710v30-30" fill="#261305" opacity="1"/><path d="M50 3290v30-30" fill="#281708" opacity="1"/><path d="M50 5580v10-10" fill="#261305" opacity="1"/><path d="M50 5120v10-10" fill="#1E0C01" opacity="1"/><path d="M50 5520v10-10zm-30 140c0-10 0 0 0 0" fill="#261305" opacity="1"/><path d="M50 5060v10-10" fill="#1E0C01" opacity="1"/><path d="M50 5420v10-10" fill="#261305" opacity="1"/><path d="M40 4870h10v10l-10-10" fill="#1E0C01" opacity="1"/><path d="M40 3270v10-10zm0 110v10-10" fill="#352311" opacity="1"/><path d="M50 3650H40v-10h10v10" fill="#281708" opacity="1"/><path d="M50 3140c-10-20 10-40-20-60l-10-50 10-100v-120a1210 1210 0 00 0-190V1480l-10-40v-60c10-20 20-40 0-60V990c20-20 10-30 10-60h10c10 10 10 0 20-10v880L50 3140" fill="#352311" opacity="1"/><path d="M30 2930c40 30 0 70 0 100v-100zM20 1210c30 20 20 40 10 70l-10-70zm0 110c30 20 20 40 10 60l-10-60zm10 1350v50-50zm0-1170v40-40zm-10-60c20 10 20 20 10 40l-10-40zm10 1180v20-20zm0-160v10-10zm0-890v10-10zm0 60v10-10zm0 1180v10-10zm0 20v10-10" fill="#3C2F1D" opacity="1"/><path d="M2340 6050a13570 13570 0 01 340 0 179340 179340 0 01 1130 0h20c90-20 170-60 210-150 40 20 40-10 60-30-20 110-140 230-260 220h-100a160470 160470 0 01-1920 0h-530l-400-10c-20 0-40 10-60-10v-10a57810 57810 0 01 1270-10h240zm-1660 0h100c10 30 0 30-30 40H450v-40a3500 3500 0 01 230 0" fill="#372715" opacity="1"/><path d="M450 6050v30l-20 10H280c-10-10-60 0-30-50l200 10" fill="#1E0C01" opacity="1"/><path d="M750 6090c10-10 30-20 30-40h30l20 10c10 20 40 20 60 20l400 10H750zm-190 0c50-20 110-10 170 0H560zm810 0c20-20 50-10 80 0h-80zm340 0h60-60zm-140 0h60-60zm-1190 0h50-50zm1120 0h10-10" fill="#2B1A0B" opacity="1"/><path d="M3740 6090h10-10" fill="#2C1E10" opacity="1"/><path d="M530 6090h10-10zm-40 0h10-10zm1320 0h10-10zm-1560-50c-10 30 20 30 30 40-60 0-110-20-150-60l-20-10c-10-20 0-30 20-40 30 30 70 50 120 70" fill="#2B1A0B" opacity="1"/><path d="m130 5970-20 40c-20-10-30-30-40-60 0-10 10-20 30-20l30 40zm-20 40 20 10-20-10" fill="#372715" opacity="1"/><path d="M570 5860H460l-30-10c-80-30-140-90-170-180l-10-20v-30l-10-700V1810l10-480-10-120V600c20-60 10-110 30-160 10-50 30-80 70-110l20-10 30-20 40-20 30-10h2410c60 20 110 20 160 10h100l10 40c-50 30-100 10-150 20h-900c-70 30-150 10-220 20h-680c-40-10-60-20-100-10H590c-20 10-40 20-40 40-40 80-100 150-200 180l-10 10v90l-10 60v90l10 160v1090l-10 150v2160l10 50a330 330 0 01 0 40v1030c0 20 0 40 20 50 100 40 160 110 200 210 30 30 70 20 100 20 60 10 120 10 170-10h110c70 30 140 10 200 10h420l860 10h20c20 0 40 10 40 30s-20 30-40 40H570" fill="#C8722D" opacity="1"/><path d="M3880 490v20l10 40a780 780 0 01 0 110v40l-10 10c20 30 0 60 0 90l10 30v240l-10 10 10 100v120l-10 10v820l10 60v810l-10 770-10 190v40c0 20-20 30-40 30l-20-30V650l-10-70c0-40 10-70 30-100 10-30 30-30 50 10zm-160 5350-40 10-60 10H2570c-20 0-40-20-40-40s20-30 40-30h40l600-20h30c10 0 10 20 20 0h300l40-50c20-50 40-90 80-120l80-40 40-30 10-70V4370c0-30-10-70 30-90 40 20 30 60 30 100v890l10 340c-10 110-60 180-150 230h-10" fill="#C9722D" opacity="1"/><path d="M240 590v10l10 340v3390l-10 400 10 750v170c-20-20-10-30-10-50v-280c-20-1530 0-3070-10-4610 0-40-20-80 10-120" fill="#FBD6A2" opacity="1"/><path d="m3230 5780-30 10-600 10c-20 0-60-20-60 20s40 30 60 30h950l70 10H2380l50-10c20 0 40-10 40-30 0-30-30-20-40-20h-520l-380-10-510 10c-20 0-50 0-80-20 20-20 50-10 80-10h1110l70-10h50l70 10h830c30 0 50-10 80 10" fill="#B56F2F" opacity="1"/><path d="M3130 320v-30c30-30 70-20 110-20l230-10c100-20 190 0 280 40 50 70 20 180-80 190-50-20-60-50-70-90-20-30-50-60-100-60h-360l-10-20" fill="#CA722D" opacity="1"/><path d="m3470 260-10 10h-170l-160 20c-20-20-50-20-80-10-60 30-130 40-190 0-30-20-50 0-80 0h-510L650 270H480l50-10h2940" fill="#BD7434" opacity="1"/><path d="M3800 570c30 10 20 30 20 50v3340c10 20-10 50 20 50 30 10 30-30 30-60a4190 4190 0 01 10 170l-20 20v10l-30 40h-20l-20-40v-110a400 400 0 01 0-40v-560l10-50-10-40V810c0-80-10-160 10-240" fill="#A56528" opacity="1"/><path d="M2380 5860a772270 772270 0 01 1180 0c-10 20-30 10-50 10H630l-70-10h1820" fill="#FDCF97" opacity="1"/><path d="M3660 480c90-30 110-50 90-180 80 40 110 110 130 190-30-20-50-20-50 20l-20 50c-60 10-120-20-150-80" fill="#BE6C2A" opacity="1"/><path d="M3850 4150c10-10-20-50 30-30a95050 95050 0 01 0 1490c-20-10-10-30-10-50V4460c0-60 0-120-30-180-30-30-30-60-10-100 0-10 0-20 20-30" fill="#AC6A2D" opacity="1"/><path d="m3880 2130-10-40v-760l10-30 10 90v50l-10 690" fill="#C16B28" opacity="1"/><path d="M3610 5860h10l60-10c-20 30-40 20-70 10" fill="#FDCF97" opacity="1"/><path d="M3890 1380c-20-20-10-40-10-80h10v80" fill="#BE6C2A" opacity="1"/><path d="M2340 6050c-20 20-50 10-80 0h80" fill="#1E0C01" opacity="1"/><path d="M3890 550c-30 0-10-20-10-40l10 40" fill="#BE6C2A" opacity="1"/><path d="M430 280c0 20-20 20-40 20l40-20" fill="#BD7434" opacity="1"/><path d="M480 5860h50c-20 10-30 20-50 0" fill="#FDCF97" opacity="1"/><path d="M2150 6050h-50 50" fill="#1E0C01" opacity="1"/><path d="M390 300c0 10-10 20-30 20 0-10 10-20 30-20" fill="#BD7434" opacity="1"/><path d="M3890 1230v-50 50" fill="#BE6C2A" opacity="1"/><path d="m3820 6050 20 10-30-10h10" fill="#1E0C01" opacity="1"/><path d="M50 3570v-30 30" fill="#281708" opacity="1"/><path d="M680 6050h-20 20" fill="#1E0C01" opacity="1"/><path d="M3890 650v-20 20" fill="#BE6C2A" opacity="1"/><path d="M1970 6050h-20 20zm-1140 10-20-10h20v10zm1850-10h-20 20" fill="#1E0C01" opacity="1"/><path d="M3720 5840h10-10" fill="#FDCF97" opacity="1"/><path d="M50 3530v-10 10" fill="#281708" opacity="1"/><path d="M50 3270v-10 10" fill="#352311" opacity="1"/><path d="M3660 480c30 50 90 60 150 80v250c-30 20-30 60-30 90s10 60-30 70c-20-30-20-50-20-80V670c0-30-10-60-40-70-60-30-110-70-140-130-20-40-50-50-100-50H730l-80-10c-10-50 20-40 40-40h300c20 0 40 0 50-20l20-10h110l920-10h170a4780 4780 0 01 290 0h200c20 20 50 30 80 30h490c-30-10-70 10-90-30h270c50 0 90 10 100 60l60 90" fill="#F2CC96" opacity="1"/><path d="m2210 5770-910 10H830c-90 20-170 10-260 0-50-30-50-90-90-120-30-40-70-80-120-90-30 0-40-20-40-50V4470c10-10 20 0 30 20-20-50 10-90 10-130l-10-800 10-1200v-40l20-10c30 30 20 60 20 100v3010c0 50 10 80 50 100 70 30 110 90 150 150 10 30 40 40 70 40 70 0 140-10 210 10 30 30 70 30 100 30h1120c40 0 80 0 110 20" fill="#F3C68E" opacity="1"/><path d="M370 2300v1130c0 380 10 750-10 1130-30-30-10-70-30-90l-10-20v-50l10-60V2230l-10-160v-360a13220 13220 0 00 0-400V820l10-70c10-20 10-30 30-10v30l20 280-10 1250" fill="#EDD0A1" opacity="1"/><path d="m370 2310-10-70V1010l-10-250c0-40-10 0-20 0h-10v-90a1520 1520 0 01 10-110l20-20c90-10 140-80 180-160l30-40h490c0 40-10 50-50 50l-360 10c-40 20-60 60-80 90-40 60-100 100-170 120l-10-10v10l10 30v270c20 90 10 190 0 290v30l10 70v930c0 20 0 50-20 80h-10" fill="#F9DAA9" opacity="1"/><path d="M240 4740V610c20 90 20 190 10 290v470c-10 60 10 110 10 160 10 100-10 190-10 280l10 230c-20 580-10 1160-10 1740l10 300-10 230 10 180-20 250" fill="#B87130" opacity="1"/><path d="M330 2220c20 50 10 110 10 170v760c0 110-20 230-10 340 20 190 10 390 10 580v280c0 10 10 30-10 50l-10-510a994420 994420 0 01 10-1670" fill="#F3C68E" opacity="1"/><path d="m320 1340 10 30a372900 372900 0 01-10-30" fill="#FED6A0" opacity="1"/><path d="M1050 340a65540 65540 0 01 20 0h-20" fill="#B07741" opacity="1"/><path d="M2520 330a18180 18180 0 01-410-10l410 10" fill="#BD7434" opacity="1"/><path d="M560 5780h270c-90 30-180 20-270 0" fill="#B87130" opacity="1"/><path d="M2100 5860h-270c80-20 170-10 270 0zm270 0h-250c70-20 160-10 250 0" fill="#B87436" opacity="1"/><path d="M2840 330h210c-10 30-30 20-60 30-70 0-130 10-200-20 10-20 30-10 50-10" fill="#F2CC96" opacity="1"/><path d="M320 990" fill="#FED6A0" opacity="1"/><path d="M2840 330h-50l-40 10-90-10c60-20 120-10 180 0zm210 10-70-10c50-20 90-10 150-10v10l-30 10h-50" fill="#BD7434" opacity="1"/><path d="M330 2220h-10v-140c20 40 10 80 10 140" fill="#FED6A0" opacity="1"/><path d="M1170 340h-70c10-20 40-10 70 0" fill="#B07741" opacity="1"/><path d="M320 670c20 20 10 40 0 70v-70zm0 570c20 20 10 40 0 70v-70zm0-480h10l-10 60v-60" fill="#FED6A0" opacity="1"/><path d="M2610 330h-60c20-20 40-10 60 0zm340 0h-30 30zm-50 0h-10 10" fill="#BD7434" opacity="1"/><path d="M320 4440v10-10" fill="#F3C68E" opacity="1"/><path d="M3750 970c20-40 10-80 10-120 0-30 10-40 40-40l10 50v3330c10 40 20 80 10 130l-10 30v1170c0 30-20 30-40 50l-70 30h-40c-10-20 0-30 10-50 60-40 70-100 60-170v-200l10-70V3160a1200 1200 0 00 0-270v-650a1500 1500 0 00 0-170v-60a23390 23390 0 00 10-1040" fill="#EED1A0" opacity="1"/><path d="M3680 5560c0 10-40 30 10 40-40 60-80 110-110 180h-260l-40-10-30-10v-20l40-20 160-10c50 0 80-10 100-50l70-90c10-10 30-20 60-10" fill="#FAD9A8" opacity="1"/><path d="m3310 5770 20 10h-100a501080 501080 0 01-980 0c0-30 30-30 40-20l200-10h430c80 20 150-10 220-10l110 20h30l30 10" fill="#F3C68E" opacity="1"/><path d="M3810 4330v-140l20-10c10 30-10 60 10 100-20 40-20 80-20 120a485170 485170 0 01-10-60v-10" fill="#A26327" opacity="1"/><path d="M3280 5780h290c-40 20-80 10-130 10l-160-10" fill="#B56F2F" opacity="1"/><path d="M3810 5530v20l-40 20c0-20 20-30 40-40" fill="#F2CC96" opacity="1"/><path d="M3250 5780h10-10" fill="#B56F2F" opacity="1"/><path d="M3250 5760c-30 20-50 0-80 0l-180 10h-280l-230-10-230 20h-40c-20-20-40-10-60-10H1000l-140-10c0-30 20-20 30-30l30-10a1960 1960 0 00 390 0h130l180-10c50 20 90 20 140 10l120-10c30 10 70 20 100 10h300l90 10h810c30 0 50-10 80 10l-10 20" fill="#EDD0A1" opacity="1"/><path d="M3510 330h-270l-20 10c-20 0-50 10-70-10 40-20 70-10 110-10l250 10" fill="#BD7434" opacity="1"/><path d="M3150 330h70c-30 40-70 40-120 10l30-10h20zm660 3360c-20-60-10-130 0-210v210zm0-260c-30-10-30-30-10-50l10 50zm0-140v-60 60zm0 60v-40 40zm0 800v-30 30zm0-150v-30 30zm0-3110v-30 30zm0 3000v-30 30zm0 140v-10 10zm0-100v-10 10" fill="#F2CC96" opacity="1"/><path d="M3870 4180h-10c-10 0-10 0 0 0h10zm-20 40c10 0 10 0 0 0" fill="#A26327" opacity="1"/><path d="M2290 5730H640c-20 0-40-10-50-30-40-80-100-150-180-180-30-10-30-40-30-60V600c90-30 170-90 200-180 10-20 30-20 60-20h2850c30 0 50 10 70 40 30 70 80 130 160 150 30 10 30 30 30 50v4840c0 50-40 50-70 70-50 30-90 70-110 120-20 40-50 60-110 60H2290" fill="#CA712B" opacity="1"/><path d="M3100 330c40 20 80 10 120 0h10c30 20 60 10 90 10 20 0 40-10 50 20 0 20-30 20-50 20h-330v-40l60-10h50" fill="#EDD0A1" opacity="1"/><path d="M2990 340v40h-200c-30 0-40-10-40-40l40-10c60 20 130 10 200 10" fill="#F9DAA9" opacity="1"/><path d="m360 5270 10 10-10 40-20-20c0-10-10-40 20-30zm-10-670c10 10 20 30 10 40 0 0 0 10 0 0-20 0-20-20-20-40h10zm10 840c10 0 0 0 0 0" fill="#E7C692" opacity="1"/><path d="M350 4600h-10 10" fill="#EDD0A1" opacity="1"/><path d="M380 890v10-10zm0-250v10-10zm0 570v10-10zm0-610v10-10" fill="#F3C68E" opacity="1"/><path d="m3750 5170-10-40a11295160 11295160 0 01 10-3670v3710" fill="#B36F2F" opacity="1"/><path d="M3750 2020V1000l10 30a1373250 1373250 0 01-10 990zm0 460v-390c20 10 10 30 10 50l-10 340zm0 410v-380c20 20 10 50 10 80l-10 300zm0 280v-240c20 70 10 150 0 240zm0 80v-60 60zm0 90v-20c10 0 20 10 0 20zm0 40v-20c10 0 20 10 0 20zm60 2100v20-20zm-60-2200v-10 10zm0-1220v-10 10zm60 2270v10-10" fill="#F2CC96" opacity="1"/><path d="M2280 5730a109590 109590 0 01 980 10h-920l-60-10" fill="#FED6A0" opacity="1"/><path d="M920 5730h360c-30 20-50 10-80 10l-280-10zm390 0h130c-40 20-80 10-130 0zm320 0h130c-40 20-80 10-130 0zm260 0h100c-30 20-60 10-100 0zm270 0h70c-20 20-40 10-70 0zm-140 0h70c-20 20-40 10-70 0" fill="#F3C68E" opacity="1"/><path d="M1350 2150c-50-60-60-80-30-130l30-30c30-20 20-30-10-50 10-50 60-110 110-110 50 10 80-10 100-50l50-90c10-20 30-50 60-60 40-10 30-60 50-80s20-40 10-70v-20c10-30 10-50 40-70l40-40c20 10 60-10 80 10 10 60-10 110-50 150-30 30-30 60-10 90 110 150 230 270 430 280 120 10 230-20 320-110 40-40 90-80 150-100 0 20 0 40 40 40l80 130c-30 0-50 20-30 50l10 30c-50 20-50 100-130 90-20 0-20 30-30 40-50 20-60 60-40 110v50h-30c-60-50-130-50-190-70-90-20-170 10-250 50l-110 80c-50 20-110 10-160 20h-10c-30 0-60-10-80 20l-10 10c-50 0-90-10-130 30-20 10-50 10-70-10s-10-40-10-60c10-40 10-90-10-130l-10-10c-10-50-50-30-90-30a990 990 0 00-30 10l-40 10-20 20h-20" fill="#C46B28" opacity="1"/><path d="M2760 3900c-20-10-30 10-40 20-30 70 0 140 70 160l20 10c-20 30-50 30-70 30-100-20-200-10-300 0-40 10-70 0-110-30-50-40-100-70-170-50l-30-10 20-40c10-30 10-40-20-40-10 0-20-10-10-20 10-20 10-20-10-30-30-10-10-30-10-50 10-20 30-10 40 0 0 10 10 20 30 20 20-10 0-30 0-40 0-20-10-60 20-70h10c-30-90 90-140 40-230l-20 20c-10 20-20 20-30 20l-20-20c0-10 0-20 20-30 20-20 60-20 70-60v-30c-10-20-30-10-40 0-40 20-60 10-60-20l10-30c20-10 30-10 30-40l-40-20-20-10c10-30 30-30 50-40 40 0 70-10 100-30 60-20 110-60 120-120 30-80 60-130 150-160l50-30c20-10 40-30 60-20 50 20 100 10 160 10 0 30-20 40-50 40-40-10-30 0-10 30 20 20 0 60 40 80 10 30-10 40-20 50-80 50-140 110-170 200-10 20-30 20-50 20-80 0-140 30-170 100-40 110 20 230 140 230 50 10 90 20 120 80 10 40 40 70 70 90 20 20 40 30 30 60" fill="#C76F2B" opacity="1"/><path d="M2130 4030c90-30 170-10 230 60 20 30 50 20 80 20 70-20 150-20 220-20 50 0 90 20 150 10h20c20 10 40 0 60 20 30 20 60 20 80-20 50-70 100-90 180-70 50 10 80 30 100 70 30 80 30 190-40 250-20 10-20 30-10 60 40 100 60 200 60 310 0 120-40 210-130 290-100 90-210 140-330 170-100 20-200 10-300 0-10-30 10-40 30-60h10l60 10 60-20h10l20 10h40l120-20 30-20h20l70-30c60-30 60-30 50-90v-30c20-10 40 0 60 10 10 0 20 10 30-10l10-10 10-20c0-40 30-50 40-70 20-60 20-60-40-60-30 0-60 0-90-20-10-10-30-30-20-50 0-20 20-20 40-30l90-10c30-10 50-20 40-50-10-40-30-30-50-30h-90c-30-50 0-70 30-90l20-10 20-10c40 0 40-20 20-50l-20-20-20-70c20-20 50-20 60-40 50-40 70-100 30-160-10-20-40-40-70-40-40 0-80 10-110 50l-30 60c-30 20-50 0-70 0-20-10-40 0-50 30 0 0 0-10 0 0-10 30 0 70-40 70-50 0-40-40-50-70l-10-40c-10-20-10-40-30-10 0 50-20 100-40 150 0 30-20 50-50 40-30 0-30-30-40-50l-10-100c-10-30 10-60-30-60h-10a110 110 0 00-10 20l-10 20a1100 1100 0 01-10 40c0 30-10 50-40 50-20 0-40-20-40-40 0-70-50-60-100-60-30-20-30-50-50-70-30-30-60-60-100-50s-80 40-90 90c-10 40-10 90 30 120l50 40c10 30 0 60-10 80-20 40-10 70 30 90l50 50c10 10 20 20 10 30 0 20-20 20-30 20h-80c-30-10-40 10-40 40-10 30 10 30 30 40l80 10 40 30-20 50-90 30c-10 0-40-10-40 20 10 30 30 30 50 30l60-10c20 0 40 0 40 20 10 20-10 30-20 40l-60 30 10 20h20l20-20 30 10 10 20-10 40-10 20 70 40 70 30 80 40 10 60c-170-30-410-190-440-370-20-90 0-170 20-260 20-60 20-120 50-170 20-20 0-30-10-50-70-70-90-130-50-210l40-60 30-30h10" fill="#402810" opacity="1"/><path d="M2160 3610c-40 0-70-10-100 30-10 10-30-10-60-10l-30-50c-10-40 10-70-20-100s-50-40-90-50h-110l-20-20c-20-100-100-150-170-200-10-10-30-10-30-30 40-30 0-30-20-40-30 0-60-10-40-50 10-20 0-30-20-30-10 0-30-10-30-30l30-30c20 0 20-20 20-40 0-30 50-40 50-80l10-20c30 0 60-10 60-50l10-20c30-10 50-40 30-80 0-10-10-40 20-40 20-10 30 10 40 20 20 50 30 90 80 110l10 10 10 10 10 10 20 20 10 10c10 50 40 70 90 80h40l30-10c70-30 140 20 150 80 10 30 0 50-30 60l-30 10c-30 20-60 40-60 80 0 50 10 90 60 110l40 30c0 20 10 40-10 40-20 10-20-10-30-20-30-30-40-30-60 10l-10 30c-40 40-10 50 30 60v-70h20l20 30-10 30c-10 20-10 40 30 30h40l20 40c0 10-10 30-30 20-20 0-40 0-40 30 0 20 20 40 40 40s30 10 30 40" fill="#C76F2B" opacity="1"/><path d="M2760 3900c-30-40-80-70-100-120l-20-20c-10-70-50-70-110-70-120 0-190-160-150-250 50-90 130-120 200-110 20 0 30 0 30-20 20-80 80-140 150-190 20-10 40-20 50-50h10l60-20c30 0 60-30 100-30 10-20 40-20 60-30 30-10 30-30 50-50 10-20 30-50 60-40 20 10 40 40 30 70-20 50 10 60 50 70 110 40 200 120 250 240 10 30 10 50 60 40 70-20 160 60 160 140 10 100-20 180-120 230l-70 10c-30 0-40 10-50 30-70 170-270 250-440 230l-80-10-50-10-40-20h-10l-20-10h-20l-40-10" fill="#3E260E" opacity="1"/><path d="M2120 3300c-60-10-110-30-120-110 0-60 10-100 70-120s70-50 60-80c-20-40-100-60-140-50l-50 10c-60-10-90-40-120-90l-30-30-10-10c-30-10-50-40-60-60-40-80-100-140-90-240 10-70 40-120 80-180 20-20 40-10 70-30 20-30 50-20 80-30h120c10 0 30 0 50-20 70-50 140-110 230-130 130-20 250 0 360 80 30 50 70 70 140 60 150-20 250 60 300 210 20 40 10 90 0 140-20 90-80 160-150 240-20 20-40 50-80 60-50 20-100 30-150 10-20-10-40 0-60 10-40 20-70 50-120 60-30 10-50 50-50 80-40 150-140 200-270 210l-40 10h-20" fill="#3B250E" opacity="1"/><path d="M1800 1340c-20 20 0 50-30 60-30 0-40 30-40 60v90c-20 10-20 30-20 50-10 30-20 50-60 50-20 0-20 20-20 30l-70 110c-20 50-60 80-120 60-10-10-20 0-30 10l-70 80c-30 10-60 30-90 10-20-10-40 0-50 20-60 40-90 40-150 0-20-20-40-30-70-20-50 20-90-10-120-50-10-20-30-30-60-30-70-20-120-60-150-130-20-40-20-90-90-90-20 0-30-30-30-50l-20-150c0-20 0-40-30-40s-30-20-30-40c-10-70 0-140 50-190 20-30 50-50 10-80-20-20-10-50 0-70 20-70 80-110 120-160l30-30c20-60 50-90 120-90h50c20 0 40 0 30-30 0-30 20-40 40-40 70-10 130 20 180 60 20 10 30 20 60 0 30-30 80-40 120-60 30-10 60 0 90 30l40 40 130 10 10 10 10 10 10 10c40 80 130 120 170 200 20 50 40 90 0 130-20 30 10 40 20 50 40 50 60 110 60 170" fill="#3F260D" opacity="1"/><path d="M2840 1840c-30-40-70-70-80-130 10-40 10-90 50-120l10-50c-10-80 20-160 70-230l10-10v-50l-10-10c-30-80-80-150-90-230-20-100-30-190 10-290 20-60 80-80 130-50 70 50 110 130 140 200 40 90 60 180 50 280 0 20 0 50 40 40 20-10 60 0 60-50 0-80 0-160 30-240 30-90 70-160 140-220 50-30 110-20 140 30l20 50 10 30v130c-10 110-50 210-100 300-20 30-30 60 0 90 40 60 70 120 70 200 0 50 10 90 40 130 30 50 20 110-20 160-70 90-170 140-280 150-80 10-150 20-220 0-80-20-160-40-220-110" fill="#3D250E" opacity="1"/><path d="m1740 3400 10 20c30 20 50 0 80 0 90 10 130 40 140 140l10 30v30c-10 40 0 90-50 120l-10 10-10 10-10 10-10 10c-50 0-80 30-90 80-10 100-100 160-190 180-130 30-250 20-380 20-60 0-130-10-190-40-70-30-120-80-130-160 0-20-10-40-40-40-70 0-110-50-140-120v-120l10-20v-10l10-20 10-10c40-40 90-70 150-40l20-10a2960 2960 0 01 70-140l30-30c30-60 90-80 150-110l20-10h20c50-20 100-20 150-20 60 10 120 10 170 40 80 50 160 100 200 200" fill="#3F260E" opacity="1"/><path d="M1540 5080c-20 40-60 60-100 70-120 40-230 90-360 80-110-10-210-30-310-90-40-30-100-50-130-90-50-50-80-110-90-180-20-130-10-250 50-370 10-20 0-50-20-60-90-80-60-220 60-280l30-10h90c30 10 60 20 80 50l20 20c20 10 30 20 60 10h330c40 0 70 30 110 0 40-50 90-80 160-80 60 0 100 20 140 60 40 60 50 160 0 210-30 40-40 80-20 130 30 60 40 130 40 210 0 50 10 100-10 160l-40 10c-20-20-10-40-10-60 20-110-10-230-40-340l-10-20-10-20v-30l30-40 10-10h10l10-20 10-20v-50c0-60-20-90-70-110-50-10-90 0-130 40-20 20-20 40-50 60h-20c-60-20-120-10-190-20h-130c-60 10-120 20-190 10h-10l-20-20a190 190 0 00-60-60l-10-10-40-10c-40 0-70 20-100 50-20 50-20 90-10 130a280 280 0 00 20 30c50 50 50 90 20 150-30 80-30 160-30 250-10 140 80 250 210 300 240 90 470 80 690-70l40-10c20 0 20 20 10 40l-20 10" fill="#3E250D" opacity="1"/><path d="m1540 2870-10 10c-20 30-30 60-80 60l-20-30 40-50 80-90c10-20 30-40 20-80l-10-30c-10-110-70-180-150-240-20-20-50-40-30-70 30-20 50-20 70 0 20 10 30 40 50 30s20-40 20-60a250 250 0 00 0-100c-20-70-50-80-110-40-30 30-60 30-90 70-30 20-50 40-100 30l-30-10h-130l-110 20-50-20c-40-60-90-90-160-110l-60-10-30-30c30-30 60-30 100-10 60 20 130 40 170 100l60 10c80-10 160-20 250 0 30 10 40-10 60-30l60-40 20-10 10-20a3910 3910 0 00 60-20h10c40 0 90-30 110 40 30 40 20 90 20 140-10 50 10 110-10 170-10 20 0 30 10 50 40 70 70 140 60 220 0 30-20 50-40 80-10 20-10 60-60 70" fill="#3D260E" opacity="1"/><path d="M2720 1670c-80 60-150 140-240 190-80 40-160 40-230 40-150-10-260-80-350-180l-110-130c-10-30-10-70 20-80 40-10 40-40 50-70l30-80c50-50 20-100 0-150v-70c0-20 10-30 30-10l10 20 10 20v10l20 30c20 40 20 80 0 120-40 70-60 150-80 230-20 10-30 20-10 30 100 140 230 240 410 240 110 10 190-30 270-90l130-130c20-20 20-40 0-60l-10-50c10-20 10-40 40-40l10 20 20 20 10 10 20 50c0 40-30 70-50 110" fill="#3D250E" opacity="1"/><path d="M650 2120c10 0 20 0 30 20-20 80-30 160-10 240 40 40 30 70 10 110l-70 130-10 70c20 70 40 130 110 160 100 80 200 130 330 120l150 10c60 0 100-30 160-30 20 10 20 20 10 40l-20 10-20 10-20 10-120 20h-20l-70 10c-60 0-120 10-180-20l-50-20h-20c-10 0-30 0-40-20l-60-30-10-10-10-10c-20-10-50-10-60-40l-10-10-20-10-80-100c-20-40-30-70-20-110 20-50 30-100 70-150 30-40 30-80 20-130-30-90-20-180 30-270" fill="#3C260F" opacity="1"/><path d="m1920 1150-20-20-10 20v50c-20-90-20-190 0-290 10-30 40-40 70-20 80 40 170 80 220 160 10 30 20 30 50 30h50c60 20 100 0 130-50 50-60 120-110 200-140 40-20 80-10 80 30 0 90 30 180-10 270l-10 50-10 20v10l-10 10v50h-20l-10-10-10-30v-40c30-90 30-170 20-260-10-50-30-50-70-20-50 40-100 80-130 130-20 30-40 40-70 40-50-10-90 10-140 10h-60l-10-10c-30-90-90-130-160-170-40-20-50-20-50 30-10 50 10 100-20 150" fill="#41260D" opacity="1"/><path d="m1740 3400-100-120c-50-40-110-90-170-100-80-10-160-20-250 0 20-40 50-10 90-20h50c60-10 110 0 170 20 80 40 140 100 200 160 20 20 0 40 10 60" fill="#C7722E" opacity="1"/><path d="M1360 4230c-10 40-40 20-60 20-90-20-180-20-270-20l-140 10c-10 0-20 0-30-20 40 20 70 0 110 0h270c40 0 70 40 120 10" fill="#BA7B3E" opacity="1"/><path d="m1560 5070-10-40v-20l10-20 10-10 40-50v-10h50c-30 50-50 110-100 150" fill="#41260D" opacity="1"/><path d="M2100 3700c40-20 60-20 60 30 0 10 10 30-10 40l-50-10c-20-10 0-30 0-40v-20" fill="#C76F2B" opacity="1"/><path d="M1180 3190c-40 50-110 60-150 110l10-30c-10-40 10-50 50-50 30 10 50-40 90-30" fill="#C7722E" opacity="1"/><path d="m2630 1340 20-30c30 40 40 100 60 150-20 0-20 20-20 40l-20-10-40-150" fill="#4B290A" opacity="1"/><path d="m910 3030 180 20h60c-70 20-140 10-210 10l-30-30zm540-90 80-60c10 50-30 60-60 80h-30c-10-10 0-20 10-20" fill="#C27230" opacity="1"/><path d="m1520 760-140-10c-20 0-30-10-30-40l60 30c40-10 70 10 110 20" fill="#BC8449" opacity="1"/><path d="M1930 3740c30-30 30-70 40-120l20 10-10 30c0 30 10 70-50 80" fill="#C7722E" opacity="1"/><path d="M1270 3020c-30 40-50 60-100 30v-10l100-20" fill="#C27230" opacity="1"/><path d="m1450 2940-10 20h-20l-10 10h-40v-20c10-40 30-50 70-40l10 30" fill="#3C260F" opacity="1"/><path d="M1360 3160h-50c0-30 10-50 40-50 30 10 10 30 10 50" fill="#C76F2B" opacity="1"/><path d="m2530 5130-30 50h-20c0-20-20-30-10-50l40-10 20 10" fill="#281708" opacity="1"/><path d="M1270 3030c-30-20-60 10-100 10 20-30 60-20 90-30h50c0 20-20 10-30 20h-10" fill="#3D260E" opacity="1"/><path d="M2830 2920c20-30 50-40 80-60-10 40-30 60-80 60zm150 100c-30 10-60 30-100 30 30-20 60-30 100-30" fill="#C76F2B" opacity="1"/><path d="m800 2990 40 20c0 10-10 20-30 20l-10-40" fill="#C27230" opacity="1"/><path d="M3570 930V790c20 40 10 90 0 140" fill="#BC8449" opacity="1"/><path d="M3040 2990c-10 20-30 20-60 30 0-40 30-30 60-30zm-880 620c10 0 30-10 40 10l-10 20c-20 0-30-10-30-30" fill="#C76F2B" opacity="1"/><path d="m660 2900 60 40c-20 0-60 10-60-40" fill="#C27230" opacity="1"/><path d="M730 3590v110c-20-30-10-70 0-110zm40 560h-90c30-30 60-10 90 0" fill="#BF8144" opacity="1"/><path d="m740 2960 60 30c-20 0-50 0-60-30" fill="#C27230" opacity="1"/><path d="M2880 3050c-20 10-30 30-60 20 10-20 30-20 60-20" fill="#C76F2B" opacity="1"/><path d="m1370 2940 10 30v20h-40l20-40 10-10" fill="#3D260E" opacity="1"/><path d="M2890 3940h40c-10 30-30 40-40 0zm0 170-60-10c20 0 40-10 60 10zm-130-210 40 10c-10 10-30 20-40-10" fill="#C76F2B" opacity="1"/><path d="m1280 3030 30-20h20c0 40-30 10-50 20zm-420-20c20 0 30 0 50 20-20 0-30 0-50-20" fill="#C27230" opacity="1"/><path d="M1170 3040v10h-80c20-20 50-10 80-10" fill="#3D260E" opacity="1"/><path d="M2120 4030c-10 10-10 20-30 20 0-10-10-30 30-20" fill="#C76F2B" opacity="1"/><path d="M2900 1250c30 10 20 30 0 50v-50" fill="#B07741" opacity="1"/><path d="M1140 3150c10-10 20 0 20 10l-10 10c-10-10-20-10-10-20" fill="#C7722E" opacity="1"/><path d="m2770 1560-20-50c20 10 20 20 20 50" fill="#4B290A" opacity="1"/><path d="M1980 3660v-30h20c0 10 0 20-20 30zm870 260 40 20c-10 0-30 0-40-20" fill="#C76F2B" opacity="1"/><path d="m1030 3300-30 30c0-20 0-30 30-30" fill="#C7722E" opacity="1"/><path d="M1340 2990h30l-40 20v-10l10-10zm40 0v-10l10-10h20c0 20-10 20-30 20zm10 30h10c10 0 10 0 0 0h-10" fill="#C27230" opacity="1"/><path d="M860 4220c-10 0-20 0-20-20 10 0 20 0 20 20" fill="#BA7B3E" opacity="1"/><path d="m1200 3180-20 10c0-10 0-20 20-10" fill="#C7722E" opacity="1"/><path d="M1410 2970h-20l30-10v10h-10" fill="#3D260E" opacity="1"/><path d="M2740 1500c-10 0-20 0-20-20l20 20" fill="#4B290A" opacity="1"/><path d="M1420 2970v-10h10l-10 10zm-50 60c0-10 0 0 0 0zm230-230c60-110 20-210-40-300-10-30-20-50-10-80 30-90 20-180 10-280 40 20 30 60 30 90 0 20 0 30 30 30-30 10-50 20-40 50 0 20 10 30 30 30 30 0 60 0 70-30 10-40 30-40 50-10 10 20 30 20 50 10-50 30-90 80-110 140-30 70-30 130 0 190 20 70 60 120 110 180-50 0-60-50-90-80l-10-20c-10-20-10-50-30-40s0 30 0 50c20 40 10 50-50 70zm430-540c-10 30-30 30-50 30l-110-10c0-20 10-20 20-10l140-10zm-470-120c-20-40-60-50-110-40 70-20 100-10 110 40zm300 140-80 30c10-50 50-30 80-30" fill="#C27230" opacity="1"/><path d="M1730 1550v-70c30 20 10 40 0 70zm0-90c10-20-20-60 40-60-20 10-30 30-40 60" fill="#BA7B3E" opacity="1"/><path d="m1380 2120-10 20c0-10-10-20 10-20" fill="#CA712B" opacity="1"/><path d="M2160 4930c-20-10-20-20 0-20l80-40 20-20c-10-20-20-10-30-10l-80 20c-10 0-30 10-40-10l-20-60c10-30 30-20 50-20l90-10 20-50c0-20-20-10-30-10l-100-20c-30-10-40-20-30-40 20-20-10-60 10-70h90c20 0 50 30 60 0 10-20-30-40-40-50-90-30-80-100-50-160l10-40c0-20 20-30 40-50 30-10 40-40 60-60 10-20 30-40 60-30l40-10c60-10 70 0 80 60 0 20 10 50 30 50 30 0 20-30 30-50l10-20v-10l10-20v-10l10-10c30-10 60-20 60 40l20 120c0 20 0 40 20 40 20 10 40-10 40-40 10-50 40-100 40-160 20-10 30-10 50 10l20 90c0 20 10 30 30 30s20-20 20-30c10-100 10-100 110-60h30c10-10 20 0 40 10 10 20 10 50 40 60s50 20 50 60l20 60c30 70 30 70-30 100-50 10-60 30-50 80l120-10c40 0 40 30 40 50-10 20 10 60-30 60-50 10-100 30-160 20 10 40 40 50 70 60h50c80 0 80 10 40 90l-20 10c-30-10-50-20-80 0 10 30 50 20 60 50l-10 30c-10 10-20 30-50 20l-50-20c-20 0-20-20-30-30-10-40-20-70-50-90h-10l-60-40h-10c-40-30-70-40-110-40h-20c-80 0-150-20-220 20h-60a250 250 0 00-150 130c-10 20-20 40-50 50h-20l-30 10-20 10-30-20" fill="#E09235" opacity="1"/><path d="M2510 5130h-40l-80-30v-40l-10-50c0-20 0-40 20-50-30 0-60-10-50-30 10-30-30-70 0-110 20-30 50-40 90-50h10c20-10 40 10 50-10h40l70 90c-10 50-40 10-60 30-40 20-40 60-50 90l-40 10c30 30 80 50 130 30l50-10c30 0 40 10 50 40 0 30 0 60-20 90-20 20-40 10-60 10-50-10-10-50-20-70h-90l20 10-10 50" fill="#EDCA96" opacity="1"/><path d="m3020 4220-40-20c10-80 60-130 140-130 60 0 100 50 110 120 10 60-50 130-110 140-20-10-30-40-60-50-30-50 20-70 50-110-40 0-60 50-90 50" fill="#E2A964" opacity="1"/><path d="m2220 4280-50 40c-90-30-100-100-80-180 10-50 50-70 90-80 40-20 80 0 100 30 20 20 50 40 50 90-20 10-40 10-50 40-40 0-50-50-90-50 20 30 70 60 30 110" fill="#E0A55F" opacity="1"/><path d="m3010 4890 20 40c-10 30 0 60 40 60-50 60-100 80-170 100-30-10-20-50-40-70v-100l10-60c10-30 20-50 40-60h40l60 90" fill="#ECC187" opacity="1"/><path d="M2870 4910c10 30 20 60 0 100l-30 20-10 10v10c20 10 40 30 30 60-40 20-90 20-140 20l-10-90c20-20 40-10 60-20s60-20 50-60v-40l20-20 30 10zm-550 150c-30 0-60-10-80-40l20-20 10-10h-20l10-40c30-20 40-40 40-80 30-20 50 0 40 20 0 40 10 70 40 90v20l-10 20-40 30-10 10" fill="#EDCA96" opacity="1"/><path d="m2520 5060 90-10c10-10 20 10 10 20-20 20-30 40-10 70l-70-10c-20-20-10-40-20-70zm190-20c30 30 30 50 10 90l-40 10-10-10h-10c20-30 10-60 20-90h30" fill="#ECC58D" opacity="1"/><path d="M3150 4840h30c0 30-50 20-30 60h-20l-50-20c-20 0-40-10-20-40h90" fill="#503113" opacity="1"/><path d="M3100 4490c30-20 50-50 30-90 30 10 40 40 40 60-10 30-40 20-70 30" fill="#C58844" opacity="1"/><path d="m2820 5040 10-10c20-10 30 0 40 10l20 50c0 10-10 20-30 20 0-20-20-40-40-50v-20" fill="#ECC187" opacity="1"/><path d="M2300 4870c0 30 30 70-30 80l-10-20 40-60" fill="#ECC58D" opacity="1"/><path d="M3050 4570c-40-10-30-40-10-60l60-20c-20 20-60 30-50 80" fill="#C58844" opacity="1"/><path d="M2520 5060c30 10 10 40 20 60l-10 10h-20v-70h10" fill="#E3B275" opacity="1"/><path d="M2600 4200c-10-20-20-50-60-40 10-30 30-20 50-20 20 10 10 30 10 60" fill="#D2944D" opacity="1"/><path d="M2270 4990c0 20 0 30-30 30l-20-20 20-10h30" fill="#ECC58D" opacity="1"/><path d="m2390 5090-70-20v-10c30-20 60-20 70 20v10" fill="#EDCA96" opacity="1"/><path d="m2890 5090-20-40v-30c20 20 20 40 30 70h-10" fill="#E3B275" opacity="1"/><path d="m2770 4170-50-10c10-30 20-30 50 10" fill="#D2944D" opacity="1"/><path d="M2190 4940h30v30c-20 0-20 0-30-20v-10" fill="#563616" opacity="1"/><path d="m3080 4950 50-20c0 30-20 30-50 20" fill="#D2944D" opacity="1"/><path d="M2190 4940v10c-10 0-30 10-30-20l30 10" fill="#D79B54" opacity="1"/><path d="M3130 4900h20l-20 30v-30" fill="#D2944D" opacity="1"/><path d="M2220 4940h-10l20-10-10 10" fill="#D79B54" opacity="1"/><path d="m1980 3600-30-90c-30-60-80-90-150-80-20 0-40 20-50-10h80c120 0 160 40 150 160v20" fill="#C7722E" opacity="1"/><path d="M1820 2860c30 30 60 60 110 80v10c-60 0-90-20-110-90zm-280 10c30-10 30-50 60-70 0 40 0 70-60 70" fill="#C27230" opacity="1"/><path d="m1970 3600 10-20c30 0 20 30 20 50h-20l-10-10v-20" fill="#CA712B" opacity="1"/><path d="M1930 2950v-10h60l-30 10h-30" fill="#BA7B3E" opacity="1"/><path d="m1790 2830 30 30c-20 0-30 0-30-30" fill="#C27230" opacity="1"/><path d="M1570 3140v-10 10c10 0 0 10 0 0" fill="#CA712B" opacity="1"/><path d="M1940 2950h20-20zm-160-130 10 10-10-10" fill="#C27230" opacity="1"/><path d="M3370 3440c10 60 20 120-20 170l10 20c40 60 40 120 0 170-70 80-160 110-270 110s-220-10-320-70c-70-40-100-160-40-210 20-20 10-40 0-70-20-70-10-140 20-200 50-110 170-120 260-30 30 20 40 20 70 0 80-80 190-90 270 50l20 60" fill="#E8B36F" opacity="1"/><path d="M3380 3190c120 150 100 320 60 490-50-40-50-80-40-120 20-80 10-160-30-230-30-40-70-90-140-80-60 0-120 0-170 30-20 20-40 0-50-10-50-30-100-50-160-40-100 20-170 110-170 210 0 50-10 100 10 150 10 20-20 40-30 70-60-160-40-380 90-490 70-50 140-70 220-100 70-20 130-50 160-130 10 20 20 40 10 50-20 50 10 70 50 80 70 20 130 70 190 120" fill="#AF7034" opacity="1"/><path d="M2590 3550v10c20 100 20 100-90 90l-10-10c-60-40-90-120-70-200 20-40 80-80 130-80 30 10 30 30 30 60-20 40-40 20-50 10l20 20c40 0 40 30 30 50 0 20-10 30 10 50" fill="#E0A55F" opacity="1"/><path d="M3510 3440c0-30-10-50 20-70 30-10 60 0 80 20 40 40 50 100 40 150-20 50-40 100-100 120-50 10-60-10-50-60l20-110c10-20 30-20 30-40l-40-10" fill="#E1A760" opacity="1"/><path d="m2590 3550-30-10c-20 0-20-10-20-20-10-10 10-10 20-10 20 0 20-10 20-30s-10-20-30-20l-40-10c-10-10-30-30-10-40 10-20 20 0 30 10s20 30 50 10c20 40 10 80 10 120zm920-110h10c20 0 40-40 60-10 0 30-20 50-60 60l-10-50" fill="#694723" opacity="1"/><path d="M3370 3440c-10-20-30-30-20-60 20 10 20 30 20 60" fill="#ECC187" opacity="1"/><path d="M2490 3640h10-10" fill="#DC9948" opacity="1"/><path d="m2160 2800-10 30-10 30c-20 80-20 80-80 30-40-30-50-80-70-120-30-80-30-150-30-240l60-50c40-10 40-40 20-70-20-20-20-30 0-50l70-100c70-70 160-90 270-100 40 20 70 40 70 100v10c-30 10-20 30-20 60l-10 10h-20c-30 50-80 50-120 80-20 30-40 10-40-10v-40c-50 30-50 30-20 80 20 30 30 60 20 100v30c20-10 20-30 30-50s30-30 60-30c20 0 30 10 30 40 0 20 20 20 40 20s20-20 10-30c0-30 0-50-40-50-20 0-40-10-40-40 10-30 30-30 60-20 40 0 80-10 100-60l10-10c40-30 50 0 60 30l10-30c0-20 10-40 30-40 30-10 40 10 50 20l40 60v20l-70 10c30 10 50 0 70-10 40 10 40 40 40 70v60c-50 40-60-20-90-30-30 20-40 50-20 80 10 20 20 40 10 50l20 100c20 30 20 60 10 90-20 60-60 100-120 120-20 10-50 20-50-30l-20-20c-30 0-20 20-20 40-40 30-70 40-120 10l-10-30c-20-20-30-40-10-70l10-60v-50l-10-40c-10-10-20-30-40-30s-20 20-30 40c-10 30-40 40-70 50-20 10-40 10-10 40" fill="#9E7D57" opacity="1"/><path d="M2690 2350c30-40 90-50 160-30 200 40 200 290 110 410-40 60-90 120-150 160l-70 20c-40 0-50-20-30-60 30-90 40-180 40-290-30-60-20-140 20-190l-50 20c-10 10-20 20-30 0v-40zm-930 350c-70-60-70-140-50-220 20-90 80-150 180-160h40c50 10 50 10 30 60-30 70-30 150-40 230-50 30-90 80-160 90" fill="#A1805A" opacity="1"/><path d="m2400 3050-20 80-10 10c-30 20-50 30-90 10 10 20 40 30 20 60-60 0-110 30-180 40-30 0-60-10-70-30-10-30-10-60 10-90l30-20c30 0 10 30 30 50 80-110 20-240 40-360-10-20-10-30 10-40s20 10 30 20c50 30 70 70 70 120l-10 40-40 20c20 20 40 40 70 30l10 40-30 30c20 10 30 0 40-10l60-10c10-10 20 0 30 10" fill="#9D7C56" opacity="1"/><path d="M1760 2710c0-50 40-40 60-50 20 0 40 0 40-30 0-40 30-10 60-20l40 190 20 50c10 10 30 30 10 40-20 20-40 20-60 10l-60-50-110-140" fill="#9E7D57" opacity="1"/><path d="M2660 2830c-10 0-20-10-10-20 10-40-10-70-30-100v-30l-10-70c-40-40-10-80 10-120 0 0 0-20 20-20l20 20c10 30 20 50 50 60l10 10c0 90-10 180-60 270zm-550-570c-10 40-20 80-70 110-20 20-10 20 10 30 40 40 30 70-20 90l-60 40c10-110 40-200 140-270" fill="#A2815C" opacity="1"/><path d="m2400 3050-20-10-90-50c-50 40-60-10-80-40a12780 12780 0 01 90-10l10 10v-10c10-10 20-20 30-10 10 30 30 20 50 20l50-10c0 30 0 60-20 90l-10 10-10 10" fill="#A4835E" opacity="1"/><path d="M2690 2350v40c-30 0-30-30-50-50-10-10-20-30-40-20l-20 40v30c-10 20-20 20-30 20-10-10-20-10-10-30 10-30-10-30-40-30-20-10-20-20-10-30 30-20 50-60 100-60l30 20 10 10 60 60" fill="#A2815C" opacity="1"/><path d="M2690 2400v-10c30-20 50-50 100-40l20 10c0 20-10 20-20 20-30 10-40 30-40 70v110h-30v-10c-20-40 0-90-30-130l-10-10 10-10" fill="#3C2914" opacity="1"/><path d="M2440 2270c0-50-30-70-60-110l180 60c0 50-30 80-70 70l-50-20" fill="#A2815C" opacity="1"/><path d="M2440 2270c20-10 30-30 50 0 30 30 50-20 70-40 20 0 30 10 30 30-30 20-50 50-90 60v30c-10 30-30 30-60 30-20-10-30-20-20-50 20-10 0-40 20-60" fill="#9E7D57" opacity="1"/><path d="M2120 3250c0-10 0-30 20-20h30c40-30 80-40 130-20-50 40-110 50-180 40zm180-40c0-20 0-30-20-30-30-10-30-20-20-40 10-30 30-10 40 0 20 20 40 0 70 0-10 30-40 50-70 70" fill="#A2815C" opacity="1"/><path d="M2150 2860c-20 0-30 0-30-20 10-10 10-20 30-10v30" fill="#A4835E" opacity="1"/><path d="M510 1280c10-50 30-90 70-120 20-30 40-50-10-60-40-10-30-40-20-70 30-50 70-100 130-130 20 10 20 30 20 50-20 50-50 90-40 150v40a1640 1640 0 00 30 40l40 40 10 20v60l-10 80-20 20c-30 20-20 30 0 40l20 20 10 10-10 60 10 10 20 30c80 160 230 200 400 190 120-10 210-50 300-130 40-10 30-50 40-70v-20c40-50 20-100 20-150l10-120v-10c-10-10-30-30-20-40 30-30 50-60 80-70 30-20 50 20 80 30 50 30 70 80 80 140 0 30-20 30-30 40l-70 10c50 60 50 120 30 180-10 30-10 40-40 20-20-10-40 0-40 30l-10 40-10 10c-20 30-20 80-50 110l-30 40c-10 10-30 20-40 0-10-50-20-20-40-10l-110 110c-20 20-40 30-50-10-10-20-20-20-30-10l-30 30c-40 50-70 50-120 10-30-10-50-50-90-30l-10 10h-40c-50-30-90-60-120-110 0-10 0-20-20-20l-10 20c0 40-20 30-30 20-60-50-100-110-110-190-10-20 0-70-50-40-20 10-30-10-30-20l-20-100 10-30c10 0 20-10 20-30v-10l10-10c-30-20-60 10-90-30l10-70" fill="#C37936" opacity="1"/><path d="M700 950c-20-10-20-20-20-50l30-20h10l10-20c-10-10-40-10-30-40 10-20 30-30 50-30l140 20c20 0 40 10 50-10 10-10-10-30-20-40v-40h30l100 50c50 50 80 50 130 0 10-10 40-10 50-30 30-10 20 10 30 20 0 20-10 40 10 50 40 20 70-20 110-10h60c20 20 40-10 70 10l10 10-20 20c-10 10-30 10-30 40 10 70-40 50-70 60l-10 10-10 10-10 10c-40 10-40 50-90 50h-10l-70-20h-10l-10-10c10 0 0 10 0 0l-10 10-10-10c-10 0 0-10 0 0l-20 20-20 10a40 40 0 01-40 10 160 160 0 01-30-10c-20-10-30-20-20-40-50 0-90 70-150 20l-10-10-20-10-10-10c-30-40-70-30-100-20h-40" fill="#C67A34" opacity="1"/><path d="M1380 950c0-20 10-40 30-30 40 10 50-10 60-40 90-40 120 50 170 80l20 50c20 60-10 80-40 110-10 10-20 0-30-20l-10-50c-10-50-50-90-110-90l-90-10" fill="#BF7C3C" opacity="1"/><path d="m1600 1100 10 10c20-30 60-40 50-90 20 30 60 60-10 90-30 10 0 40 20 70-50-40-90-20-130 30-10 10-30 10-20 20 0 10 10 20 30 10 10 0 20-10 20 10l-10 20c-30-10-20 10-20 30v200c0 20 0 40-30 50l-10-40c10-90 0-170-10-260-10-30-10-60 30-80 40-10 40-50 80-70" fill="#BF8144" opacity="1"/><path d="M1270 810c-20 0-30 0-30-30 0-10 20-30-10-40l30-10c20-10 40-20 50 10 10 20 0 40-30 40 0 10-20 10-10 30" fill="#BA7B3E" opacity="1"/><path d="M1530 1760c10-30 20-70 50-110-10 40-10 80-50 110zM510 1280c10 20 30 50-10 70l10-70zm1000-470c-20 0-50 10-70-10 20 0 50-10 70 10zM940 1900h40c-10 40-20 10-40 0zm500-1100h-50c10-20 30-10 50 0" fill="#BC8449" opacity="1"/><path d="M710 880c0 20-10 20-30 20 10-10 10-20 30-20" fill="#C37936" opacity="1"/><path d="M580 1400c0 10 0 20-20 30l20-30zm-20 30-10 30 10-30" fill="#BC8449" opacity="1"/><path d="M730 860c10 10 10 20-10 20l10-20" fill="#C37936" opacity="1"/><path d="M3270 1160v-60c0-130 40-240 110-340 30-40 60-60 100-50 30 10 40 50 40 80 20 160-30 310-110 440-20 40-30 60 10 80 50 50 60 110 80 180 10 50 0 110 40 160 30 30 0 130-40 160a530 530 0 01-600 30c-50-40-100-80-90-160 0-20 0-40 30-50l10-40c10-100 20-210 110-290 20-20 0-40-10-50l-100-200v-40l-10-30-10-30v-60h30c50 10 50 50 60 80l50 150c10 40 20 80 70 90l30 10 20 10h180v-70" fill="#EECB94" opacity="1"/><path d="M3070 1220h-30l-10-20v-20c-30-70-30-140-50-200l-50-130-20-20c-20 0-20 20-20 30l-10 40-40-10c-30-20-10-40-10-60-10-30-10-50 10-80 20-50 50-50 90-30 90 70 120 160 140 260 10 80 20 160 0 240" fill="#EDCA96" opacity="1"/><path d="m2840 750-10 80c-10-30-30-50 10-80" fill="#261305" opacity="1"/><path d="M3230 1230c0 10 0 30-20 20s-40 0-60-20h80zm-400-330v30-30zm440 200v50c-20-10-10-30 0-50zm0 130-10 10-10-10h20zm-140 0h-40 40zm-300-280 10 20-10-20zm10 30 10 20-10-20zm430 180v10-10zm0 40v10-10" fill="#EDCA96" opacity="1"/><path d="M1730 3510c50 120 60 240 20 370-10 40-60 80-110 90l-70 30c-30 10-30-10-20-40l10-120c-20-80-80-160-140-170-50-10-90-10-130 40-10 10-20 20-40 10h-20c-30 10-40 0-50-20l10-60-10-40-30 20-10 30c-10 50-30 80-80 90 10 20 30 10 40 10 20 0 30 10 30 30 0 10 0 30-20 40l-130 30c-20 0-20-20-30-40l-10-60 10-150c10-180 120-340 280-380 150-30 280 0 390 100 30 20 50 50 70 90l20 40c10 20 0 40 20 60" fill="#B87436" opacity="1"/><path d="m1190 3690 30 30c-20 40-50 70-60 110-10 80 20 140 90 180-50 20-90 0-130-10l-50-20-20-10-40-20-10-10c-20-40-50-80-50-130 30 50 60 10 90 10h30c10-30 60 0 50-40s-40 0-60 0c-10 0-20-10-20-30s10-40 40-40c10 0 30 0 40-20l-30-30 40-10c30 0 30 30 60 40" fill="#B27133" opacity="1"/><path d="m1250 3720 30-20c50 30 80 70 110 110l-10 40v10c-10 30-20 40-50 50 10 20 30 10 40 10 20 0 40 0 60 20 20 30 10 50-20 50h-90c-40 0-60-10-90-40l-10-10c-20-40-20-90-10-140l40-80" fill="#E3A962" opacity="1"/><path d="m1380 3820-100-120c60-70 140-70 210-10s110 180 70 270c-20 0-30 0-30-20-20-20-10-40-10-50 10-50-10-90-30-130-10-20-20-20-30 0-20 20-20 50-50 70l-30-10" fill="#3F2912" opacity="1"/><path d="M1410 3820c10-40 40-60 50-90s20-10 30 0c40 60 60 130 40 200l-20 30c-50 10-40-20-40-50-80-10-90-20-60-90" fill="#E2A964" opacity="1"/><path d="M890 3720c0 20 20 40 0 50-10 10-40 10-60-10-50-30-60-90-60-150 10-50 30-80 80-90 50-20 60-10 60 40-20 30-50 30-60 60-10 40 0 70 40 100" fill="#DDA159" opacity="1"/><path d="m1890 3500 10 10c20 50 30 110 10 160l-20 40c-10 20-30 40-60 40-20-10-10-40-10-60 60-50 40-110 30-170 10-30 20-30 40-20" fill="#DC9948" opacity="1"/><path d="M1860 3520c20 40 30 80 10 130 0 30-20 30-40 30l-20-130 20-40 30 10zm-970 200c-60 0-60-40-60-80 0-50 20-70 70-70l-10 150" fill="#A86B30" opacity="1"/><path d="M1490 3910c-10 20-20 40 10 50-50 60-110 40-180 30l90-10c30 0 20-20 10-40 10-30 40-30 70-30" fill="#E3B275" opacity="1"/><path d="m1840 3520-30 20c-20 0-30-30-30-40-10-20 10-10 20-20 20 10 40 0 40 40" fill="#D2944D" opacity="1"/><path d="M1910 3680c-10-60 10-110-10-170 40 50 40 110 10 170" fill="#E2A964" opacity="1"/><path d="M1210 3800c10 40-10 90 10 140-50-40-20-90-10-140" fill="#E3B275" opacity="1"/><path d="m1840 3520-40-40c30 0 60-10 100 20-20 0-30 0-40 20h-20" fill="#E2A964" opacity="1"/><path d="M1730 3510c-30-10-20-30-20-60 20 10 10 40 20 60zm-660 470c20 0 40-10 50 20l-50-20zm-60-30c10 0 30 0 40 20l-40-20zm700-500c-20 0-20-20-20-40l20 40zm-710 490 10 10-10-10" fill="#B07741" opacity="1"/><path d="m1630 4400-10 10-10 10c-10 10-40 10-40 40v20l10 20v10l40 190c20 60 10 110 10 170-40 30-50 0-60-20s-10-50-40-50c-20 0-30-10-20-20 10-30-10-60 10-80-10 20-30 40-50 30s-40-20-40-40 10-30 20-30l-20 10c-30 30-40 10-50-20 0-10 10-20-10-20-50-10-40 30-50 50l-30 30-20 10-140-70-60-140c0-10-10 0 0 0 10 10 0 20-10 20l-130 50c-50 20-80 0-100-50 10 40-10 50-30 70-20 10-30 20-40 0l-30-10c-50 10-70-10-100-40 20-50 30-90-20-130l-10-10v-10c-20-50-20-100 0-150s60-60 110-60l50 10h10l10 10 10 10c20 10 30 20 40 50l10 10v10c20 20 30 40 70 30 30-20 20 30 50 40h20c10-30 70-20 110 0l-20-30c0-20 0-30 30-40-30 0-60 20-70-10l150-10c10 30-10 40-20 50s-20 20-10 40h40c20-20 40-20 60-10l20 10c50-20 70 0 70 50 0 20 20 10 30 10 40-10 40-50 60-80h40l30 20c20 10 30 30 50 10l10-60c-10-20-30-20-40-20-30 0-40 20-70 30l-30-10-10-20 10-40c40-70 50-60 130-60 50 0 90 50 100 100l-10 100-10 10" fill="#B06E30" opacity="1"/><path d="M1290 4720c0-20-10-40 20-30 30-20 60-30 60-80 30 0 50 0 30 40v20c20 20 10-10 20-10 30-10 50-10 70 10h-10l-40 10c0 20 20 30 30 40l30-10 20-30h30c10 10 0 20-10 20-20 10-30 20-10 50 30 20-30 20-10 40s30-20 50-10l10 50c0 30 20 40 40 50v40c-30 10-20 40-40 70l-10 10-10 10-10 10v10c-180 150-390 170-610 140-130-20-250-90-320-210-40-80-30-170-30-250 10-50 10-110 40-160 10 10 10 20 30 10h20c20 30 40 10 60 10 30-10 20 30 40 30 20-30 60-40 40-90 20 30 40 70 80 60 50-10 100-20 130-60 20-10 20 20 30 10v-40c30 20 20 60 60 70-10 30 20 60 10 90l-30 10c-110 20-210 120-230 230-20 80 20 150 100 190 100 50 200 30 290-20 50-20 80-60 70-120 0-60 0-120-30-170l-10-40zm120-470c20 10 40 20 10 40l20 20c20 10 20 10 10 30l-40 80-60 30c-10 0-30-10-30-30v-60c-30 10-60 30-90 0-20-10-20 0-30 10-20 20-40 30-60 10-10-10-20-40 10-60l30-40 180 20 10 10c10 0 10 20 20 10l-10-20c10-10 10-40 30-50" fill="#A2662C" opacity="1"/><path d="M1030 4270c30 30 70 0 110 20-50 10-80 40-20 70 10 10 0 30-20 30l-50-40-10-10c-10 40-80 10-70 70l-20-50-20 20v-20c0-10 10-30-10-40-20 0-10 30-10 30-20 0-50 0-60-30l-10-30c60 10 120-10 190-20" fill="#A2662C" opacity="1"/><path d="M1620 4920v-170l-30-180c-10-10-30-30-10-60 60 130 70 260 50 410h-10" fill="#A16C38" opacity="1"/><path d="M600 4250c0 50-20 90 0 150-30-50-30-100 0-150" fill="#B07741" opacity="1"/><path d="M1380 4300c10 20 60 10 30 60-10-30-50-30-50-60h20" fill="#B06E30" opacity="1"/><path d="M1570 4460c0-20 0-40 40-40l-40 40zm-810-260-50-10 50 10zm820 300c-10 0-20 0-10-20l10 20zm-800-290-10-10 10 10zm10 10-10-10 10 10" fill="#B07741" opacity="1"/><path d="M610 2630c-10-50 30-70 40-110 0-20 20-40 30-50 10-30 10-50-20-70 0-30 10-60 50-60l10 10v20c0 10 10 0 0 0h10c30-30 50-60 100-60 20 20 40 0 60 0-10-20-20-50 10-60 20 30 60 20 90 20l60-20 10 10v10c40-20 80-10 120-20l10 10c10 10 10 20 30 0 40 20 60 0 90-20h20v40l-20 20-20 10h20c30 0 50 10 70 40 10 60 70 60 100 100 40 60 90 120 100 200-30 10-40-10-50-30l-90-90c-80-60-160-60-240 0-30 50-40 100-30 150v50c-50 20-100 20-140-20 0-60 10-110-10-160-20-30-40-50-70-60-60-10-110-10-160 20s-100 50-130 100l-50 20" fill="#8D6940" opacity="1"/><path d="M1160 2730c-20-70-10-140 30-210 10 0 20 0 30 20l-10 100c-10 80 40 110 90 150s120 50 180 70c0 20-20 30-40 50l-60 30-20 10c-60 30-130 50-190 40-100-10-190 20-290-20-60-30-130-50-180-110 20-20 60-10 80-10 30-10 50-10 70-30l20-30c40-20 70-50 90-80 30-20 50-60 20-100-30-50-80-70-140-50l-50 20c-50 20-90 50-120 90-20 20-40 40-80 30-20-30 10-50 10-70l40-30c30-60 100-70 150-110 50-30 120-30 180-10 50 10 100 120 80 190l-10 30v10c-10 50 10 80 50 90l10 20c-20 80-30 100-90 80 30 30 60 0 100-10 30 30 70 20 100-10-30 30-60 40-100 10l-20-20c20-30 10-50 30-70l20-10 10-10h10l10-10v-30l-10-10" fill="#EBCE9D" opacity="1"/><path d="M1480 2860c-80 10-150-20-210-70-40-30-90-70-80-150 20-20 30 0 40 20 40 60 110 70 160 10 20-30 40-50 70-50 50 20 90 30 120 70 20 20 10 40 0 60-20 50-60 80-100 110" fill="#553D21" opacity="1"/><path d="M1580 2690c-40-10-70-30-100-60-50-10-70-50-110-60-50-20-100-20-160-30l-20-20c130-100 240-40 310 50l80 80v40" fill="#EACB9A" opacity="1"/><path d="M900 2250c-20 30 0 50 10 80-10 0-30-10-50 10-10 10-30 10-30-20l-110-110c0-20 0-40 20-60 70 0 120 40 160 100" fill="#9A764E" opacity="1"/><path d="m740 2150-10 60c-30 40-30 90-10 140-30 0-50 10-60 50-30-90-40-170 20-260l60 10" fill="#96734C" opacity="1"/><path d="m1300 2300 20-20c20 0 40 0 50-20 0-20 20-30 40-40 40-10 60 10 80 50 10 30 10 70-30 90l-80-10c-30 0-40-20-60-30l-20-20" fill="#3F2C16" opacity="1"/><path d="M1480 2270c-10-30-40-40-80-40-30 0-40 40-80 10 10-40 50-40 80-60 90-30 90-20 130 40 10 60 0 70-50 50" fill="#8D6940" opacity="1"/><path d="M1480 2270c50 20 50-10 50-50 20 70 10 130-20 200-20-20-40-30-50-60 20-20 20-50 20-90zm50-50c-30-20-100-40-130-40 20-40 60-40 90-30 30 0 40 30 40 70" fill="#96734C" opacity="1"/><path d="M1050 2280v-20l120-10c-30 20-80 0-120 30zm170-20v60l-30-60h30" fill="#9D7C56" opacity="1"/><path d="m2640 1330 50 170v50c-30 30-60 10-100 30l-30 10h-10l-30 10h-10l-30 20c-40 10-70 30-120 20-50-50-100-50-140 0-60 20-110 0-160-20-60-30-120-40-190-60 0-80 30-160 70-230 20-40 30-70 0-120l-10-30-10-20V980c0-50 20-60 60-40 70 40 150 90 180 180-20 20-30 20-60 20-40-10-50-50-90-60 20 10 40 30 40 50 10 30-20 50-40 70l70-40 80-20c60-10 120 10 170-30 90 50 90-40 130-70l100-100c10-10 30-20 50-10s30 20 30 40c10 100 20 190-20 280v40l10 30 10 10" fill="#C7722E" opacity="1"/><path d="m2360 1630 130-20 20-20h10l20-10h10l30-10c30-20 70-20 110-20l40 20c-130 160-260 300-490 280-190-20-310-140-410-290h40c60 0 120 0 170 40 50 30 110 30 170 40 40 0 60 20 60 50 0 20-10 40-30 50-30 20-50 10-80-10 20 20 50 30 80 20h80c30 10 50 10 70-20-40 30-70 20-90 0-20-30 0-70 60-100" fill="#EDCE9C" opacity="1"/><path d="M590 2700c30 0 50-20 60-40l120-90c30-10 30 10 30 30 10 10-10 30 10 40l20 40s-10 20 10 10l10-10h10l30 10c30 20 50 10 70-30 10-20 0-40 30-50 30 50 20 90-30 120-20 20-40 50-80 70l-30 10 10 10c-40 50-90 50-160 40-50 0-70-50-90-80l-20-80" fill="#5D4427" opacity="1"/><path d="M1330 3000v10h-20c0-10 0-20 20-10" fill="#3D260E" opacity="1"/><path d="m2160 1140-70 30v-40h60l10 10" fill="#694723" opacity="1"/><path d="M2620 1290c-20-10-10-20 0-40v40zm10 30-10-30 10 30zm10 10-10-10 10 10" fill="#4B290A" opacity="1"/><path d="M1580 4990c10-10-20-30 10-50 10-10-30 0-20-20h50c0 30-20 50-40 70zm-10 10 10-10-10 10zm-10 10 10-10-10 10zm-10 10 10-10-10 10" fill="#A16C38" opacity="1"/><path d="M1430 2960h-10 10" fill="#3D260E" opacity="1"/><path d="M2610 4860c-20-30-70-40-70-100-20-30-10-50 30-50l170 10h20l10 30c0 30 0 50-20 70-60 30-70 90-70 150l-40 40c-60 30-120 50-180 0-20-20-40-30-20-60s20 20 50 20c30-10 50 10 80 10s20-20 30-40l10-80" fill="#3E2A13" opacity="1"/><path d="M2670 4980v-70c0-30 10-60 40-80 30-10 60-40 50-90l110 10 10 10 10 10 20 20-30 70-30 20-10 10v20l-20 10c-20 10-10 30-10 50-50 50-90 50-140 10" fill="#ECC78F" opacity="1"/><path d="M2370 5010v-20c-60-20-40-60-40-100 0-10-10-20-30-20 30-70 80-110 150-130l60 30c-20 40-40 10-60 0 0 20 10 30-20 30-70 0-80 20-60 80l-10 30c0 10-20 20 10 40 20 10 20-10 30-20l10-10c10 30-20 60-20 90-10 0 0 20-20 20v-20" fill="#ECC58D" opacity="1"/><path d="m3010 4230 70-70c20-10 40-20 60 0 10 20-20 30-30 40-40 10-50 40-50 80-30 0-50-10-50-50zm-540 420c-40 30-60 20-80-40v-10l10-30c0-20 20-30 40-30 20 10 30 20 30 40v70" fill="#472D12" opacity="1"/><path d="M2900 4590v30l-10 30c-10 20-30 20-50 10s-20-20-20-40c0-30 0-60 40-70l20 10 10 20 10 10" fill="#4C3013" opacity="1"/><path d="M2220 4280c10-50-10-70-50-90-10-10-20-10-20-30l30-10c50 0 70 30 100 70-20 20-30 50-60 60" fill="#472B10" opacity="1"/><path d="m2510 4770-60-30c90-20 190-40 290-20h-170c-20 0-30 10-30 40l-30 10zm360-20c-30 0-70 20-110-10v-30c40 10 80 10 110 40" fill="#D79B54" opacity="1"/><path d="M2380 4430c20-50 60-60 90-30l10 20h-20c-30-10-50 10-80 10zm510-50c40 30 40 30 40 60-20-20-40-10-50-10-30 0-40 0-40-30l10-10 10-10h30" fill="#563616" opacity="1"/><path d="M2470 4650v-40c0-30 0-50-30-60-40-10-40 30-50 50 0-30 0-60 40-60 30 0 50 10 50 40l-10 70" fill="#D2944D" opacity="1"/><path d="M3010 4890c-30-20-50-50-60-90 40 10 50 50 60 90" fill="#D79B54" opacity="1"/><path d="M2840 4400c0 20 10 20 30 20-10 30-30 30-60 20l30-40" fill="#D2944D" opacity="1"/><path d="M2880 4780v-20c30 0 50 10 60 40h-30l-30-20" fill="#D79B54" opacity="1"/><path d="M3150 4840h-90c30-20 60-30 90 0zm-260-460h-30 30zm0 200-10-20 10 20zm0 70 10-20-10 20" fill="#D2944D" opacity="1"/><path d="M2380 4430" fill="#563616" opacity="1"/><path d="M2670 4980c40 30 90 20 130-20 0-10 10-20 30-20 30 20 30 40 0 60s-70 50-120 40h-30c-10-10-20-30-40-30 0-20 10-30 30-30" fill="#4A3319" opacity="1"/><path d="M2610 4860c20 0 20 20 20 30l-20 100-40 10c-10-10 10-20-10-30l-10-10c-10-30-20-60-10-90 0-20 0-30 30-20 10 10 20 30 40 10" fill="#ECC58D" opacity="1"/><path d="m2540 4870 20 90h40l-30 40c-30 0-50-10-80-30 0-40 0-80 50-100" fill="#ECC187" opacity="1"/><path d="M2390 5090c-10-30-40-30-70-30-30-50 30-20 40-40 0 20 50 0 40 40l-10 30" fill="#ECC58D" opacity="1"/><path d="M2410 4830c10 0 30-20 30 10 0 20 20 50 0 70-20 10-30 0-30-20 0-10 10-30-10-50l10-10" fill="#775833" opacity="1"/><path d="m2400 5060-20-20c-20 10-20 0-20-20l10-10c0 20 10 10 20 0 0 20 30 20 10 50" fill="#E3B275" opacity="1"/><path d="M2510 5060v20c-10 0-30 20-40 0s20-20 40-20zm120 40-10-10h10v10zm-150-250h10v10l-10-10zm-70-20-10 10c-10-10-10-10 10-10zm220 290zm0 0" fill="#ECC58D" opacity="1"/><path d="m2840 4910-10-10v-30l50-10c10 20-10 30-10 50h-30" fill="#553D21" opacity="1"/><path d="M2870 5020v30l-40-20 40-20v10" fill="#F2CC96" opacity="1"/><path d="M2910 4830c0-10 0 0 0 0zm0 20c10 0 0 0 0 0" fill="#ECC78F" opacity="1"/><path d="m2830 4940-30 20c-20-20-10-40 20-40l10 20" fill="#ECC187" opacity="1"/><path d="M2820 5040v20l-20-10c-10-10 10-10 20-10zm-550-50 20-20v10c0 10 0 20-20 10" fill="#ECC58D" opacity="1"/><path d="M2560 5100c-10 0 0 0 0 0" fill="#EDCA96" opacity="1"/><path d="M2970 3810c50 20 100 10 140 10 40-10 70-40 90-80l20-20c20 10 10 20 0 30-10 90-30 80-110 100-60 10-120 10-180-20-40-20-60-50-70-90 0-10-10-20 10-30l30 20 70 80" fill="#43280F" opacity="1"/><path d="M3040 3680c-40-10-40-30-40-60 10-30 30-30 50-30s50 0 50 30-20 60-60 60" fill="#472D12" opacity="1"/><path d="M2830 3520c10-20 30-40 50-30 20 0 30 20 30 30 0 30-10 50-30 70-20 10-40-20-50-70" fill="#402810" opacity="1"/><path d="M3190 3550c0-30 0-60 30-60 20 0 40 10 40 30 10 30 0 50-30 70-30 10-40-10-40-40" fill="#43280F" opacity="1"/><path d="m2900 3380-10 10c-20 0-40 10-50-10l10-20c20-10 40-10 50 20" fill="#503113" opacity="1"/><path d="M3250 3390c-20 10-30 20-50 0l10-10c10-10 30-20 40 10" fill="#4B290A" opacity="1"/><path d="M2500 3610c10-10 20-10 20 10l-10 10c-20 0-20-10-10-20zm30-30c-10 0-10 0 0 0" fill="#DC9948" opacity="1"/><path d="M2420 2330c10 60 40 30 80 20 10 40-40 90-80 90l-20-10-50 10v10c20 20 40 30 60 10h10l10 70c20 30 0 50-30 50l-60-10c-20-20 40-50-10-60-30-10-50 20-50 50l-10 10c0 30-20 50-40 40-30-10-10-30-10-50 0-40 10-80-30-120-20-10-30-40 0-60l20-20c10-10 30-30 50-20s0 30-10 40l10 50c20-30 30-70 80-50 10 10 20-20 20-40 10-20 30-30 60-10" fill="#A4835E" opacity="1"/><path d="M2260 2910c-10-50-10-100-70-110l-10-10c0-10 10-30-10-20l-10 30c-30 0-50 0-50-30s30-20 40-20c40-10 80-20 80-60l40-60c20 40 80 50 60 110-20 20-50 10-80 20 30 10 60 0 80 20-10 30 10 70-20 100l20 20c-20 30-40 20-70 10" fill="#A2815C" opacity="1"/><path d="M2160 2590v40c10 30 10 50-10 60-30 20-40-10-60-20-20-30 0-50 10-80 10-20 30-20 60 0zm380 10c30 10 40 40 30 70-10 10-10 40-40 40-20 0-40-20-40-50s0-60 50-60" fill="#3C2914" opacity="1"/><path d="M2160 2590c-60 0-70 10-70 80-10 0-30 30-30 0 0-40 20-80 40-110 30-50 70 0 110-10-20 20-40 10-50 40" fill="#A4835E" opacity="1"/><path d="M2330 2780h-70c-10 0-30 20-30 0s0-40 20-40h70c20 10 30 20 10 40" fill="#472D12" opacity="1"/><path d="M2540 2590c-30 10-30 40-50 70-60-20 0-60-10-80 20-10 40-20 60 10" fill="#A2815C" opacity="1"/><path d="M2260 2910h70l10 20-30 10v10l-50-20v-20" fill="#43280F" opacity="1"/><path d="M2680 2410h10c-20 30-50 10-60 40l-30-20 20-30c10 0 20-20 20 0 10 30 30 0 40 10" fill="#A4835E" opacity="1"/><path d="M2330 2280c-10-10-30-10-20-20l20-20 30 20c0 10-10 20-30 20" fill="#A2815C" opacity="1"/><path d="M2440 2270c-10 20 30 50-20 60 0-20-30-50 20-60zm-300 110c10-10 20-10 20 10l-10 10c-20 0-20-10-10-20" fill="#A4835E" opacity="1"/><path d="m2360 2840 10 10-10 10v-20" fill="#A2815C" opacity="1"/><path d="M2260 2240h10-10c0 10-10 0 0 0zm-110 230h-10 10c0-10 10 0 0 0zm130-150h10-10zm-50-100c10 0 0 0 0 0zm-140 480c0 10 0 0 0 0zm10 170c0-10 0 0 0 0" fill="#A4835E" opacity="1"/><path d="M2420 2880c0 10 0 0 0 0" fill="#A2815C" opacity="1"/><path d="M2290 2990c40 0 80-10 90 50-10 20-30 20-50 20h-30l-10-10v-60" fill="#9E7D57" opacity="1"/><path d="m2300 3050 20 10c-10 20-20 20-40 20-10 0-40 10-40-20s20-20 40-20h10l10 10" fill="#4A3319" opacity="1"/><path d="M2310 2950h10-10" fill="#9E7D57" opacity="1"/><path d="M1600 1090c-20 50-40 100-90 110-30 0-10 20-10 30l20 270-10 40v10c-20 30-10 60-40 90-140 140-300 160-480 120-120-20-200-80-250-190l-10-30v-80c-20-20-20-40-10-70l10-80v-90l-50-40a100 100 0 01-20-20v-10c-20-10-20-20-20-40 0-60 0-120 60-160l30-10c40-10 80-20 120 20l10 10 10 10c30 30 70 50 110 20 20-20 50 10 80 10h10l10 10h60c20-20 40-10 70-20l60 10h10c20 10 40 10 50-20l40-30 10-10c120-30 180-10 210 80l10 60" fill="#3C240C" opacity="1"/><path d="m710 1460-20-10c-10-20-30-10-20-40 0-20 20-20 50-20 10 20 10 40-10 70" fill="#C58844" opacity="1"/><path d="m710 1460 10-70 10-90v160h-20zm760 180c20-30 10-60 40-90-10 30 10 70-40 90zm-790-460c20 10 50 0 50 40-20 0-40-10-50-40zm50 300v50l-30 20 30-70zm0-240c20 10 10 30 0 50v-50zm-90-130 20 40c-20 0-20-20-20-40zm90 430 10 30-10-30" fill="#BF8144" opacity="1"/><path d="M990 1860c0 10 0 0 0 0" fill="#BC8449" opacity="1"/><path d="m660 1160 10 10-10-10zm400-150-120 10c-40 10-60 0-70-40l30 10c20 20 40 20 70-10s60 0 90 30zm140 0c-40 0-70 50-120 10h30c10-10 10-20 30-20l10-10h40l10 10v10" fill="#BF8144" opacity="1"/><path d="m1370 960-30 40c-10 40-30 30-60 10 20 0 30 0 40-20s20-30 50-30" fill="#BF7C3C" opacity="1"/><path d="M850 960c-40-20-70-20-120-20 40-10 90-30 120 20" fill="#BC8449" opacity="1"/><path d="M1200 1010v-10l10-20 10 10c10 20 30 0 50 20h-70zm-60-10c0 10-10 20-30 20 0-10 0-30 30-20zm20-10h-10 10zm30 0h-10 10" fill="#C58844" opacity="1"/><path d="m2880 900-10-40c0-30 0-50 30-60 20 0 30 20 40 30 60 90 70 190 90 290l10 60v40c-20 30-30 20-40 0-50-70-70-140-90-210l-30-110" fill="#C17B39" opacity="1"/><path d="m3450 990-90 230c-10 10-10 20-30 20l-20-30 10-130a4490 4490 0 01 100-250c10-10 30-20 40-10 20 0 10 20 10 40l-20 130" fill="#BF7938" opacity="1"/><path d="M3200 1790c30 30 50 30 90-10 10-10 10-40 30-20s10 40-10 50c-30 20-70 50-110 10-20-10-30 10-40 10-30 20-100 10-120-30-10-10-20-30 0-40 10-10 30 0 40 20s40 50 70 20c20-20 20-60-20-80-10-10-20-20-10-40s20-20 30-20h60c10 0 30 0 40 20 0 20-10 30-30 40l-20 20c-10 10 0 30-20 40l20 10" fill="#3E2A13" opacity="1"/><path d="M3380 1580c20 30 0 50-20 60h-30c-30-20-20-40-10-70 20-40 40-20 60 10zm-370-30c50 10 30 40 30 70 0 10-10 30-30 30s-40-20-40-30c0-30 0-60 40-70" fill="#3C260F" opacity="1"/><path d="M3020 1460c-20 0-40 10-50-10 0-20 20-20 30-30 20 0 30 0 40 20s0 20-20 20" fill="#472B10" opacity="1"/><path d="M3340 1450c-10 10-30 20-30-10l20-20 50 10c0 20-20 20-40 20" fill="#3D250E" opacity="1"/><path d="M3200 1790c-50-10 10-30 0-50v50" fill="#1E0C01" opacity="1"/><path d="M3060 1260h10-10" fill="#EDCA96" opacity="1"/><path d="M3040 1190v-10 10" fill="#EECB94" opacity="1"/><path d="M1190 3690c-40 20-40-20-60-40-10-40 20-60 50-70s30 30 30 50 0 40-20 60" fill="#472D12" opacity="1"/><path d="M1120 3510c-20 0-30-10-20-30s20-40 50-40 50 10 60 30c0 40-30 40-50 40h-40" fill="#503113" opacity="1"/><path d="M1600 3600v20c0 20 0 50-30 50-10 10-30-10-40-30 0-20 0-50 20-70 30-20 40 0 50 30" fill="#472D12" opacity="1"/><path d="m1600 3490-40-10c-10 0-30 10-30-10s10-30 30-30c20-10 70 10 70 30 10 30-20 10-30 20" fill="#503113" opacity="1"/><path d="m1490 3910-70 20-50 10c-30 10-60 0-60-40 20-20 40 10 50-20 10-10 20-20 10-30l10-30h30v20c0 60 0 60 50 50 20-10 30-10 30 20" fill="#4C3013" opacity="1"/><path d="M1370 3870c0 40-30 30-60 30 10-30 50 0 60-40v10" fill="#E3B275" opacity="1"/><path d="m1380 3870-10-10v-10l20 10c10 10 0 10-10 10" fill="#3F2912" opacity="1"/><path d="M1290 4710c50 80 60 170 60 260 0 50-50 90-90 100-80 40-170 60-270 30-140-40-170-180-120-270 30-70 70-120 130-160 40-40 80-30 130-30l20 20c50 0 90 30 140 50" fill="#E4A961" opacity="1"/><path d="M1450 4340v-30c10-20 40-30 60-40 20 0 50 0 70 30 10 20-20 100-40 100-10 10-20 0-30-10-10-20-20-30-50-40l-10-10zm-680-10-60 50c-20 30-30 20-40-10s-20-70 10-90c20-20 70-10 90 20v30" fill="#432C13" opacity="1"/><path d="M1360 4610c30 60 20 80-40 80-10-40-30-90 40-80" fill="#503113" opacity="1"/><path d="M1390 4970c30-10-10-50 20-60l20 40c10 20 20 10 20-10 50-30 70 10 90 40-50 40-90 10-150-10" fill="#B06E30" opacity="1"/><path d="M860 4610c20-20 40-10 50 0 20 20 0 40 0 50-10 20-20 30-40 20-20 0-20-20-20-40l10-30" fill="#4C3013" opacity="1"/><path d="M1480 4910c-20-30-20-60-10-90 30 10 30 40 50 60v20c-10 10-10-10-10-10-20-10-10 20-30 20zm-100-100c30-30 20 40 50 20l-10 30h-50c-20-10-10-30 10-50zm80-50c-20 10-50-10-60 20 0-30 10-40 30-50 20 0 30 10 30 30zm10 60-10-10 10 10" fill="#AC6A2D" opacity="1"/><path d="m1450 4940-10-10h10v10zm90 0h10-10" fill="#B06E30" opacity="1"/><path d="M1440 4900c-10 0-10 0 0 0" fill="#AC6A2D" opacity="1"/><path d="M1430 5010c-10 0 0 0 0 0zm-40-40zm-400-410c0-10 0 0 0 0" fill="#B06E30" opacity="1"/><path d="M1410 4880c10 0 0 0 0 0zm70 30" fill="#AC6A2D" opacity="1"/><path d="M1280 4340c-20-10-30-20-10-40 10-10 30 0 40 10 10 20-10 30-30 30" fill="#B27133" opacity="1"/><path d="M1420 4290zm-380 20-10 10v-20l10 10" fill="#B06E30" opacity="1"/><path d="M720 2350c-50-80-40-110 10-140 50 20 80 60 100 110-40 0-60 50-110 50v-20" fill="#422E17" opacity="1"/><path d="M1190 2750v20c-10 10-20 10-20 30h-10v-10h-10v10l-60 10h-10c-70-30-70-30-40-110 30 40 80 20 120 30l20 10 10 10" fill="#3F2C16" opacity="1"/><path d="M1320 2240c20 0 40 10 50-20 10-10 20-10 30 10l-50 80-30-30v-40" fill="#9A764E" opacity="1"/><path d="m1070 2500-10 10h-10c0-20 20-20 30-20l30 30-10 10-20-10c10-10 0-20-10-20zm230-200 10 20c-10 10-20 0-30-10v-20l20 10zm-250-20-10 20v-10l10-10" fill="#9D7C56" opacity="1"/><path d="M720 2370" fill="#96734C" opacity="1"/><path d="M1210 2550c70-40 180-10 230 40l30 40c-30 0-60 20-70 50-20 40-50 50-90 40-30-10-90 0-90-70l-20-10c-10-30 0-60 10-90" fill="#3C2914" opacity="1"/><path d="M990 2610c-10 40-10 80-50 110l-60 10v-30l40-40s-10 0 0 0c-20 20-40 20-60 20-20-10-30-20-30-40-10-10-10 0-20 10-20 0-30-10-30-30v-50c50-50 110-40 170-30 20 10 40 30 40 70" fill="#3F2C16" opacity="1"/><path d="m1110 2860 10 10-10 20c-20 20-30 50-70 40s-50-20-60-70c90 50 90 50 110-30 20 0 20 20 20 30" fill="#402A13" opacity="1"/><path d="M1110 2900v-20c40 20 70 20 90-20h30l10 30c-20 40-100 40-130 10zm10-30-30-40v-20l50-10c-30 10-20 40-20 70" fill="#4A3319" opacity="1"/><path d="M860 2820c-20 0-30 20-60 10 30-10 40-40 80-30l-20 20" fill="#8D6940" opacity="1"/><path d="m2360 1630-30 40c-30 0-20 30-20 40 0 20 20 30 30 30 20 0 30 0 40-20 10-10 10-30 30-30l10 20-20 40-30 20-180-10c-50 0-60-20-40-80 20 10 10 30 20 40 20 10 30 30 50 20s40-10 40-40c0-20-10-40-30-40l-10-20c-10-40 10-60 50-50h60c30 0 30 10 30 40" fill="#402A13" opacity="1"/><path d="M2090 1130v40c-10 20-40 10-50 30-10 10-20 30-40 30l-10-10 20-50c30-10 30-20 30-40 0-10-10-30-30-30s-40 0-40-20l20-30c20-10 30 0 40 20l60 60" fill="#472B10" opacity="1"/><path d="M2570 1190c0 10 20 30 0 40-10 10-20-10-30-20l-20-20c-20-10-60-20-50-50 20-40 40-70 80-80 30-20 30 0 30 30-50 30-40 60-10 100zm-520 310c10-20 20-40 50-40 20 0 20 10 30 30 0 20 10 50-10 70s-50 10-60-10l-10-50" fill="#41260D" opacity="1"/><path d="M2440 1530v-30l10-20 10-10 30-10 20 20v40c10 20 0 40-20 50h-20l-20-10c-10-10-20-10-10-30" fill="#3F260E" opacity="1"/><path d="m2570 1190-20-20c-40-40-40-60 20-80 20 30 10 60 0 100" fill="#8D6940" opacity="1"/><path d="M2110 1330c20 0 30 10 30 30-10 20-20 10-40 10-10 0-30 10-40-20 10-20 20-20 50-20" fill="#41260D" opacity="1"/><path d="M2500 1340c20 30 0 30-20 30-10 0-40 10-40-20 0-20 20-20 40-20l20 10" fill="#472B10" opacity="1"/><path d="m2110 1330-50 20c0-30 20-30 50-20" fill="#BF8144" opacity="1"/><path d="M2490 1570c10-10 20-20 20-50 10 20 20 40-20 50zm0-110-30 10c0-10 10-20 30-10zm-50 70 10 30c-20 0-20-10-10-30zm70 60-20 20 20-20zm70-20-30 10 30-10zm-130-90-10 20 10-20zm0 80 20 10-20-10zm90 20-20 10 20-10zm-30-90v-10 10" fill="#B87436" opacity="1"/><path d="M810 2650c10-10-10-40 10-40s20 20 20 30l20 40-10 10h-30l-10-40" fill="#775833" opacity="1"/><path d="M860 2680c30 0 60-10 60-50 20 30 10 60-40 60l-20-10" fill="#8D6940" opacity="1"/><path d="M720 2800h-40l20-40c20 10 10 20 20 40" fill="#4A3319" opacity="1"/><path d="M820 2690h30c0 30-20 30-40 20l10-20" fill="#3B250E" opacity="1"/><path d="M720 2800" fill="#4A3319" opacity="1"/><path d="M2830 4870v30c-20-10-30-10 0-30zm50-90c10 0 20 0 30 20-10 0-20 0-30-20" fill="#ECC187" opacity="1"/><path d="M2450 4770" fill="#EDCA96" opacity="1"/><path d="M2560 4960" fill="#ECC58D" opacity="1"/><path d="M2320 2460h10-10c0 10-10 0 0 0" fill="#9E7D57" opacity="1"/><path d="M1090 1740c-60-10-120-10-170-40-100-50-140-130-150-230 0-80 0-160 20-230 20-80 70-140 140-180 50-20 100-20 160 0 10 10 30 20 50 10 80-30 150-30 230 20 30 10 40 30 50 60l30 50 10 30 20 200c0 100-40 180-120 240-20 10-50 10-70 30l-10 10h-10c-50 10-50 10-40-30l50-80c-30 40-60 50-110 40-30-10-30-30-30-60s20-40 30-70c10-20 10-40-20-40h-30c-20 0-40-10-60 10-10 30 10 40 30 60l20 40c0 70-40 90-100 60-30-20-40-40-50-70l-10-20v10c-10 30 0 50 10 60l10 10 20 10c40 20 80 30 120 20 30-10 50 10 80 20 20 20 30 30-10 50l-90 10" fill="#DC9948" opacity="1"/><path d="M710 1020c40-50 90-50 130-10-10 50-40 30-60 40-40 20 10 20 0 40 20 40 20 60-30 80-60-40-80-90-40-150" fill="#C58844" opacity="1"/><path d="M1410 990c70-20 110-10 130 30 30 60 10 120-60 150-20-30 10-60 10-90 10-20-10-30-20-40-10-40-50-10-60-40v-10" fill="#D2944D" opacity="1"/><path d="M1470 1030c20 0 40 0 40 30-20 30-30 60-70 70l-20 20-50-60 20-30 30-10 50-20" fill="#472D12" opacity="1"/><path d="m1470 1030-40 30h-40v-50l10-10h80c10 10 0 20-10 30" fill="#E09235" opacity="1"/><path d="M1440 1130c20-20 30-60 60-60 20 30-10 60-20 100-20 0-20-20-40-40" fill="#A16C38" opacity="1"/><path d="m780 1090-20-10c-20 0-30 0-30-20s20-20 40-20c30-10 50 0 50 30l-40 20" fill="#4C3013" opacity="1"/><path d="M710 1020c10 20-10 30-10 50 0 50 20 70 50 100-70-10-90-90-40-150zm120 60c-10-30-30-30-60-40 20-30 50 0 70-20 20 20 30 50-10 60zm420 590-20 30c10 20 20 10 40 10-20 20-50 20-90 20 0-10 40-20 0-40 10-30 40-30 70-20" fill="#D29D5E" opacity="1"/><path d="M1090 1740c30-20 50-30 90-10-20 20-50 10-90 10" fill="#E2A964" opacity="1"/><path d="M1290 1700c0-40 40-20 70-30-20 20-40 20-70 30" fill="#D29D5E" opacity="1"/><path d="m1460 1230-10-30c20 0 20 10 10 30" fill="#472D12" opacity="1"/><path d="M1390 1010v50h-10l10-50zm-110 700 10-10-10 10zm130-710h-10l10-10v10" fill="#D29D5E" opacity="1"/><path d="M1100 4980c10-50-10-80-40-110-40-30-40-80-40-120 0-30 20-40 50-40l30 10c30-10 70-30 90 10 10 40 10 90-20 140-10 10-30 30-30 60 0 10-10 30 10 40 10 10 30 0 50-10l30-40c0-10 10-30 20-20l10 30c-10 60-50 70-100 80l-40 10-10-20-10-20" fill="#412C14" opacity="1"/><path d="m1100 4980 10 20h-40c-50 10-100 0-120-70 60 0 90 60 150 50zm20 40 30-10c0 10-10 20-30 10" fill="#563616" opacity="1"/><path d="M1250 2610h20c10 30 20 90 60 20l20 10v20c-10 20-20 30-40 30l-50-20-10-60" fill="#694723" opacity="1"/><path d="m1250 1670-70 20-30-10h-50c-40 10-80-10-110-30l-20-10c-30-20-40-50-30-90 10-10 10-20 30-10 10 40 20 80 70 90 50 20 60 0 60-50 20 0 30 30 50 0 10 20-10 50 20 50s60 20 80-30c10-20 30-50 50-30 30 10 0 40-20 60l-30 40" fill="#472B10" opacity="1"/><path d="M1150 1580c-20 10 0 40-10 50-30 0-30-30-40-50 0-30-30-30-40-50-20-20-20-30-20-60 10-20 30-20 50-20h50c20 0 40 0 60 20 10 20-10 40-20 60s-30 20-30 50" fill="#3B250E" opacity="1"/><path d="M980 1370v40c-10 20-20 30-40 30s-30-20-30-30c-10-30-10-60 20-80 30-10 50 10 50 40" fill="#3C240C" opacity="1"/><path d="M1260 1400c0-30 0-60 30-70 10 0 20 0 30 20 20 20 10 50 0 70 0 10-10 20-30 20s-30-20-30-40" fill="#43280F" opacity="1"/><path d="M930 1240c-20 0-30-10-20-20 10-20 20-20 40-20l20 20c0 20-10 20-20 20h-20" fill="#503113" opacity="1"/><path d="M1270 1240c0-50 30-30 50-30 30 20 20 30 0 30h-50" fill="#4B290A" opacity="1"/><path d="M1270 1240c20-10 60 20 60-30 30 10 20 20 0 40h-70l10-10zm-330 310c0 30 0 60 30 90-40-10-50-40-30-90zm30-10-30 10c10-20 10-20 30-10zm0 100 10 10-10-10zm420-580h40c-10 20-20 30-40 0" fill="#D29D5E" opacity="1"/></svg>
