<svg viewBox="0 0 100 140" xmlns="http://www.w3.org/2000/svg">
  <rect x="2" y="2" width="96" height="136" rx="8" fill="white" stroke="#ccc" stroke-width="2"/>
  
  <!-- Lion -->
  <g transform="translate(50,70)">
    <!-- Mane -->
    <circle cx="0" cy="-8" r="20" fill="#daa520"/>
    
    <!-- Head -->
    <circle cx="0" cy="-5" r="14" fill="#f4a460"/>
    
    <!-- Eyes -->
    <circle cx="-5" cy="-8" r="2" fill="black"/>
    <circle cx="5" cy="-8" r="2" fill="black"/>
    <circle cx="-4" cy="-9" r="0.8" fill="white"/>
    <circle cx="6" cy="-9" r="0.8" fill="white"/>
    
    <!-- Nose -->
    <ellipse cx="0" cy="-2" rx="2" ry="1.5" fill="#8b4513"/>
    
    <!-- Mouth -->
    <path d="M 0,0 Q -3,3 -6,2 M 0,0 Q 3,3 6,2" stroke="black" stroke-width="1" fill="none"/>
    
    <!-- Ears -->
    <ellipse cx="-10" cy="-15" rx="3" ry="5" fill="#f4a460"/>
    <ellipse cx="10" cy="-15" rx="3" ry="5" fill="#f4a460"/>
    
    <!-- Body -->
    <ellipse cx="0" cy="15" rx="12" ry="18" fill="#f4a460"/>
    
    <!-- Legs -->
    <ellipse cx="-8" cy="28" rx="3" ry="8" fill="#f4a460"/>
    <ellipse cx="8" cy="28" rx="3" ry="8" fill="#f4a460"/>
    
    <!-- Tail -->
    <path d="M 12,20 Q 18,15 20,25 Q 18,30 15,28" fill="#f4a460"/>
    <circle cx="20" cy="25" r="3" fill="#daa520"/>
  </g>
</svg>