<?xml version="1.0" standalone="no"?>
<!DOCTYPE svg PUBLIC "-//W3C//DTD SVG 20010904//EN"
 "http://www.w3.org/TR/2001/REC-SVG-20010904/DTD/svg10.dtd">
<svg version="1.0" xmlns="http://www.w3.org/2000/svg"
 width="272.000000pt" height="391.000000pt" viewBox="0 0 272.000000 391.000000"
 preserveAspectRatio="xMidYMid meet">

  <rect width="100%" height="100%" fill="#D3D3D3" />

<g transform="translate(0.000000,391.000000) scale(0.100000,-0.100000)"
fill="#000000" stroke="none">
<path d="M964 3801 l-680 -7 -57 -28 c-101 -49 -103 -64 -117 -711 -10 -461
-5 -1196 16 -2399 6 -357 6 -360 30 -398 43 -68 81 -79 303 -90 536 -26 1931
-31 2005 -8 48 14 91 58 108 108 16 50 24 2691 9 3131 -12 348 -16 366 -85
389 -52 17 -656 22 -1532 13z m1485 -89 c38 -6 46 -11 54 -37 5 -17 11 -499
14 -1080 5 -1151 -7 -2273 -25 -2317 -6 -15 -21 -33 -34 -40 -50 -28 -1798
-18 -2070 12 -48 6 -99 15 -113 22 -55 25 -56 32 -66 532 -30 1588 -36 2411
-19 2651 18 250 11 246 429 255 408 9 1774 10 1830 2z"/>
<path d="M411 3538 c-38 -118 -70 -248 -61 -253 11 -7 25 14 40 59 12 37 14
38 49 32 20 -3 44 -6 53 -6 10 0 21 -13 28 -34 6 -19 18 -40 26 -46 23 -20 18
27 -17 148 -39 131 -54 162 -78 162 -15 0 -24 -15 -40 -62z m65 -70 c14 -42
11 -48 -28 -48 -31 0 -34 10 -17 59 14 40 29 36 45 -11z"/>
<path d="M378 3182 c-63 -65 -78 -86 -78 -111 0 -42 36 -65 90 -58 46 6 49 -1
15 -33 -14 -13 -25 -27 -25 -32 0 -4 32 -8 70 -8 39 0 70 3 70 6 0 3 -9 17
-20 31 -28 35 -26 39 19 35 32 -3 45 1 65 22 15 14 26 34 26 45 0 11 -34 56
-77 101 l-78 82 -77 -80z"/>
<path d="M1296 2978 c-167 -247 -251 -359 -414 -549 -106 -125 -150 -186 -188
-259 -25 -49 -29 -67 -32 -173 -4 -112 -3 -120 24 -174 58 -120 182 -203 302
-203 73 0 176 37 268 95 31 20 58 34 61 31 8 -8 -15 -126 -38 -197 -31 -95
-105 -213 -182 -289 -53 -53 -64 -69 -52 -74 22 -8 571 -6 610 3 l30 7 -61 64
c-94 102 -123 144 -161 238 -35 84 -64 224 -50 238 4 4 33 -9 64 -28 32 -19
89 -48 128 -63 60 -24 80 -27 145 -23 159 9 269 113 306 288 12 58 12 80 0
147 -7 43 -20 94 -29 113 -22 53 -103 160 -224 301 -59 69 -123 145 -141 170
-71 95 -138 189 -213 302 -44 64 -83 117 -88 117 -5 0 -34 -37 -65 -82z"/>
<path d="M2185 999 c-4 -5 0 -18 7 -27 32 -37 32 -45 1 -38 -40 9 -81 -8 -95
-39 -15 -32 4 -68 71 -138 75 -78 71 -78 156 6 61 60 75 80 75 105 0 41 -42
75 -81 67 -36 -8 -46 11 -20 39 12 12 18 26 14 29 -11 11 -121 8 -128 -4z"/>
<path d="M2139 653 c-3 -21 5 -56 31 -138 72 -226 89 -228 145 -20 20 72 38
138 41 148 3 11 0 17 -9 17 -9 0 -23 -19 -32 -44 -14 -35 -23 -45 -47 -50 -65
-13 -75 -9 -83 32 -4 20 -11 43 -17 50 -12 13 -27 16 -29 5z m141 -134 c0 -22
-23 -89 -30 -89 -11 0 -41 80 -35 91 9 13 65 11 65 -2z"/>
</g>
</svg>
