<?xml version="1.0" encoding="UTF-8"?>
<!DOCTYPE svg PUBLIC "-//W3C//DTD SVG 1.1//EN" "http://www.w3.org/Graphics/SVG/1.1/DTD/svg11.dtd">
<svg xmlns="http://www.w3.org/2000/svg" version="1.1" width="1024px" height="1536px" style="shape-rendering:geometricPrecision; text-rendering:geometricPrecision; image-rendering:optimizeQuality; fill-rule:evenodd; clip-rule:evenodd" xmlns:xlink="http://www.w3.org/1999/xlink">
<g><path style="opacity:1" fill="#fbf9f8" d="M -0.5,-0.5 C 340.833,-0.5 682.167,-0.5 1023.5,-0.5C 1023.5,511.5 1023.5,1023.5 1023.5,1535.5C 682.167,1535.5 340.833,1535.5 -0.5,1535.5C -0.5,1023.5 -0.5,511.5 -0.5,-0.5 Z"/></g>
<g><path style="opacity:1" fill="#dddcdc" d="M 71.5,33.5 C 367,32.3336 662.666,32.1669 958.5,33C 960.5,34 962.5,35 964.5,36C 965.252,36.6708 965.586,37.5041 965.5,38.5C 961.789,36.3174 957.789,34.8174 953.5,34C 659.5,33.5 365.5,33.3333 71.5,33.5 Z"/></g>
<g><path style="opacity:1" fill="#050505" d="M 71.5,33.5 C 365.5,33.3333 659.5,33.5 953.5,34C 957.789,34.8174 961.789,36.3174 965.5,38.5C 975.382,44.8939 981.549,53.8939 984,65.5C 984.667,533.167 984.667,1000.83 984,1468.5C 980.5,1486.67 969.667,1497.5 951.5,1501C 658.5,1501.67 365.5,1501.67 72.5,1501C 53.1283,1496.96 41.9617,1485.13 39,1465.5C 38.8333,1232.5 38.6667,999.5 38.5,766.5C 38.6667,533.5 38.8333,300.5 39,67.5C 42.1923,48.8087 53.0257,37.4753 71.5,33.5 Z"/></g>
<g><path style="opacity:1" fill="#faf9f7" d="M 72.5,43.5 C 364.834,43.3333 657.167,43.5 949.5,44C 963.04,46.8731 971.206,55.0398 974,68.5C 974.667,534.5 974.667,1000.5 974,1466.5C 970.933,1478.57 963.433,1486.4 951.5,1490C 658.167,1490.67 364.833,1490.67 71.5,1490C 58.6506,1486.15 51.1506,1477.65 49,1464.5C 48.3333,999.5 48.3333,534.5 49,69.5C 51.4573,55.8801 59.2906,47.2135 72.5,43.5 Z"/></g>
<g><path style="opacity:1" fill="#030303" d="M 502.5,344.5 C 532.214,342.749 553.714,355.083 567,381.5C 572.421,396.331 572.921,411.331 568.5,426.5C 598.837,425.744 620.337,439.078 633,466.5C 643.439,503.448 631.606,530.615 597.5,548C 572.566,557.018 549.732,552.851 529,535.5C 529.274,541.343 530.608,547.01 533,552.5C 541.788,570.62 552.955,587.12 566.5,602C 530.5,602.667 494.5,602.667 458.5,602C 468.107,590.393 476.941,578.226 485,565.5C 490.816,555.043 494.816,544.043 497,532.5C 473.65,554.211 447.483,558.378 418.5,545C 386.719,524.656 377.552,496.823 391,461.5C 405.221,437.629 426.388,425.462 454.5,425C 445.217,394.769 453.55,370.769 479.5,353C 486.711,348.655 494.378,345.822 502.5,344.5 Z"/></g>
<g><path style="opacity:1" fill="#242326" d="M 500.5,358.5 C 521.687,356.184 538.52,363.517 551,380.5C 561.366,401.094 559.033,420.094 544,437.5C 542.991,439.025 542.491,440.692 542.5,442.5C 555.756,440.416 569.089,439.583 582.5,440C 614.351,451.199 626.851,473.366 620,506.5C 608.052,532.221 588.219,542.721 560.5,538C 544.104,532.096 531.104,521.929 521.5,507.5C 515.007,505.187 512.174,507.521 513,514.5C 511.625,512.063 511.125,509.397 511.5,506.5C 508.89,505.498 506.224,505.665 503.5,507C 495.635,515.921 486.968,523.921 477.5,531C 451.2,545.211 428.367,541.045 409,518.5C 400.027,506.599 397.027,493.265 400,478.5C 405.438,458.395 418.272,445.562 438.5,440C 452.203,438.666 465.203,440.833 477.5,446.5C 479.135,445.954 480.801,445.62 482.5,445.5C 482.477,443.073 481.977,440.74 481,438.5C 475.038,430.911 470.371,422.578 467,413.5C 462.34,385.481 473.507,367.148 500.5,358.5 Z"/></g>
<g><path style="opacity:1" fill="#030303" d="M 200.5,411.5 C 303.714,513.88 406.38,616.713 508.5,720C 510.167,720.667 511.833,720.667 513.5,720C 616.167,617.333 718.833,514.667 821.5,412C 822.167,411.333 822.833,411.333 823.5,412C 826.016,414.683 828.683,417.183 831.5,419.5C 728.014,523.486 624.347,627.32 520.5,731C 624.609,834.775 728.275,938.775 831.5,1043C 828.931,1045.48 826.598,1048.15 824.5,1051C 823.5,1051.67 822.5,1051.67 821.5,1051C 718.735,947.068 615.401,843.568 511.5,740.5C 406.487,843.68 302.32,947.68 199,1052.5C 195.414,1049.62 192.748,1046.28 191,1042.5C 294.626,939.04 398.126,835.374 501.5,731.5C 399.262,627.762 296.429,524.428 193,421.5C 192.333,420.833 192.333,420.167 193,419.5C 195.705,416.964 198.205,414.297 200.5,411.5 Z"/></g>
<g><path style="opacity:1" fill="#252528" d="M 512.5,532.5 C 515.213,546.461 520.046,559.794 527,572.5C 530.362,577.03 533.529,581.697 536.5,586.5C 536,586.833 535.5,587.167 535,587.5C 521.199,588.641 507.366,588.807 493.5,588C 491.714,587.804 490.381,586.971 489.5,585.5C 494.239,577.694 498.739,569.694 503,561.5C 506.324,551.862 509.491,542.196 512.5,532.5 Z"/></g>
<g><path style="opacity:1" fill="#010101" d="M 236.5,544.5 C 276.294,583.795 315.794,623.128 355,662.5C 365.143,674.117 372.143,687.45 376,702.5C 380.02,733.948 369.187,758.781 343.5,777C 311.3,794.607 281.466,791.44 254,767.5C 255.574,777.344 258.907,786.677 264,795.5C 273.295,809.742 283.795,823.075 295.5,835.5C 256.504,836.667 217.504,836.833 178.5,836C 189.764,823.072 200.264,809.572 210,795.5C 215.381,786.109 218.381,776.109 219,765.5C 188.704,793.747 156.537,795.914 122.5,772C 101.882,754.151 93.0492,731.651 96,704.5C 97.2577,697.133 99.5911,690.133 103,683.5C 108.265,674.637 114.265,666.304 121,658.5C 159.7,620.632 198.2,582.632 236.5,544.5 Z"/></g>
<g><path style="opacity:1" fill="#292a2b" d="M 236.5,564.5 C 240.94,567.763 245.273,571.263 249.5,575C 279.305,605.806 309.472,636.306 340,666.5C 345,672.833 350,679.167 355,685.5C 371.111,719.833 363.277,747.333 331.5,768C 308.185,779.886 286.518,777.552 266.5,761C 260.906,753.402 254.573,746.402 247.5,740C 245.126,737.935 242.96,738.101 241,740.5C 236.964,760.411 239.631,779.411 249,797.5C 253.881,806.098 259.381,814.265 265.5,822C 264.833,822.333 264.167,822.667 263.5,823C 248.804,823.248 234.137,823.414 219.5,823.5C 216.433,823.393 213.433,822.893 210.5,822C 210.043,821.586 209.709,821.086 209.5,820.5C 219.76,808.049 227.26,794.049 232,778.5C 233.074,774.04 233.907,769.54 234.5,765C 233.887,756.144 233.054,747.31 232,738.5C 231.221,737.272 230.221,736.272 229,735.5C 221.932,743.571 214.432,751.405 206.5,759C 172.907,784.208 143.407,780.041 118,746.5C 104.887,721.317 107.22,697.651 125,675.5C 161.423,637.577 198.589,600.577 236.5,564.5 Z"/></g>
<g><path style="opacity:1" fill="#040202" d="M 730.5,571.5 C 759.808,568.698 783.475,578.698 801.5,601.5C 819.393,578.137 843.06,568.304 872.5,572C 907.979,581.25 926.979,604.25 929.5,641C 927.309,663.548 920.142,684.381 908,703.5C 888.8,730.174 867.467,755.174 844,778.5C 827.347,796.485 813.013,816.152 801,837.5C 779.846,802.659 754.513,770.992 725,742.5C 711.203,726.902 698.87,710.235 688,692.5C 677.007,672.869 672.674,651.869 675,629.5C 681.434,598.567 699.934,579.234 730.5,571.5 Z"/></g>
<g><path style="opacity:1" fill="#da1d1d" d="M 736.5,583.5 C 749.759,581.981 761.759,585.148 772.5,593C 776.333,596.167 780.167,599.333 784,602.5C 789.396,610.234 794.396,618.234 799,626.5C 800.724,629.73 802.724,630.064 805,627.5C 812.297,605.202 827.13,590.702 849.5,584C 855.833,583.333 862.167,583.333 868.5,584C 904.2,595.904 919.033,620.404 913,657.5C 907.696,677.442 898.696,695.442 886,711.5C 866,733.5 846,755.5 826,777.5C 817.565,786.878 809.732,796.711 802.5,807C 799.692,807.92 797.525,807.087 796,804.5C 780.924,782.078 763.591,761.411 744,742.5C 736.043,732.208 727.71,722.208 719,712.5C 707.745,698.661 699.079,683.327 693,666.5C 687.175,646.173 688.842,626.507 698,607.5C 701.263,601.781 705.763,597.281 711.5,594C 719.498,589.399 727.831,585.899 736.5,583.5 Z"/></g>
<g><path style="opacity:1" fill="#030101" d="M 511.5,822.5 C 525.234,845.594 540.734,867.594 558,888.5C 582.047,913.382 606.88,937.382 632.5,960.5C 596.815,988.685 564.981,1020.69 537,1056.5C 528.333,1069.83 519.667,1083.17 511,1096.5C 479.631,1042.85 438.798,997.52 388.5,960.5C 416.746,937.089 443.246,911.756 468,884.5C 476.05,874.785 483.716,864.785 491,854.5C 497.594,843.635 504.428,832.969 511.5,822.5 Z"/></g>
<g><path style="opacity:1" fill="#da1d1d" d="M 509.5,851.5 C 511.371,851.859 512.871,852.859 514,854.5C 524.281,869.115 534.948,883.449 546,897.5C 566.564,920.065 588.397,941.232 611.5,961C 572.021,991.306 538.687,1027.14 511.5,1068.5C 497.889,1050.38 484.056,1032.38 470,1014.5C 460.5,1005 451,995.5 441.5,986C 431.5,977.333 421.5,968.667 411.5,960C 446.87,929.635 478.37,895.801 506,858.5C 507.18,856.14 508.347,853.807 509.5,851.5 Z"/></g>
</svg>
